G04 #@! TF.GenerationSoftware,KiCad,Pcbnew,8.0.8*
G04 #@! TF.CreationDate,2025-02-19T14:25:04+11:00*
G04 #@! TF.ProjectId,minifoguetes,6d696e69-666f-4677-9565-7465732e6b69,rev?*
G04 #@! TF.SameCoordinates,Original*
G04 #@! TF.FileFunction,Legend,Top*
G04 #@! TF.FilePolarity,Positive*
%FSLAX46Y46*%
G04 Gerber Fmt 4.6, Leading zero omitted, Abs format (unit mm)*
G04 Created by KiCad (PCBNEW 8.0.8) date 2025-02-19 14:25:04*
%MOMM*%
%LPD*%
G01*
G04 APERTURE LIST*
%ADD10C,0.120000*%
%ADD11C,0.100000*%
%ADD12C,0.152400*%
%ADD13R,2.000000X2.000000*%
%ADD14C,2.000000*%
%ADD15R,1.800000X1.800000*%
%ADD16C,1.800000*%
%ADD17C,1.400000*%
%ADD18O,1.400000X1.400000*%
%ADD19R,3.000000X3.000000*%
%ADD20C,3.000000*%
%ADD21R,1.727200X1.727200*%
%ADD22C,1.727200*%
G04 APERTURE END LIST*
D10*
X102600000Y-128999999D02*
G75*
G02*
X102600000Y-126000000I6400000J1499999D01*
G01*
X115230000Y-127500000D02*
G75*
G02*
X102770000Y-127500000I-6230000J0D01*
G01*
X102770000Y-127500000D02*
G75*
G02*
X115230000Y-127500000I6230000J0D01*
G01*
X96170000Y-124455000D02*
X96170000Y-127545000D01*
X96170000Y-124455170D02*
G75*
G02*
X101720000Y-125999952I2560000J-1544830D01*
G01*
X101720000Y-126000048D02*
G75*
G02*
X96170000Y-127544830I-2990000J48D01*
G01*
X101230000Y-126000000D02*
G75*
G02*
X96230000Y-126000000I-2500000J0D01*
G01*
X96230000Y-126000000D02*
G75*
G02*
X101230000Y-126000000I2500000J0D01*
G01*
X92500000Y-88130000D02*
X92500000Y-89080000D01*
X93420000Y-89080000D02*
X91580000Y-89080000D01*
X91580000Y-89080000D02*
X91580000Y-92920000D01*
X93420000Y-92920000D02*
X93420000Y-89080000D01*
X91580000Y-92920000D02*
X93420000Y-92920000D01*
X92500000Y-93870000D02*
X92500000Y-92920000D01*
X98000000Y-117870000D02*
X98000000Y-116920000D01*
X97080000Y-116920000D02*
X98920000Y-116920000D01*
X98920000Y-116920000D02*
X98920000Y-113080000D01*
X97080000Y-113080000D02*
X97080000Y-116920000D01*
X98920000Y-113080000D02*
X97080000Y-113080000D01*
X98000000Y-112130000D02*
X98000000Y-113080000D01*
X87190000Y-130080000D02*
X94810000Y-130080000D01*
X94810000Y-130080000D02*
X94810000Y-119920000D01*
X87190000Y-119920000D02*
X87190000Y-130080000D01*
X93540000Y-119920000D02*
X93540000Y-130080000D01*
X94810000Y-119920000D02*
X87190000Y-119920000D01*
X87190000Y-119080000D02*
X94810000Y-119080000D01*
X94810000Y-119080000D02*
X94810000Y-108920000D01*
X87190000Y-108920000D02*
X87190000Y-119080000D01*
X93540000Y-108920000D02*
X93540000Y-119080000D01*
X94810000Y-108920000D02*
X87190000Y-108920000D01*
D11*
X94043000Y-57277200D02*
X112043000Y-57277200D01*
X112043000Y-100477200D01*
X94043000Y-100477200D01*
X94043000Y-57277200D01*
X93790000Y-102540000D02*
X109030000Y-102540000D01*
X109030000Y-105080000D01*
X93790000Y-105080000D01*
X93790000Y-102540000D01*
X89410000Y-65580000D02*
X113410000Y-65580000D01*
X113410000Y-106580000D01*
X89410000Y-106580000D01*
X89410000Y-65580000D01*
D12*
X90487700Y-133500000D02*
G75*
G02*
X90081300Y-133500000I-203200J0D01*
G01*
X90081300Y-133500000D02*
G75*
G02*
X90487700Y-133500000I203200J0D01*
G01*
X92189500Y-132115700D02*
X102730500Y-132115700D01*
X92062500Y-135798700D02*
X102857500Y-135798700D01*
X102857500Y-135798700D02*
X102857500Y-130718700D01*
X102857500Y-130718700D02*
X92062500Y-130718700D01*
X92062500Y-130718700D02*
X92062500Y-135798700D01*
D11*
X115157000Y-120542800D02*
X100157000Y-120542800D01*
X100157000Y-108542800D01*
X115157000Y-108542800D01*
X115157000Y-120542800D01*
%LPC*%
D13*
X106500000Y-127500000D03*
D14*
X111500000Y-127500000D03*
D15*
X97460000Y-126000000D03*
D16*
X100000000Y-126000000D03*
D17*
X92500000Y-87190000D03*
D18*
X92500000Y-94810000D03*
D17*
X98000000Y-118810000D03*
D18*
X98000000Y-111190000D03*
D19*
X91000000Y-127540000D03*
D20*
X91000000Y-122460000D03*
D19*
X91000000Y-116540000D03*
D20*
X91000000Y-111460000D03*
D14*
X95423000Y-61097200D03*
X95423000Y-63637200D03*
X95423000Y-66177200D03*
X95423000Y-68717200D03*
X95423000Y-71257200D03*
X95423000Y-73797200D03*
X95423000Y-76337200D03*
X95423000Y-78877200D03*
X95423000Y-81417200D03*
X95423000Y-83957200D03*
X95423000Y-86497200D03*
X95423000Y-89037200D03*
X95423000Y-91577200D03*
X95423000Y-94117200D03*
X95423000Y-96657200D03*
X110663000Y-61097200D03*
X110663000Y-63637200D03*
X110663000Y-66177200D03*
X110663000Y-68717200D03*
X110663000Y-71257200D03*
X110663000Y-73797200D03*
X110663000Y-76337200D03*
X110663000Y-78877200D03*
X110663000Y-81417200D03*
X110663000Y-83957200D03*
X110663000Y-86497200D03*
X110663000Y-89037200D03*
X110663000Y-91577200D03*
X110663000Y-94117200D03*
X110663000Y-96657200D03*
X107760000Y-103860000D03*
X105220000Y-103860000D03*
X102680000Y-103860000D03*
X100140000Y-103860000D03*
X97600000Y-103860000D03*
X95060000Y-103860000D03*
D21*
X94920000Y-133500000D03*
D22*
X97460000Y-133500000D03*
X100000000Y-133500000D03*
D14*
X114000000Y-109920000D03*
X111460000Y-109920000D03*
X108920000Y-109920000D03*
X106380000Y-109920000D03*
X103840000Y-109920000D03*
X101300000Y-109920000D03*
%LPD*%
M02*
