M48
; DRILL file {KiCad 8.0.8} date 2025-02-19T14:25:56+1100
; FORMAT={-:-/ absolute / metric / decimal}
; #@! TF.CreationDate,2025-02-19T14:25:56+11:00
; #@! TF.GenerationSoftware,Kicad,Pcbnew,8.0.8
; #@! TF.FileFunction,Plated,1,2,PTH
FMAT,2
METRIC
; #@! TA.AperFunction,Plated,PTH,ViaDrill
T1C0.300
; #@! TA.AperFunction,Plated,PTH,ComponentDrill
T2C0.700
; #@! TA.AperFunction,Plated,PTH,ComponentDrill
T3C0.900
; #@! TA.AperFunction,Plated,PTH,ComponentDrill
T4C1.000
; #@! TA.AperFunction,Plated,PTH,ComponentDrill
T5C1.219
; #@! TA.AperFunction,Plated,PTH,ComponentDrill
T6C1.520
%
G90
G05
T1
X99.0Y-90.0
X103.0Y-63.5
X108.0Y-68.5
X108.0Y-107.0
T2
X92.5Y-87.19
X92.5Y-94.81
X98.0Y-111.19
X98.0Y-118.81
T3
X97.46Y-126.0
X100.0Y-126.0
T4
X95.06Y-103.86
X95.423Y-61.097
X95.423Y-63.637
X95.423Y-66.177
X95.423Y-68.717
X95.423Y-71.257
X95.423Y-73.797
X95.423Y-76.337
X95.423Y-78.877
X95.423Y-81.417
X95.423Y-83.957
X95.423Y-86.497
X95.423Y-89.037
X95.423Y-91.577
X95.423Y-94.117
X95.423Y-96.657
X97.6Y-103.86
X100.14Y-103.86
X101.3Y-109.92
X102.68Y-103.86
X103.84Y-109.92
X105.22Y-103.86
X106.38Y-109.92
X106.5Y-127.5
X107.76Y-103.86
X108.92Y-109.92
X110.663Y-61.097
X110.663Y-63.637
X110.663Y-66.177
X110.663Y-68.717
X110.663Y-71.257
X110.663Y-73.797
X110.663Y-76.337
X110.663Y-78.877
X110.663Y-81.417
X110.663Y-83.957
X110.663Y-86.497
X110.663Y-89.037
X110.663Y-91.577
X110.663Y-94.117
X110.663Y-96.657
X111.46Y-109.92
X111.5Y-127.5
X114.0Y-109.92
T5
X94.92Y-133.5
X97.46Y-133.5
X100.0Y-133.5
T6
X91.0Y-111.46
X91.0Y-116.54
X91.0Y-122.46
X91.0Y-127.54
M30
