M48
; DRILL file {KiCad 8.0.8} date 2025-03-05T22:11:48+1100
; FORMAT={-:-/ absolute / metric / decimal}
; #@! TF.CreationDate,2025-03-05T22:11:48+11:00
; #@! TF.GenerationSoftware,Kicad,Pcbnew,8.0.8
; #@! TF.FileFunction,Plated,1,2,PTH
FMAT,2
METRIC
; #@! TA.AperFunction,Plated,PTH,ViaDrill
T1C0.300
; #@! TA.AperFunction,Plated,PTH,ComponentDrill
T2C0.750
; #@! TA.AperFunction,Plated,PTH,ComponentDrill
T3C0.800
; #@! TA.AperFunction,Plated,PTH,ComponentDrill
T4C0.900
; #@! TA.AperFunction,Plated,PTH,ComponentDrill
T5C1.000
; #@! TA.AperFunction,Plated,PTH,ComponentDrill
T6C1.520
%
G90
G05
T1
X92.98Y-116.09
X92.98Y-124.75
X93.0Y-75.0
X95.0Y-118.0
X96.0Y-84.0
X97.0Y-109.0
X104.0Y-122.0
X114.0Y-76.0
T2
X175.485Y-100.08
X183.105Y-100.08
T3
X89.68Y-130.69
X89.68Y-140.85
X94.53Y-130.76
X94.53Y-140.92
X102.9Y-130.5
X102.9Y-140.66
X108.66Y-130.65
X108.66Y-140.81
X141.1Y-125.47
X143.6Y-125.47
X151.25Y-148.54
X161.41Y-148.54
T4
X110.16Y-118.465
X110.16Y-121.005
X126.84Y-126.33
X126.84Y-128.87
T5
X86.59Y-77.67
X86.59Y-80.21
X86.59Y-82.75
X86.59Y-85.29
X86.59Y-87.83
X86.59Y-90.37
X86.59Y-92.91
X86.59Y-95.45
X86.59Y-97.99
X86.59Y-100.53
X86.59Y-103.07
X86.59Y-105.61
X86.59Y-108.15
X86.59Y-110.69
X86.59Y-113.23
X101.83Y-77.67
X101.83Y-80.21
X101.83Y-82.75
X101.83Y-85.29
X101.83Y-87.83
X101.83Y-90.37
X101.83Y-92.91
X101.83Y-95.45
X101.83Y-97.99
X101.83Y-100.53
X101.83Y-103.07
X101.83Y-105.61
X101.83Y-108.15
X101.83Y-110.69
X101.83Y-113.23
X117.34Y-144.0
X119.88Y-144.0
X120.39Y-89.4
X122.42Y-144.0
X122.93Y-89.4
X124.96Y-144.0
X125.47Y-89.4
X127.5Y-144.0
X128.01Y-89.4
X130.04Y-144.0
X130.55Y-89.4
X132.58Y-144.0
X133.09Y-89.4
X135.12Y-144.0
X137.66Y-144.0
X140.2Y-144.0
X151.91Y-90.5
X151.91Y-131.5
X169.91Y-90.5
X169.91Y-131.5
T6
X150.35Y-79.75
X155.43Y-79.75
X163.54Y-79.53
X168.62Y-79.53
X179.85Y-108.06
X179.85Y-113.14
M30
