%TF.GenerationSoftware,KiCad,Pcbnew,8.0.8*%
%TF.CreationDate,2025-03-05T22:12:12+11:00*%
%TF.ProjectId,transmissor,7472616e-736d-4697-9373-6f722e6b6963,rev?*%
%TF.SameCoordinates,Original*%
%TF.FileFunction,Drillmap*%
%TF.FilePolarity,Positive*%
%FSLAX45Y45*%
G04 Gerber Fmt 4.5, Leading zero omitted, Abs format (unit mm)*
G04 Created by KiCad (PCBNEW 8.0.8) date 2025-03-05 22:12:12*
%MOMM*%
%LPD*%
G01*
G04 APERTURE LIST*
%ADD10C,0.050000*%
%ADD11C,0.200000*%
G04 APERTURE END LIST*
D10*
X14017000Y-10857000D02*
G75*
G02*
X11317000Y-10857000I-1350000J0D01*
G01*
X11317000Y-10857000D02*
G75*
G02*
X14017000Y-10857000I1350000J0D01*
G01*
X18817000Y-10857000D02*
G75*
G02*
X6517000Y-10857000I-6150000J0D01*
G01*
X6517000Y-10857000D02*
G75*
G02*
X18817000Y-10857000I6150000J0D01*
G01*
D11*
X6775277Y-17320984D02*
X6775277Y-17120984D01*
X6775277Y-17120984D02*
X6822896Y-17120984D01*
X6822896Y-17120984D02*
X6851467Y-17130508D01*
X6851467Y-17130508D02*
X6870515Y-17149555D01*
X6870515Y-17149555D02*
X6880039Y-17168603D01*
X6880039Y-17168603D02*
X6889562Y-17206698D01*
X6889562Y-17206698D02*
X6889562Y-17235270D01*
X6889562Y-17235270D02*
X6880039Y-17273365D01*
X6880039Y-17273365D02*
X6870515Y-17292412D01*
X6870515Y-17292412D02*
X6851467Y-17311460D01*
X6851467Y-17311460D02*
X6822896Y-17320984D01*
X6822896Y-17320984D02*
X6775277Y-17320984D01*
X6975277Y-17320984D02*
X6975277Y-17187650D01*
X6975277Y-17225746D02*
X6984801Y-17206698D01*
X6984801Y-17206698D02*
X6994324Y-17197174D01*
X6994324Y-17197174D02*
X7013372Y-17187650D01*
X7013372Y-17187650D02*
X7032420Y-17187650D01*
X7099086Y-17320984D02*
X7099086Y-17187650D01*
X7099086Y-17120984D02*
X7089562Y-17130508D01*
X7089562Y-17130508D02*
X7099086Y-17140031D01*
X7099086Y-17140031D02*
X7108610Y-17130508D01*
X7108610Y-17130508D02*
X7099086Y-17120984D01*
X7099086Y-17120984D02*
X7099086Y-17140031D01*
X7222896Y-17320984D02*
X7203848Y-17311460D01*
X7203848Y-17311460D02*
X7194324Y-17292412D01*
X7194324Y-17292412D02*
X7194324Y-17120984D01*
X7327658Y-17320984D02*
X7308610Y-17311460D01*
X7308610Y-17311460D02*
X7299086Y-17292412D01*
X7299086Y-17292412D02*
X7299086Y-17120984D01*
X7556229Y-17320984D02*
X7556229Y-17120984D01*
X7556229Y-17120984D02*
X7622896Y-17263841D01*
X7622896Y-17263841D02*
X7689562Y-17120984D01*
X7689562Y-17120984D02*
X7689562Y-17320984D01*
X7870515Y-17320984D02*
X7870515Y-17216222D01*
X7870515Y-17216222D02*
X7860991Y-17197174D01*
X7860991Y-17197174D02*
X7841943Y-17187650D01*
X7841943Y-17187650D02*
X7803848Y-17187650D01*
X7803848Y-17187650D02*
X7784801Y-17197174D01*
X7870515Y-17311460D02*
X7851467Y-17320984D01*
X7851467Y-17320984D02*
X7803848Y-17320984D01*
X7803848Y-17320984D02*
X7784801Y-17311460D01*
X7784801Y-17311460D02*
X7775277Y-17292412D01*
X7775277Y-17292412D02*
X7775277Y-17273365D01*
X7775277Y-17273365D02*
X7784801Y-17254317D01*
X7784801Y-17254317D02*
X7803848Y-17244793D01*
X7803848Y-17244793D02*
X7851467Y-17244793D01*
X7851467Y-17244793D02*
X7870515Y-17235270D01*
X7965753Y-17187650D02*
X7965753Y-17387650D01*
X7965753Y-17197174D02*
X7984801Y-17187650D01*
X7984801Y-17187650D02*
X8022896Y-17187650D01*
X8022896Y-17187650D02*
X8041943Y-17197174D01*
X8041943Y-17197174D02*
X8051467Y-17206698D01*
X8051467Y-17206698D02*
X8060991Y-17225746D01*
X8060991Y-17225746D02*
X8060991Y-17282889D01*
X8060991Y-17282889D02*
X8051467Y-17301936D01*
X8051467Y-17301936D02*
X8041943Y-17311460D01*
X8041943Y-17311460D02*
X8022896Y-17320984D01*
X8022896Y-17320984D02*
X7984801Y-17320984D01*
X7984801Y-17320984D02*
X7965753Y-17311460D01*
X8146705Y-17301936D02*
X8156229Y-17311460D01*
X8156229Y-17311460D02*
X8146705Y-17320984D01*
X8146705Y-17320984D02*
X8137182Y-17311460D01*
X8137182Y-17311460D02*
X8146705Y-17301936D01*
X8146705Y-17301936D02*
X8146705Y-17320984D01*
X8146705Y-17197174D02*
X8156229Y-17206698D01*
X8156229Y-17206698D02*
X8146705Y-17216222D01*
X8146705Y-17216222D02*
X8137182Y-17206698D01*
X8137182Y-17206698D02*
X8146705Y-17197174D01*
X8146705Y-17197174D02*
X8146705Y-17216222D01*
M02*
