G04 #@! TF.GenerationSoftware,KiCad,Pcbnew,8.0.8*
G04 #@! TF.CreationDate,2025-03-05T22:10:22+11:00*
G04 #@! TF.ProjectId,transmissor,7472616e-736d-4697-9373-6f722e6b6963,rev?*
G04 #@! TF.SameCoordinates,Original*
G04 #@! TF.FileFunction,Legend,Top*
G04 #@! TF.FilePolarity,Positive*
%FSLAX46Y46*%
G04 Gerber Fmt 4.6, Leading zero omitted, Abs format (unit mm)*
G04 Created by KiCad (PCBNEW 8.0.8) date 2025-03-05 22:10:22*
%MOMM*%
%LPD*%
G01*
G04 APERTURE LIST*
%ADD10C,0.280000*%
%ADD11C,0.400000*%
%ADD12C,0.200000*%
%ADD13C,0.100000*%
%ADD14C,0.120000*%
%ADD15C,1.600000*%
%ADD16O,1.600000X1.600000*%
%ADD17R,1.800000X1.800000*%
%ADD18C,1.800000*%
%ADD19R,1.500000X1.500000*%
%ADD20O,1.500000X1.500000*%
%ADD21R,3.000000X3.000000*%
%ADD22C,3.000000*%
%ADD23C,2.000000*%
%ADD24R,1.600000X1.600000*%
G04 APERTURE END LIST*
D10*
X76300184Y-134822456D02*
X74900184Y-134822456D01*
X74900184Y-134822456D02*
X74900184Y-134289123D01*
X74900184Y-134289123D02*
X74966851Y-134155790D01*
X74966851Y-134155790D02*
X75033518Y-134089123D01*
X75033518Y-134089123D02*
X75166851Y-134022456D01*
X75166851Y-134022456D02*
X75366851Y-134022456D01*
X75366851Y-134022456D02*
X75500184Y-134089123D01*
X75500184Y-134089123D02*
X75566851Y-134155790D01*
X75566851Y-134155790D02*
X75633518Y-134289123D01*
X75633518Y-134289123D02*
X75633518Y-134822456D01*
X76300184Y-133222456D02*
X76233518Y-133355790D01*
X76233518Y-133355790D02*
X76100184Y-133422456D01*
X76100184Y-133422456D02*
X74900184Y-133422456D01*
X76300184Y-132089123D02*
X75566851Y-132089123D01*
X75566851Y-132089123D02*
X75433518Y-132155790D01*
X75433518Y-132155790D02*
X75366851Y-132289123D01*
X75366851Y-132289123D02*
X75366851Y-132555790D01*
X75366851Y-132555790D02*
X75433518Y-132689123D01*
X76233518Y-132089123D02*
X76300184Y-132222457D01*
X76300184Y-132222457D02*
X76300184Y-132555790D01*
X76300184Y-132555790D02*
X76233518Y-132689123D01*
X76233518Y-132689123D02*
X76100184Y-132755790D01*
X76100184Y-132755790D02*
X75966851Y-132755790D01*
X75966851Y-132755790D02*
X75833518Y-132689123D01*
X75833518Y-132689123D02*
X75766851Y-132555790D01*
X75766851Y-132555790D02*
X75766851Y-132222457D01*
X75766851Y-132222457D02*
X75700184Y-132089123D01*
X76233518Y-130822456D02*
X76300184Y-130955790D01*
X76300184Y-130955790D02*
X76300184Y-131222456D01*
X76300184Y-131222456D02*
X76233518Y-131355790D01*
X76233518Y-131355790D02*
X76166851Y-131422456D01*
X76166851Y-131422456D02*
X76033518Y-131489123D01*
X76033518Y-131489123D02*
X75633518Y-131489123D01*
X75633518Y-131489123D02*
X75500184Y-131422456D01*
X75500184Y-131422456D02*
X75433518Y-131355790D01*
X75433518Y-131355790D02*
X75366851Y-131222456D01*
X75366851Y-131222456D02*
X75366851Y-130955790D01*
X75366851Y-130955790D02*
X75433518Y-130822456D01*
X76300184Y-129622456D02*
X75566851Y-129622456D01*
X75566851Y-129622456D02*
X75433518Y-129689123D01*
X75433518Y-129689123D02*
X75366851Y-129822456D01*
X75366851Y-129822456D02*
X75366851Y-130089123D01*
X75366851Y-130089123D02*
X75433518Y-130222456D01*
X76233518Y-129622456D02*
X76300184Y-129755790D01*
X76300184Y-129755790D02*
X76300184Y-130089123D01*
X76300184Y-130089123D02*
X76233518Y-130222456D01*
X76233518Y-130222456D02*
X76100184Y-130289123D01*
X76100184Y-130289123D02*
X75966851Y-130289123D01*
X75966851Y-130289123D02*
X75833518Y-130222456D01*
X75833518Y-130222456D02*
X75766851Y-130089123D01*
X75766851Y-130089123D02*
X75766851Y-129755790D01*
X75766851Y-129755790D02*
X75700184Y-129622456D01*
X76300184Y-127889122D02*
X74900184Y-127889122D01*
X74900184Y-127889122D02*
X76300184Y-127089122D01*
X76300184Y-127089122D02*
X74900184Y-127089122D01*
X76300184Y-126422455D02*
X74900184Y-126422455D01*
X74900184Y-126422455D02*
X74900184Y-125889122D01*
X74900184Y-125889122D02*
X74966851Y-125755789D01*
X74966851Y-125755789D02*
X75033518Y-125689122D01*
X75033518Y-125689122D02*
X75166851Y-125622455D01*
X75166851Y-125622455D02*
X75366851Y-125622455D01*
X75366851Y-125622455D02*
X75500184Y-125689122D01*
X75500184Y-125689122D02*
X75566851Y-125755789D01*
X75566851Y-125755789D02*
X75633518Y-125889122D01*
X75633518Y-125889122D02*
X75633518Y-126422455D01*
X74900184Y-124422455D02*
X74900184Y-124689122D01*
X74900184Y-124689122D02*
X74966851Y-124822455D01*
X74966851Y-124822455D02*
X75033518Y-124889122D01*
X75033518Y-124889122D02*
X75233518Y-125022455D01*
X75233518Y-125022455D02*
X75500184Y-125089122D01*
X75500184Y-125089122D02*
X76033518Y-125089122D01*
X76033518Y-125089122D02*
X76166851Y-125022455D01*
X76166851Y-125022455D02*
X76233518Y-124955789D01*
X76233518Y-124955789D02*
X76300184Y-124822455D01*
X76300184Y-124822455D02*
X76300184Y-124555789D01*
X76300184Y-124555789D02*
X76233518Y-124422455D01*
X76233518Y-124422455D02*
X76166851Y-124355789D01*
X76166851Y-124355789D02*
X76033518Y-124289122D01*
X76033518Y-124289122D02*
X75700184Y-124289122D01*
X75700184Y-124289122D02*
X75566851Y-124355789D01*
X75566851Y-124355789D02*
X75500184Y-124422455D01*
X75500184Y-124422455D02*
X75433518Y-124555789D01*
X75433518Y-124555789D02*
X75433518Y-124822455D01*
X75433518Y-124822455D02*
X75500184Y-124955789D01*
X75500184Y-124955789D02*
X75566851Y-125022455D01*
X75566851Y-125022455D02*
X75700184Y-125089122D01*
X75366851Y-123089122D02*
X76300184Y-123089122D01*
X74833518Y-123422456D02*
X75833518Y-123755789D01*
X75833518Y-123755789D02*
X75833518Y-122889122D01*
X74900184Y-122089123D02*
X74900184Y-121955789D01*
X74900184Y-121955789D02*
X74966851Y-121822456D01*
X74966851Y-121822456D02*
X75033518Y-121755789D01*
X75033518Y-121755789D02*
X75166851Y-121689123D01*
X75166851Y-121689123D02*
X75433518Y-121622456D01*
X75433518Y-121622456D02*
X75766851Y-121622456D01*
X75766851Y-121622456D02*
X76033518Y-121689123D01*
X76033518Y-121689123D02*
X76166851Y-121755789D01*
X76166851Y-121755789D02*
X76233518Y-121822456D01*
X76233518Y-121822456D02*
X76300184Y-121955789D01*
X76300184Y-121955789D02*
X76300184Y-122089123D01*
X76300184Y-122089123D02*
X76233518Y-122222456D01*
X76233518Y-122222456D02*
X76166851Y-122289123D01*
X76166851Y-122289123D02*
X76033518Y-122355789D01*
X76033518Y-122355789D02*
X75766851Y-122422456D01*
X75766851Y-122422456D02*
X75433518Y-122422456D01*
X75433518Y-122422456D02*
X75166851Y-122355789D01*
X75166851Y-122355789D02*
X75033518Y-122289123D01*
X75033518Y-122289123D02*
X74966851Y-122222456D01*
X74966851Y-122222456D02*
X74900184Y-122089123D01*
X75766851Y-119955789D02*
X75766851Y-118889123D01*
X75366851Y-117155789D02*
X76766851Y-117155789D01*
X75433518Y-117155789D02*
X75366851Y-117022456D01*
X75366851Y-117022456D02*
X75366851Y-116755789D01*
X75366851Y-116755789D02*
X75433518Y-116622456D01*
X75433518Y-116622456D02*
X75500184Y-116555789D01*
X75500184Y-116555789D02*
X75633518Y-116489123D01*
X75633518Y-116489123D02*
X76033518Y-116489123D01*
X76033518Y-116489123D02*
X76166851Y-116555789D01*
X76166851Y-116555789D02*
X76233518Y-116622456D01*
X76233518Y-116622456D02*
X76300184Y-116755789D01*
X76300184Y-116755789D02*
X76300184Y-117022456D01*
X76300184Y-117022456D02*
X76233518Y-117155789D01*
X76300184Y-115689122D02*
X76233518Y-115822456D01*
X76233518Y-115822456D02*
X76166851Y-115889122D01*
X76166851Y-115889122D02*
X76033518Y-115955789D01*
X76033518Y-115955789D02*
X75633518Y-115955789D01*
X75633518Y-115955789D02*
X75500184Y-115889122D01*
X75500184Y-115889122D02*
X75433518Y-115822456D01*
X75433518Y-115822456D02*
X75366851Y-115689122D01*
X75366851Y-115689122D02*
X75366851Y-115489122D01*
X75366851Y-115489122D02*
X75433518Y-115355789D01*
X75433518Y-115355789D02*
X75500184Y-115289122D01*
X75500184Y-115289122D02*
X75633518Y-115222456D01*
X75633518Y-115222456D02*
X76033518Y-115222456D01*
X76033518Y-115222456D02*
X76166851Y-115289122D01*
X76166851Y-115289122D02*
X76233518Y-115355789D01*
X76233518Y-115355789D02*
X76300184Y-115489122D01*
X76300184Y-115489122D02*
X76300184Y-115689122D01*
X76300184Y-114622455D02*
X75366851Y-114622455D01*
X75633518Y-114622455D02*
X75500184Y-114555789D01*
X75500184Y-114555789D02*
X75433518Y-114489122D01*
X75433518Y-114489122D02*
X75366851Y-114355789D01*
X75366851Y-114355789D02*
X75366851Y-114222455D01*
X74966851Y-111955788D02*
X74900184Y-112089121D01*
X74900184Y-112089121D02*
X74900184Y-112289121D01*
X74900184Y-112289121D02*
X74966851Y-112489121D01*
X74966851Y-112489121D02*
X75100184Y-112622455D01*
X75100184Y-112622455D02*
X75233518Y-112689121D01*
X75233518Y-112689121D02*
X75500184Y-112755788D01*
X75500184Y-112755788D02*
X75700184Y-112755788D01*
X75700184Y-112755788D02*
X75966851Y-112689121D01*
X75966851Y-112689121D02*
X76100184Y-112622455D01*
X76100184Y-112622455D02*
X76233518Y-112489121D01*
X76233518Y-112489121D02*
X76300184Y-112289121D01*
X76300184Y-112289121D02*
X76300184Y-112155788D01*
X76300184Y-112155788D02*
X76233518Y-111955788D01*
X76233518Y-111955788D02*
X76166851Y-111889121D01*
X76166851Y-111889121D02*
X75700184Y-111889121D01*
X75700184Y-111889121D02*
X75700184Y-112155788D01*
X76300184Y-111289121D02*
X75366851Y-111289121D01*
X75633518Y-111289121D02*
X75500184Y-111222455D01*
X75500184Y-111222455D02*
X75433518Y-111155788D01*
X75433518Y-111155788D02*
X75366851Y-111022455D01*
X75366851Y-111022455D02*
X75366851Y-110889121D01*
X76300184Y-110422454D02*
X75366851Y-110422454D01*
X74900184Y-110422454D02*
X74966851Y-110489121D01*
X74966851Y-110489121D02*
X75033518Y-110422454D01*
X75033518Y-110422454D02*
X74966851Y-110355788D01*
X74966851Y-110355788D02*
X74900184Y-110422454D01*
X74900184Y-110422454D02*
X75033518Y-110422454D01*
X75366851Y-109755787D02*
X76766851Y-109755787D01*
X75433518Y-109755787D02*
X75366851Y-109622454D01*
X75366851Y-109622454D02*
X75366851Y-109355787D01*
X75366851Y-109355787D02*
X75433518Y-109222454D01*
X75433518Y-109222454D02*
X75500184Y-109155787D01*
X75500184Y-109155787D02*
X75633518Y-109089121D01*
X75633518Y-109089121D02*
X76033518Y-109089121D01*
X76033518Y-109089121D02*
X76166851Y-109155787D01*
X76166851Y-109155787D02*
X76233518Y-109222454D01*
X76233518Y-109222454D02*
X76300184Y-109355787D01*
X76300184Y-109355787D02*
X76300184Y-109622454D01*
X76300184Y-109622454D02*
X76233518Y-109755787D01*
X76233518Y-107955787D02*
X76300184Y-108089120D01*
X76300184Y-108089120D02*
X76300184Y-108355787D01*
X76300184Y-108355787D02*
X76233518Y-108489120D01*
X76233518Y-108489120D02*
X76100184Y-108555787D01*
X76100184Y-108555787D02*
X75566851Y-108555787D01*
X75566851Y-108555787D02*
X75433518Y-108489120D01*
X75433518Y-108489120D02*
X75366851Y-108355787D01*
X75366851Y-108355787D02*
X75366851Y-108089120D01*
X75366851Y-108089120D02*
X75433518Y-107955787D01*
X75433518Y-107955787D02*
X75566851Y-107889120D01*
X75566851Y-107889120D02*
X75700184Y-107889120D01*
X75700184Y-107889120D02*
X75833518Y-108555787D01*
X75366851Y-107289120D02*
X76300184Y-107289120D01*
X75500184Y-107289120D02*
X75433518Y-107222454D01*
X75433518Y-107222454D02*
X75366851Y-107089120D01*
X75366851Y-107089120D02*
X75366851Y-106889120D01*
X75366851Y-106889120D02*
X75433518Y-106755787D01*
X75433518Y-106755787D02*
X75566851Y-106689120D01*
X75566851Y-106689120D02*
X76300184Y-106689120D01*
X74900184Y-105155786D02*
X74900184Y-104355786D01*
X76300184Y-104755786D02*
X74900184Y-104755786D01*
X75033518Y-103955786D02*
X74966851Y-103889119D01*
X74966851Y-103889119D02*
X74900184Y-103755786D01*
X74900184Y-103755786D02*
X74900184Y-103422453D01*
X74900184Y-103422453D02*
X74966851Y-103289119D01*
X74966851Y-103289119D02*
X75033518Y-103222453D01*
X75033518Y-103222453D02*
X75166851Y-103155786D01*
X75166851Y-103155786D02*
X75300184Y-103155786D01*
X75300184Y-103155786D02*
X75500184Y-103222453D01*
X75500184Y-103222453D02*
X76300184Y-104022453D01*
X76300184Y-104022453D02*
X76300184Y-103155786D01*
X74900184Y-102689120D02*
X74900184Y-101755786D01*
X74900184Y-101755786D02*
X76300184Y-102355786D01*
X75766851Y-100155786D02*
X75766851Y-99089120D01*
X76300184Y-97355786D02*
X74900184Y-97355786D01*
X74900184Y-96889119D02*
X74900184Y-96089119D01*
X76300184Y-96489119D02*
X74900184Y-96489119D01*
X75900184Y-95689119D02*
X75900184Y-95022452D01*
X76300184Y-95822452D02*
X74900184Y-95355786D01*
X74900184Y-95355786D02*
X76300184Y-94889119D01*
X76300184Y-92555785D02*
X75633518Y-93022452D01*
X76300184Y-93355785D02*
X74900184Y-93355785D01*
X74900184Y-93355785D02*
X74900184Y-92822452D01*
X74900184Y-92822452D02*
X74966851Y-92689119D01*
X74966851Y-92689119D02*
X75033518Y-92622452D01*
X75033518Y-92622452D02*
X75166851Y-92555785D01*
X75166851Y-92555785D02*
X75366851Y-92555785D01*
X75366851Y-92555785D02*
X75500184Y-92622452D01*
X75500184Y-92622452D02*
X75566851Y-92689119D01*
X75566851Y-92689119D02*
X75633518Y-92822452D01*
X75633518Y-92822452D02*
X75633518Y-93355785D01*
X76300184Y-91955785D02*
X74900184Y-91955785D01*
X74900184Y-91955785D02*
X74900184Y-91622452D01*
X74900184Y-91622452D02*
X74966851Y-91422452D01*
X74966851Y-91422452D02*
X75100184Y-91289119D01*
X75100184Y-91289119D02*
X75233518Y-91222452D01*
X75233518Y-91222452D02*
X75500184Y-91155785D01*
X75500184Y-91155785D02*
X75700184Y-91155785D01*
X75700184Y-91155785D02*
X75966851Y-91222452D01*
X75966851Y-91222452D02*
X76100184Y-91289119D01*
X76100184Y-91289119D02*
X76233518Y-91422452D01*
X76233518Y-91422452D02*
X76300184Y-91622452D01*
X76300184Y-91622452D02*
X76300184Y-91955785D01*
X75033518Y-89555785D02*
X74966851Y-89489118D01*
X74966851Y-89489118D02*
X74900184Y-89355785D01*
X74900184Y-89355785D02*
X74900184Y-89022452D01*
X74900184Y-89022452D02*
X74966851Y-88889118D01*
X74966851Y-88889118D02*
X75033518Y-88822452D01*
X75033518Y-88822452D02*
X75166851Y-88755785D01*
X75166851Y-88755785D02*
X75300184Y-88755785D01*
X75300184Y-88755785D02*
X75500184Y-88822452D01*
X75500184Y-88822452D02*
X76300184Y-89622452D01*
X76300184Y-89622452D02*
X76300184Y-88755785D01*
X74900184Y-87889119D02*
X74900184Y-87755785D01*
X74900184Y-87755785D02*
X74966851Y-87622452D01*
X74966851Y-87622452D02*
X75033518Y-87555785D01*
X75033518Y-87555785D02*
X75166851Y-87489119D01*
X75166851Y-87489119D02*
X75433518Y-87422452D01*
X75433518Y-87422452D02*
X75766851Y-87422452D01*
X75766851Y-87422452D02*
X76033518Y-87489119D01*
X76033518Y-87489119D02*
X76166851Y-87555785D01*
X76166851Y-87555785D02*
X76233518Y-87622452D01*
X76233518Y-87622452D02*
X76300184Y-87755785D01*
X76300184Y-87755785D02*
X76300184Y-87889119D01*
X76300184Y-87889119D02*
X76233518Y-88022452D01*
X76233518Y-88022452D02*
X76166851Y-88089119D01*
X76166851Y-88089119D02*
X76033518Y-88155785D01*
X76033518Y-88155785D02*
X75766851Y-88222452D01*
X75766851Y-88222452D02*
X75433518Y-88222452D01*
X75433518Y-88222452D02*
X75166851Y-88155785D01*
X75166851Y-88155785D02*
X75033518Y-88089119D01*
X75033518Y-88089119D02*
X74966851Y-88022452D01*
X74966851Y-88022452D02*
X74900184Y-87889119D01*
X75033518Y-86889119D02*
X74966851Y-86822452D01*
X74966851Y-86822452D02*
X74900184Y-86689119D01*
X74900184Y-86689119D02*
X74900184Y-86355786D01*
X74900184Y-86355786D02*
X74966851Y-86222452D01*
X74966851Y-86222452D02*
X75033518Y-86155786D01*
X75033518Y-86155786D02*
X75166851Y-86089119D01*
X75166851Y-86089119D02*
X75300184Y-86089119D01*
X75300184Y-86089119D02*
X75500184Y-86155786D01*
X75500184Y-86155786D02*
X76300184Y-86955786D01*
X76300184Y-86955786D02*
X76300184Y-86089119D01*
X74900184Y-84822453D02*
X74900184Y-85489119D01*
X74900184Y-85489119D02*
X75566851Y-85555786D01*
X75566851Y-85555786D02*
X75500184Y-85489119D01*
X75500184Y-85489119D02*
X75433518Y-85355786D01*
X75433518Y-85355786D02*
X75433518Y-85022453D01*
X75433518Y-85022453D02*
X75500184Y-84889119D01*
X75500184Y-84889119D02*
X75566851Y-84822453D01*
X75566851Y-84822453D02*
X75700184Y-84755786D01*
X75700184Y-84755786D02*
X76033518Y-84755786D01*
X76033518Y-84755786D02*
X76166851Y-84822453D01*
X76166851Y-84822453D02*
X76233518Y-84889119D01*
X76233518Y-84889119D02*
X76300184Y-85022453D01*
X76300184Y-85022453D02*
X76300184Y-85355786D01*
X76300184Y-85355786D02*
X76233518Y-85489119D01*
X76233518Y-85489119D02*
X76166851Y-85555786D01*
D11*
X185917466Y-112569347D02*
X185917466Y-114093157D01*
X185155561Y-113331252D02*
X186679371Y-113331252D01*
X168059347Y-74142533D02*
X169583157Y-74142533D01*
X168821252Y-74904438D02*
X168821252Y-73380628D01*
D12*
X164497945Y-74088495D02*
X164021755Y-74088495D01*
X164593183Y-73802780D02*
X164259850Y-74802780D01*
X164259850Y-74802780D02*
X163926517Y-73802780D01*
X163593183Y-73802780D02*
X163593183Y-74802780D01*
X163593183Y-74802780D02*
X163355088Y-74802780D01*
X163355088Y-74802780D02*
X163212231Y-74755161D01*
X163212231Y-74755161D02*
X163116993Y-74659923D01*
X163116993Y-74659923D02*
X163069374Y-74564685D01*
X163069374Y-74564685D02*
X163021755Y-74374209D01*
X163021755Y-74374209D02*
X163021755Y-74231352D01*
X163021755Y-74231352D02*
X163069374Y-74040876D01*
X163069374Y-74040876D02*
X163116993Y-73945638D01*
X163116993Y-73945638D02*
X163212231Y-73850400D01*
X163212231Y-73850400D02*
X163355088Y-73802780D01*
X163355088Y-73802780D02*
X163593183Y-73802780D01*
X162021755Y-73898019D02*
X162069374Y-73850400D01*
X162069374Y-73850400D02*
X162212231Y-73802780D01*
X162212231Y-73802780D02*
X162307469Y-73802780D01*
X162307469Y-73802780D02*
X162450326Y-73850400D01*
X162450326Y-73850400D02*
X162545564Y-73945638D01*
X162545564Y-73945638D02*
X162593183Y-74040876D01*
X162593183Y-74040876D02*
X162640802Y-74231352D01*
X162640802Y-74231352D02*
X162640802Y-74374209D01*
X162640802Y-74374209D02*
X162593183Y-74564685D01*
X162593183Y-74564685D02*
X162545564Y-74659923D01*
X162545564Y-74659923D02*
X162450326Y-74755161D01*
X162450326Y-74755161D02*
X162307469Y-74802780D01*
X162307469Y-74802780D02*
X162212231Y-74802780D01*
X162212231Y-74802780D02*
X162069374Y-74755161D01*
X162069374Y-74755161D02*
X162021755Y-74707542D01*
D11*
X185917466Y-107569347D02*
X185917466Y-109093157D01*
D12*
X111612219Y-135896666D02*
X111136028Y-136229999D01*
X111612219Y-136468094D02*
X110612219Y-136468094D01*
X110612219Y-136468094D02*
X110612219Y-136087142D01*
X110612219Y-136087142D02*
X110659838Y-135991904D01*
X110659838Y-135991904D02*
X110707457Y-135944285D01*
X110707457Y-135944285D02*
X110802695Y-135896666D01*
X110802695Y-135896666D02*
X110945552Y-135896666D01*
X110945552Y-135896666D02*
X111040790Y-135944285D01*
X111040790Y-135944285D02*
X111088409Y-135991904D01*
X111088409Y-135991904D02*
X111136028Y-136087142D01*
X111136028Y-136087142D02*
X111136028Y-136468094D01*
X110612219Y-134991904D02*
X110612219Y-135468094D01*
X110612219Y-135468094D02*
X111088409Y-135515713D01*
X111088409Y-135515713D02*
X111040790Y-135468094D01*
X111040790Y-135468094D02*
X110993171Y-135372856D01*
X110993171Y-135372856D02*
X110993171Y-135134761D01*
X110993171Y-135134761D02*
X111040790Y-135039523D01*
X111040790Y-135039523D02*
X111088409Y-134991904D01*
X111088409Y-134991904D02*
X111183647Y-134944285D01*
X111183647Y-134944285D02*
X111421742Y-134944285D01*
X111421742Y-134944285D02*
X111516980Y-134991904D01*
X111516980Y-134991904D02*
X111564600Y-135039523D01*
X111564600Y-135039523D02*
X111612219Y-135134761D01*
X111612219Y-135134761D02*
X111612219Y-135372856D01*
X111612219Y-135372856D02*
X111564600Y-135468094D01*
X111564600Y-135468094D02*
X111516980Y-135515713D01*
X126101905Y-124322219D02*
X126101905Y-123322219D01*
X126101905Y-123322219D02*
X126340000Y-123322219D01*
X126340000Y-123322219D02*
X126482857Y-123369838D01*
X126482857Y-123369838D02*
X126578095Y-123465076D01*
X126578095Y-123465076D02*
X126625714Y-123560314D01*
X126625714Y-123560314D02*
X126673333Y-123750790D01*
X126673333Y-123750790D02*
X126673333Y-123893647D01*
X126673333Y-123893647D02*
X126625714Y-124084123D01*
X126625714Y-124084123D02*
X126578095Y-124179361D01*
X126578095Y-124179361D02*
X126482857Y-124274600D01*
X126482857Y-124274600D02*
X126340000Y-124322219D01*
X126340000Y-124322219D02*
X126101905Y-124322219D01*
X127006667Y-123322219D02*
X127625714Y-123322219D01*
X127625714Y-123322219D02*
X127292381Y-123703171D01*
X127292381Y-123703171D02*
X127435238Y-123703171D01*
X127435238Y-123703171D02*
X127530476Y-123750790D01*
X127530476Y-123750790D02*
X127578095Y-123798409D01*
X127578095Y-123798409D02*
X127625714Y-123893647D01*
X127625714Y-123893647D02*
X127625714Y-124131742D01*
X127625714Y-124131742D02*
X127578095Y-124226980D01*
X127578095Y-124226980D02*
X127530476Y-124274600D01*
X127530476Y-124274600D02*
X127435238Y-124322219D01*
X127435238Y-124322219D02*
X127149524Y-124322219D01*
X127149524Y-124322219D02*
X127054286Y-124274600D01*
X127054286Y-124274600D02*
X127006667Y-124226980D01*
X176253809Y-102884600D02*
X176396666Y-102932219D01*
X176396666Y-102932219D02*
X176634761Y-102932219D01*
X176634761Y-102932219D02*
X176729999Y-102884600D01*
X176729999Y-102884600D02*
X176777618Y-102836980D01*
X176777618Y-102836980D02*
X176825237Y-102741742D01*
X176825237Y-102741742D02*
X176825237Y-102646504D01*
X176825237Y-102646504D02*
X176777618Y-102551266D01*
X176777618Y-102551266D02*
X176729999Y-102503647D01*
X176729999Y-102503647D02*
X176634761Y-102456028D01*
X176634761Y-102456028D02*
X176444285Y-102408409D01*
X176444285Y-102408409D02*
X176349047Y-102360790D01*
X176349047Y-102360790D02*
X176301428Y-102313171D01*
X176301428Y-102313171D02*
X176253809Y-102217933D01*
X176253809Y-102217933D02*
X176253809Y-102122695D01*
X176253809Y-102122695D02*
X176301428Y-102027457D01*
X176301428Y-102027457D02*
X176349047Y-101979838D01*
X176349047Y-101979838D02*
X176444285Y-101932219D01*
X176444285Y-101932219D02*
X176682380Y-101932219D01*
X176682380Y-101932219D02*
X176825237Y-101979838D01*
X177682380Y-102884600D02*
X177587142Y-102932219D01*
X177587142Y-102932219D02*
X177396666Y-102932219D01*
X177396666Y-102932219D02*
X177301428Y-102884600D01*
X177301428Y-102884600D02*
X177253809Y-102836980D01*
X177253809Y-102836980D02*
X177206190Y-102741742D01*
X177206190Y-102741742D02*
X177206190Y-102456028D01*
X177206190Y-102456028D02*
X177253809Y-102360790D01*
X177253809Y-102360790D02*
X177301428Y-102313171D01*
X177301428Y-102313171D02*
X177396666Y-102265552D01*
X177396666Y-102265552D02*
X177587142Y-102265552D01*
X177587142Y-102265552D02*
X177682380Y-102313171D01*
X178110952Y-102932219D02*
X178110952Y-101932219D01*
X178539523Y-102932219D02*
X178539523Y-102408409D01*
X178539523Y-102408409D02*
X178491904Y-102313171D01*
X178491904Y-102313171D02*
X178396666Y-102265552D01*
X178396666Y-102265552D02*
X178253809Y-102265552D01*
X178253809Y-102265552D02*
X178158571Y-102313171D01*
X178158571Y-102313171D02*
X178110952Y-102360790D01*
X179158571Y-102932219D02*
X179063333Y-102884600D01*
X179063333Y-102884600D02*
X179015714Y-102836980D01*
X179015714Y-102836980D02*
X178968095Y-102741742D01*
X178968095Y-102741742D02*
X178968095Y-102456028D01*
X178968095Y-102456028D02*
X179015714Y-102360790D01*
X179015714Y-102360790D02*
X179063333Y-102313171D01*
X179063333Y-102313171D02*
X179158571Y-102265552D01*
X179158571Y-102265552D02*
X179301428Y-102265552D01*
X179301428Y-102265552D02*
X179396666Y-102313171D01*
X179396666Y-102313171D02*
X179444285Y-102360790D01*
X179444285Y-102360790D02*
X179491904Y-102456028D01*
X179491904Y-102456028D02*
X179491904Y-102741742D01*
X179491904Y-102741742D02*
X179444285Y-102836980D01*
X179444285Y-102836980D02*
X179396666Y-102884600D01*
X179396666Y-102884600D02*
X179301428Y-102932219D01*
X179301428Y-102932219D02*
X179158571Y-102932219D01*
X179777619Y-102265552D02*
X180158571Y-102265552D01*
X179920476Y-101932219D02*
X179920476Y-102789361D01*
X179920476Y-102789361D02*
X179968095Y-102884600D01*
X179968095Y-102884600D02*
X180063333Y-102932219D01*
X180063333Y-102932219D02*
X180158571Y-102932219D01*
X180349048Y-102265552D02*
X180730000Y-102265552D01*
X180491905Y-101932219D02*
X180491905Y-102789361D01*
X180491905Y-102789361D02*
X180539524Y-102884600D01*
X180539524Y-102884600D02*
X180634762Y-102932219D01*
X180634762Y-102932219D02*
X180730000Y-102932219D01*
X181063334Y-102932219D02*
X181063334Y-101932219D01*
X181158572Y-102551266D02*
X181444286Y-102932219D01*
X181444286Y-102265552D02*
X181063334Y-102646504D01*
X181777620Y-102265552D02*
X182015715Y-102932219D01*
X182253810Y-102265552D02*
X182015715Y-102932219D01*
X182015715Y-102932219D02*
X181920477Y-103170314D01*
X181920477Y-103170314D02*
X181872858Y-103217933D01*
X181872858Y-103217933D02*
X181777620Y-103265552D01*
X168555237Y-76157780D02*
X168555237Y-77157780D01*
X168555237Y-77157780D02*
X167983809Y-76157780D01*
X167983809Y-76157780D02*
X167983809Y-77157780D01*
X167507618Y-76157780D02*
X167507618Y-77157780D01*
X167507618Y-77157780D02*
X167126666Y-77157780D01*
X167126666Y-77157780D02*
X167031428Y-77110161D01*
X167031428Y-77110161D02*
X166983809Y-77062542D01*
X166983809Y-77062542D02*
X166936190Y-76967304D01*
X166936190Y-76967304D02*
X166936190Y-76824447D01*
X166936190Y-76824447D02*
X166983809Y-76729209D01*
X166983809Y-76729209D02*
X167031428Y-76681590D01*
X167031428Y-76681590D02*
X167126666Y-76633971D01*
X167126666Y-76633971D02*
X167507618Y-76633971D01*
X166079047Y-77157780D02*
X166269523Y-77157780D01*
X166269523Y-77157780D02*
X166364761Y-77110161D01*
X166364761Y-77110161D02*
X166412380Y-77062542D01*
X166412380Y-77062542D02*
X166507618Y-76919685D01*
X166507618Y-76919685D02*
X166555237Y-76729209D01*
X166555237Y-76729209D02*
X166555237Y-76348257D01*
X166555237Y-76348257D02*
X166507618Y-76253019D01*
X166507618Y-76253019D02*
X166459999Y-76205400D01*
X166459999Y-76205400D02*
X166364761Y-76157780D01*
X166364761Y-76157780D02*
X166174285Y-76157780D01*
X166174285Y-76157780D02*
X166079047Y-76205400D01*
X166079047Y-76205400D02*
X166031428Y-76253019D01*
X166031428Y-76253019D02*
X165983809Y-76348257D01*
X165983809Y-76348257D02*
X165983809Y-76586352D01*
X165983809Y-76586352D02*
X166031428Y-76681590D01*
X166031428Y-76681590D02*
X166079047Y-76729209D01*
X166079047Y-76729209D02*
X166174285Y-76776828D01*
X166174285Y-76776828D02*
X166364761Y-76776828D01*
X166364761Y-76776828D02*
X166459999Y-76729209D01*
X166459999Y-76729209D02*
X166507618Y-76681590D01*
X166507618Y-76681590D02*
X166555237Y-76586352D01*
X165126666Y-76824447D02*
X165126666Y-76157780D01*
X165364761Y-77205400D02*
X165602856Y-76491114D01*
X165602856Y-76491114D02*
X164983809Y-76491114D01*
X164412380Y-77157780D02*
X164317142Y-77157780D01*
X164317142Y-77157780D02*
X164221904Y-77110161D01*
X164221904Y-77110161D02*
X164174285Y-77062542D01*
X164174285Y-77062542D02*
X164126666Y-76967304D01*
X164126666Y-76967304D02*
X164079047Y-76776828D01*
X164079047Y-76776828D02*
X164079047Y-76538733D01*
X164079047Y-76538733D02*
X164126666Y-76348257D01*
X164126666Y-76348257D02*
X164174285Y-76253019D01*
X164174285Y-76253019D02*
X164221904Y-76205400D01*
X164221904Y-76205400D02*
X164317142Y-76157780D01*
X164317142Y-76157780D02*
X164412380Y-76157780D01*
X164412380Y-76157780D02*
X164507618Y-76205400D01*
X164507618Y-76205400D02*
X164555237Y-76253019D01*
X164555237Y-76253019D02*
X164602856Y-76348257D01*
X164602856Y-76348257D02*
X164650475Y-76538733D01*
X164650475Y-76538733D02*
X164650475Y-76776828D01*
X164650475Y-76776828D02*
X164602856Y-76967304D01*
X164602856Y-76967304D02*
X164555237Y-77062542D01*
X164555237Y-77062542D02*
X164507618Y-77110161D01*
X164507618Y-77110161D02*
X164412380Y-77157780D01*
X90132219Y-135936666D02*
X89656028Y-136269999D01*
X90132219Y-136508094D02*
X89132219Y-136508094D01*
X89132219Y-136508094D02*
X89132219Y-136127142D01*
X89132219Y-136127142D02*
X89179838Y-136031904D01*
X89179838Y-136031904D02*
X89227457Y-135984285D01*
X89227457Y-135984285D02*
X89322695Y-135936666D01*
X89322695Y-135936666D02*
X89465552Y-135936666D01*
X89465552Y-135936666D02*
X89560790Y-135984285D01*
X89560790Y-135984285D02*
X89608409Y-136031904D01*
X89608409Y-136031904D02*
X89656028Y-136127142D01*
X89656028Y-136127142D02*
X89656028Y-136508094D01*
X89465552Y-135079523D02*
X90132219Y-135079523D01*
X89084600Y-135317618D02*
X89798885Y-135555713D01*
X89798885Y-135555713D02*
X89798885Y-134936666D01*
X105852219Y-135746666D02*
X105376028Y-136079999D01*
X105852219Y-136318094D02*
X104852219Y-136318094D01*
X104852219Y-136318094D02*
X104852219Y-135937142D01*
X104852219Y-135937142D02*
X104899838Y-135841904D01*
X104899838Y-135841904D02*
X104947457Y-135794285D01*
X104947457Y-135794285D02*
X105042695Y-135746666D01*
X105042695Y-135746666D02*
X105185552Y-135746666D01*
X105185552Y-135746666D02*
X105280790Y-135794285D01*
X105280790Y-135794285D02*
X105328409Y-135841904D01*
X105328409Y-135841904D02*
X105376028Y-135937142D01*
X105376028Y-135937142D02*
X105376028Y-136318094D01*
X104947457Y-135365713D02*
X104899838Y-135318094D01*
X104899838Y-135318094D02*
X104852219Y-135222856D01*
X104852219Y-135222856D02*
X104852219Y-134984761D01*
X104852219Y-134984761D02*
X104899838Y-134889523D01*
X104899838Y-134889523D02*
X104947457Y-134841904D01*
X104947457Y-134841904D02*
X105042695Y-134794285D01*
X105042695Y-134794285D02*
X105137933Y-134794285D01*
X105137933Y-134794285D02*
X105280790Y-134841904D01*
X105280790Y-134841904D02*
X105852219Y-135413332D01*
X105852219Y-135413332D02*
X105852219Y-134794285D01*
X94982219Y-136006666D02*
X94506028Y-136339999D01*
X94982219Y-136578094D02*
X93982219Y-136578094D01*
X93982219Y-136578094D02*
X93982219Y-136197142D01*
X93982219Y-136197142D02*
X94029838Y-136101904D01*
X94029838Y-136101904D02*
X94077457Y-136054285D01*
X94077457Y-136054285D02*
X94172695Y-136006666D01*
X94172695Y-136006666D02*
X94315552Y-136006666D01*
X94315552Y-136006666D02*
X94410790Y-136054285D01*
X94410790Y-136054285D02*
X94458409Y-136101904D01*
X94458409Y-136101904D02*
X94506028Y-136197142D01*
X94506028Y-136197142D02*
X94506028Y-136578094D01*
X93982219Y-135673332D02*
X93982219Y-135054285D01*
X93982219Y-135054285D02*
X94363171Y-135387618D01*
X94363171Y-135387618D02*
X94363171Y-135244761D01*
X94363171Y-135244761D02*
X94410790Y-135149523D01*
X94410790Y-135149523D02*
X94458409Y-135101904D01*
X94458409Y-135101904D02*
X94553647Y-135054285D01*
X94553647Y-135054285D02*
X94791742Y-135054285D01*
X94791742Y-135054285D02*
X94886980Y-135101904D01*
X94886980Y-135101904D02*
X94934600Y-135149523D01*
X94934600Y-135149523D02*
X94982219Y-135244761D01*
X94982219Y-135244761D02*
X94982219Y-135530475D01*
X94982219Y-135530475D02*
X94934600Y-135625713D01*
X94934600Y-135625713D02*
X94886980Y-135673332D01*
X91614762Y-93116504D02*
X92090952Y-93116504D01*
X91519524Y-93402219D02*
X91852857Y-92402219D01*
X91852857Y-92402219D02*
X92186190Y-93402219D01*
X92519524Y-93402219D02*
X92519524Y-92735552D01*
X92519524Y-92926028D02*
X92567143Y-92830790D01*
X92567143Y-92830790D02*
X92614762Y-92783171D01*
X92614762Y-92783171D02*
X92710000Y-92735552D01*
X92710000Y-92735552D02*
X92805238Y-92735552D01*
X93567143Y-93402219D02*
X93567143Y-92402219D01*
X93567143Y-93354600D02*
X93471905Y-93402219D01*
X93471905Y-93402219D02*
X93281429Y-93402219D01*
X93281429Y-93402219D02*
X93186191Y-93354600D01*
X93186191Y-93354600D02*
X93138572Y-93306980D01*
X93138572Y-93306980D02*
X93090953Y-93211742D01*
X93090953Y-93211742D02*
X93090953Y-92926028D01*
X93090953Y-92926028D02*
X93138572Y-92830790D01*
X93138572Y-92830790D02*
X93186191Y-92783171D01*
X93186191Y-92783171D02*
X93281429Y-92735552D01*
X93281429Y-92735552D02*
X93471905Y-92735552D01*
X93471905Y-92735552D02*
X93567143Y-92783171D01*
X94471905Y-92735552D02*
X94471905Y-93402219D01*
X94043334Y-92735552D02*
X94043334Y-93259361D01*
X94043334Y-93259361D02*
X94090953Y-93354600D01*
X94090953Y-93354600D02*
X94186191Y-93402219D01*
X94186191Y-93402219D02*
X94329048Y-93402219D01*
X94329048Y-93402219D02*
X94424286Y-93354600D01*
X94424286Y-93354600D02*
X94471905Y-93306980D01*
X94948096Y-93402219D02*
X94948096Y-92735552D01*
X94948096Y-92402219D02*
X94900477Y-92449838D01*
X94900477Y-92449838D02*
X94948096Y-92497457D01*
X94948096Y-92497457D02*
X94995715Y-92449838D01*
X94995715Y-92449838D02*
X94948096Y-92402219D01*
X94948096Y-92402219D02*
X94948096Y-92497457D01*
X95424286Y-92735552D02*
X95424286Y-93402219D01*
X95424286Y-92830790D02*
X95471905Y-92783171D01*
X95471905Y-92783171D02*
X95567143Y-92735552D01*
X95567143Y-92735552D02*
X95710000Y-92735552D01*
X95710000Y-92735552D02*
X95805238Y-92783171D01*
X95805238Y-92783171D02*
X95852857Y-92878409D01*
X95852857Y-92878409D02*
X95852857Y-93402219D01*
X96471905Y-93402219D02*
X96376667Y-93354600D01*
X96376667Y-93354600D02*
X96329048Y-93306980D01*
X96329048Y-93306980D02*
X96281429Y-93211742D01*
X96281429Y-93211742D02*
X96281429Y-92926028D01*
X96281429Y-92926028D02*
X96329048Y-92830790D01*
X96329048Y-92830790D02*
X96376667Y-92783171D01*
X96376667Y-92783171D02*
X96471905Y-92735552D01*
X96471905Y-92735552D02*
X96614762Y-92735552D01*
X96614762Y-92735552D02*
X96710000Y-92783171D01*
X96710000Y-92783171D02*
X96757619Y-92830790D01*
X96757619Y-92830790D02*
X96805238Y-92926028D01*
X96805238Y-92926028D02*
X96805238Y-93211742D01*
X96805238Y-93211742D02*
X96757619Y-93306980D01*
X96757619Y-93306980D02*
X96710000Y-93354600D01*
X96710000Y-93354600D02*
X96614762Y-93402219D01*
X96614762Y-93402219D02*
X96471905Y-93402219D01*
X156648095Y-109904600D02*
X156790952Y-109952219D01*
X156790952Y-109952219D02*
X157029047Y-109952219D01*
X157029047Y-109952219D02*
X157124285Y-109904600D01*
X157124285Y-109904600D02*
X157171904Y-109856980D01*
X157171904Y-109856980D02*
X157219523Y-109761742D01*
X157219523Y-109761742D02*
X157219523Y-109666504D01*
X157219523Y-109666504D02*
X157171904Y-109571266D01*
X157171904Y-109571266D02*
X157124285Y-109523647D01*
X157124285Y-109523647D02*
X157029047Y-109476028D01*
X157029047Y-109476028D02*
X156838571Y-109428409D01*
X156838571Y-109428409D02*
X156743333Y-109380790D01*
X156743333Y-109380790D02*
X156695714Y-109333171D01*
X156695714Y-109333171D02*
X156648095Y-109237933D01*
X156648095Y-109237933D02*
X156648095Y-109142695D01*
X156648095Y-109142695D02*
X156695714Y-109047457D01*
X156695714Y-109047457D02*
X156743333Y-108999838D01*
X156743333Y-108999838D02*
X156838571Y-108952219D01*
X156838571Y-108952219D02*
X157076666Y-108952219D01*
X157076666Y-108952219D02*
X157219523Y-108999838D01*
X157505238Y-109285552D02*
X157886190Y-109285552D01*
X157648095Y-108952219D02*
X157648095Y-109809361D01*
X157648095Y-109809361D02*
X157695714Y-109904600D01*
X157695714Y-109904600D02*
X157790952Y-109952219D01*
X157790952Y-109952219D02*
X157886190Y-109952219D01*
X158600476Y-109904600D02*
X158505238Y-109952219D01*
X158505238Y-109952219D02*
X158314762Y-109952219D01*
X158314762Y-109952219D02*
X158219524Y-109904600D01*
X158219524Y-109904600D02*
X158171905Y-109809361D01*
X158171905Y-109809361D02*
X158171905Y-109428409D01*
X158171905Y-109428409D02*
X158219524Y-109333171D01*
X158219524Y-109333171D02*
X158314762Y-109285552D01*
X158314762Y-109285552D02*
X158505238Y-109285552D01*
X158505238Y-109285552D02*
X158600476Y-109333171D01*
X158600476Y-109333171D02*
X158648095Y-109428409D01*
X158648095Y-109428409D02*
X158648095Y-109523647D01*
X158648095Y-109523647D02*
X158171905Y-109618885D01*
X159076667Y-109285552D02*
X159076667Y-110285552D01*
X159076667Y-109333171D02*
X159171905Y-109285552D01*
X159171905Y-109285552D02*
X159362381Y-109285552D01*
X159362381Y-109285552D02*
X159457619Y-109333171D01*
X159457619Y-109333171D02*
X159505238Y-109380790D01*
X159505238Y-109380790D02*
X159552857Y-109476028D01*
X159552857Y-109476028D02*
X159552857Y-109761742D01*
X159552857Y-109761742D02*
X159505238Y-109856980D01*
X159505238Y-109856980D02*
X159457619Y-109904600D01*
X159457619Y-109904600D02*
X159362381Y-109952219D01*
X159362381Y-109952219D02*
X159171905Y-109952219D01*
X159171905Y-109952219D02*
X159076667Y-109904600D01*
X160743334Y-109952219D02*
X160743334Y-108952219D01*
X160743334Y-108952219D02*
X160981429Y-108952219D01*
X160981429Y-108952219D02*
X161124286Y-108999838D01*
X161124286Y-108999838D02*
X161219524Y-109095076D01*
X161219524Y-109095076D02*
X161267143Y-109190314D01*
X161267143Y-109190314D02*
X161314762Y-109380790D01*
X161314762Y-109380790D02*
X161314762Y-109523647D01*
X161314762Y-109523647D02*
X161267143Y-109714123D01*
X161267143Y-109714123D02*
X161219524Y-109809361D01*
X161219524Y-109809361D02*
X161124286Y-109904600D01*
X161124286Y-109904600D02*
X160981429Y-109952219D01*
X160981429Y-109952219D02*
X160743334Y-109952219D01*
X161886191Y-109952219D02*
X161790953Y-109904600D01*
X161790953Y-109904600D02*
X161743334Y-109856980D01*
X161743334Y-109856980D02*
X161695715Y-109761742D01*
X161695715Y-109761742D02*
X161695715Y-109476028D01*
X161695715Y-109476028D02*
X161743334Y-109380790D01*
X161743334Y-109380790D02*
X161790953Y-109333171D01*
X161790953Y-109333171D02*
X161886191Y-109285552D01*
X161886191Y-109285552D02*
X162029048Y-109285552D01*
X162029048Y-109285552D02*
X162124286Y-109333171D01*
X162124286Y-109333171D02*
X162171905Y-109380790D01*
X162171905Y-109380790D02*
X162219524Y-109476028D01*
X162219524Y-109476028D02*
X162219524Y-109761742D01*
X162219524Y-109761742D02*
X162171905Y-109856980D01*
X162171905Y-109856980D02*
X162124286Y-109904600D01*
X162124286Y-109904600D02*
X162029048Y-109952219D01*
X162029048Y-109952219D02*
X161886191Y-109952219D01*
X162552858Y-109285552D02*
X162743334Y-109952219D01*
X162743334Y-109952219D02*
X162933810Y-109476028D01*
X162933810Y-109476028D02*
X163124286Y-109952219D01*
X163124286Y-109952219D02*
X163314762Y-109285552D01*
X163695715Y-109285552D02*
X163695715Y-109952219D01*
X163695715Y-109380790D02*
X163743334Y-109333171D01*
X163743334Y-109333171D02*
X163838572Y-109285552D01*
X163838572Y-109285552D02*
X163981429Y-109285552D01*
X163981429Y-109285552D02*
X164076667Y-109333171D01*
X164076667Y-109333171D02*
X164124286Y-109428409D01*
X164124286Y-109428409D02*
X164124286Y-109952219D01*
D13*
X152537580Y-125661027D02*
X151537580Y-125994360D01*
X151537580Y-125994360D02*
X152537580Y-126327693D01*
X151537580Y-126803884D02*
X151585200Y-126708646D01*
X151585200Y-126708646D02*
X151632819Y-126661027D01*
X151632819Y-126661027D02*
X151728057Y-126613408D01*
X151728057Y-126613408D02*
X152013771Y-126613408D01*
X152013771Y-126613408D02*
X152109009Y-126661027D01*
X152109009Y-126661027D02*
X152156628Y-126708646D01*
X152156628Y-126708646D02*
X152204247Y-126803884D01*
X152204247Y-126803884D02*
X152204247Y-126946741D01*
X152204247Y-126946741D02*
X152156628Y-127041979D01*
X152156628Y-127041979D02*
X152109009Y-127089598D01*
X152109009Y-127089598D02*
X152013771Y-127137217D01*
X152013771Y-127137217D02*
X151728057Y-127137217D01*
X151728057Y-127137217D02*
X151632819Y-127089598D01*
X151632819Y-127089598D02*
X151585200Y-127041979D01*
X151585200Y-127041979D02*
X151537580Y-126946741D01*
X151537580Y-126946741D02*
X151537580Y-126803884D01*
X152204247Y-127994360D02*
X151537580Y-127994360D01*
X152204247Y-127565789D02*
X151680438Y-127565789D01*
X151680438Y-127565789D02*
X151585200Y-127613408D01*
X151585200Y-127613408D02*
X151537580Y-127708646D01*
X151537580Y-127708646D02*
X151537580Y-127851503D01*
X151537580Y-127851503D02*
X151585200Y-127946741D01*
X151585200Y-127946741D02*
X151632819Y-127994360D01*
X152204247Y-128327694D02*
X152204247Y-128708646D01*
X152537580Y-128470551D02*
X151680438Y-128470551D01*
X151680438Y-128470551D02*
X151585200Y-128518170D01*
X151585200Y-128518170D02*
X151537580Y-128613408D01*
X151537580Y-128613408D02*
X151537580Y-128708646D01*
X151918533Y-129041980D02*
X151918533Y-129803885D01*
X152537580Y-92161027D02*
X151537580Y-92494360D01*
X151537580Y-92494360D02*
X152537580Y-92827693D01*
X151537580Y-93161027D02*
X152204247Y-93161027D01*
X152537580Y-93161027D02*
X152489961Y-93113408D01*
X152489961Y-93113408D02*
X152442342Y-93161027D01*
X152442342Y-93161027D02*
X152489961Y-93208646D01*
X152489961Y-93208646D02*
X152537580Y-93161027D01*
X152537580Y-93161027D02*
X152442342Y-93161027D01*
X152204247Y-93637217D02*
X151537580Y-93637217D01*
X152109009Y-93637217D02*
X152156628Y-93684836D01*
X152156628Y-93684836D02*
X152204247Y-93780074D01*
X152204247Y-93780074D02*
X152204247Y-93922931D01*
X152204247Y-93922931D02*
X152156628Y-94018169D01*
X152156628Y-94018169D02*
X152061390Y-94065788D01*
X152061390Y-94065788D02*
X151537580Y-94065788D01*
X151918533Y-94541979D02*
X151918533Y-95303884D01*
X170537580Y-92161027D02*
X169537580Y-92494360D01*
X169537580Y-92494360D02*
X170537580Y-92827693D01*
X169537580Y-93161027D02*
X170204247Y-93161027D01*
X170537580Y-93161027D02*
X170489961Y-93113408D01*
X170489961Y-93113408D02*
X170442342Y-93161027D01*
X170442342Y-93161027D02*
X170489961Y-93208646D01*
X170489961Y-93208646D02*
X170537580Y-93161027D01*
X170537580Y-93161027D02*
X170442342Y-93161027D01*
X170204247Y-93637217D02*
X169537580Y-93637217D01*
X170109009Y-93637217D02*
X170156628Y-93684836D01*
X170156628Y-93684836D02*
X170204247Y-93780074D01*
X170204247Y-93780074D02*
X170204247Y-93922931D01*
X170204247Y-93922931D02*
X170156628Y-94018169D01*
X170156628Y-94018169D02*
X170061390Y-94065788D01*
X170061390Y-94065788D02*
X169537580Y-94065788D01*
X169918533Y-94541979D02*
X169918533Y-95303884D01*
X169537580Y-94922931D02*
X170299485Y-94922931D01*
X170537580Y-125661027D02*
X169537580Y-125994360D01*
X169537580Y-125994360D02*
X170537580Y-126327693D01*
X169537580Y-126803884D02*
X169585200Y-126708646D01*
X169585200Y-126708646D02*
X169632819Y-126661027D01*
X169632819Y-126661027D02*
X169728057Y-126613408D01*
X169728057Y-126613408D02*
X170013771Y-126613408D01*
X170013771Y-126613408D02*
X170109009Y-126661027D01*
X170109009Y-126661027D02*
X170156628Y-126708646D01*
X170156628Y-126708646D02*
X170204247Y-126803884D01*
X170204247Y-126803884D02*
X170204247Y-126946741D01*
X170204247Y-126946741D02*
X170156628Y-127041979D01*
X170156628Y-127041979D02*
X170109009Y-127089598D01*
X170109009Y-127089598D02*
X170013771Y-127137217D01*
X170013771Y-127137217D02*
X169728057Y-127137217D01*
X169728057Y-127137217D02*
X169632819Y-127089598D01*
X169632819Y-127089598D02*
X169585200Y-127041979D01*
X169585200Y-127041979D02*
X169537580Y-126946741D01*
X169537580Y-126946741D02*
X169537580Y-126803884D01*
X170204247Y-127994360D02*
X169537580Y-127994360D01*
X170204247Y-127565789D02*
X169680438Y-127565789D01*
X169680438Y-127565789D02*
X169585200Y-127613408D01*
X169585200Y-127613408D02*
X169537580Y-127708646D01*
X169537580Y-127708646D02*
X169537580Y-127851503D01*
X169537580Y-127851503D02*
X169585200Y-127946741D01*
X169585200Y-127946741D02*
X169632819Y-127994360D01*
X170204247Y-128327694D02*
X170204247Y-128708646D01*
X170537580Y-128470551D02*
X169680438Y-128470551D01*
X169680438Y-128470551D02*
X169585200Y-128518170D01*
X169585200Y-128518170D02*
X169537580Y-128613408D01*
X169537580Y-128613408D02*
X169537580Y-128708646D01*
X169918533Y-129041980D02*
X169918533Y-129803885D01*
X169537580Y-129422932D02*
X170299485Y-129422932D01*
D12*
X127637780Y-70031905D02*
X128637780Y-70031905D01*
X128637780Y-70031905D02*
X127923495Y-70365238D01*
X127923495Y-70365238D02*
X128637780Y-70698571D01*
X128637780Y-70698571D02*
X127637780Y-70698571D01*
X127637780Y-71174762D02*
X128304447Y-71174762D01*
X128637780Y-71174762D02*
X128590161Y-71127143D01*
X128590161Y-71127143D02*
X128542542Y-71174762D01*
X128542542Y-71174762D02*
X128590161Y-71222381D01*
X128590161Y-71222381D02*
X128637780Y-71174762D01*
X128637780Y-71174762D02*
X128542542Y-71174762D01*
X127685400Y-72079523D02*
X127637780Y-71984285D01*
X127637780Y-71984285D02*
X127637780Y-71793809D01*
X127637780Y-71793809D02*
X127685400Y-71698571D01*
X127685400Y-71698571D02*
X127733019Y-71650952D01*
X127733019Y-71650952D02*
X127828257Y-71603333D01*
X127828257Y-71603333D02*
X128113971Y-71603333D01*
X128113971Y-71603333D02*
X128209209Y-71650952D01*
X128209209Y-71650952D02*
X128256828Y-71698571D01*
X128256828Y-71698571D02*
X128304447Y-71793809D01*
X128304447Y-71793809D02*
X128304447Y-71984285D01*
X128304447Y-71984285D02*
X128256828Y-72079523D01*
X127637780Y-72508095D02*
X128304447Y-72508095D01*
X128113971Y-72508095D02*
X128209209Y-72555714D01*
X128209209Y-72555714D02*
X128256828Y-72603333D01*
X128256828Y-72603333D02*
X128304447Y-72698571D01*
X128304447Y-72698571D02*
X128304447Y-72793809D01*
X127637780Y-73270000D02*
X127685400Y-73174762D01*
X127685400Y-73174762D02*
X127733019Y-73127143D01*
X127733019Y-73127143D02*
X127828257Y-73079524D01*
X127828257Y-73079524D02*
X128113971Y-73079524D01*
X128113971Y-73079524D02*
X128209209Y-73127143D01*
X128209209Y-73127143D02*
X128256828Y-73174762D01*
X128256828Y-73174762D02*
X128304447Y-73270000D01*
X128304447Y-73270000D02*
X128304447Y-73412857D01*
X128304447Y-73412857D02*
X128256828Y-73508095D01*
X128256828Y-73508095D02*
X128209209Y-73555714D01*
X128209209Y-73555714D02*
X128113971Y-73603333D01*
X128113971Y-73603333D02*
X127828257Y-73603333D01*
X127828257Y-73603333D02*
X127733019Y-73555714D01*
X127733019Y-73555714D02*
X127685400Y-73508095D01*
X127685400Y-73508095D02*
X127637780Y-73412857D01*
X127637780Y-73412857D02*
X127637780Y-73270000D01*
X127685400Y-73984286D02*
X127637780Y-74127143D01*
X127637780Y-74127143D02*
X127637780Y-74365238D01*
X127637780Y-74365238D02*
X127685400Y-74460476D01*
X127685400Y-74460476D02*
X127733019Y-74508095D01*
X127733019Y-74508095D02*
X127828257Y-74555714D01*
X127828257Y-74555714D02*
X127923495Y-74555714D01*
X127923495Y-74555714D02*
X128018733Y-74508095D01*
X128018733Y-74508095D02*
X128066352Y-74460476D01*
X128066352Y-74460476D02*
X128113971Y-74365238D01*
X128113971Y-74365238D02*
X128161590Y-74174762D01*
X128161590Y-74174762D02*
X128209209Y-74079524D01*
X128209209Y-74079524D02*
X128256828Y-74031905D01*
X128256828Y-74031905D02*
X128352066Y-73984286D01*
X128352066Y-73984286D02*
X128447304Y-73984286D01*
X128447304Y-73984286D02*
X128542542Y-74031905D01*
X128542542Y-74031905D02*
X128590161Y-74079524D01*
X128590161Y-74079524D02*
X128637780Y-74174762D01*
X128637780Y-74174762D02*
X128637780Y-74412857D01*
X128637780Y-74412857D02*
X128590161Y-74555714D01*
X127637780Y-74984286D02*
X128637780Y-74984286D01*
X128637780Y-74984286D02*
X128637780Y-75222381D01*
X128637780Y-75222381D02*
X128590161Y-75365238D01*
X128590161Y-75365238D02*
X128494923Y-75460476D01*
X128494923Y-75460476D02*
X128399685Y-75508095D01*
X128399685Y-75508095D02*
X128209209Y-75555714D01*
X128209209Y-75555714D02*
X128066352Y-75555714D01*
X128066352Y-75555714D02*
X127875876Y-75508095D01*
X127875876Y-75508095D02*
X127780638Y-75460476D01*
X127780638Y-75460476D02*
X127685400Y-75365238D01*
X127685400Y-75365238D02*
X127637780Y-75222381D01*
X127637780Y-75222381D02*
X127637780Y-74984286D01*
X156163333Y-151492219D02*
X155830000Y-151016028D01*
X155591905Y-151492219D02*
X155591905Y-150492219D01*
X155591905Y-150492219D02*
X155972857Y-150492219D01*
X155972857Y-150492219D02*
X156068095Y-150539838D01*
X156068095Y-150539838D02*
X156115714Y-150587457D01*
X156115714Y-150587457D02*
X156163333Y-150682695D01*
X156163333Y-150682695D02*
X156163333Y-150825552D01*
X156163333Y-150825552D02*
X156115714Y-150920790D01*
X156115714Y-150920790D02*
X156068095Y-150968409D01*
X156068095Y-150968409D02*
X155972857Y-151016028D01*
X155972857Y-151016028D02*
X155591905Y-151016028D01*
X157115714Y-151492219D02*
X156544286Y-151492219D01*
X156830000Y-151492219D02*
X156830000Y-150492219D01*
X156830000Y-150492219D02*
X156734762Y-150635076D01*
X156734762Y-150635076D02*
X156639524Y-150730314D01*
X156639524Y-150730314D02*
X156544286Y-150777933D01*
X125650952Y-152286504D02*
X126127142Y-152286504D01*
X125555714Y-152572219D02*
X125889047Y-151572219D01*
X125889047Y-151572219D02*
X126222380Y-152572219D01*
X126555714Y-152572219D02*
X126555714Y-151572219D01*
X126555714Y-151572219D02*
X126793809Y-151572219D01*
X126793809Y-151572219D02*
X126936666Y-151619838D01*
X126936666Y-151619838D02*
X127031904Y-151715076D01*
X127031904Y-151715076D02*
X127079523Y-151810314D01*
X127079523Y-151810314D02*
X127127142Y-152000790D01*
X127127142Y-152000790D02*
X127127142Y-152143647D01*
X127127142Y-152143647D02*
X127079523Y-152334123D01*
X127079523Y-152334123D02*
X127031904Y-152429361D01*
X127031904Y-152429361D02*
X126936666Y-152524600D01*
X126936666Y-152524600D02*
X126793809Y-152572219D01*
X126793809Y-152572219D02*
X126555714Y-152572219D01*
X127508095Y-152524600D02*
X127650952Y-152572219D01*
X127650952Y-152572219D02*
X127889047Y-152572219D01*
X127889047Y-152572219D02*
X127984285Y-152524600D01*
X127984285Y-152524600D02*
X128031904Y-152476980D01*
X128031904Y-152476980D02*
X128079523Y-152381742D01*
X128079523Y-152381742D02*
X128079523Y-152286504D01*
X128079523Y-152286504D02*
X128031904Y-152191266D01*
X128031904Y-152191266D02*
X127984285Y-152143647D01*
X127984285Y-152143647D02*
X127889047Y-152096028D01*
X127889047Y-152096028D02*
X127698571Y-152048409D01*
X127698571Y-152048409D02*
X127603333Y-152000790D01*
X127603333Y-152000790D02*
X127555714Y-151953171D01*
X127555714Y-151953171D02*
X127508095Y-151857933D01*
X127508095Y-151857933D02*
X127508095Y-151762695D01*
X127508095Y-151762695D02*
X127555714Y-151667457D01*
X127555714Y-151667457D02*
X127603333Y-151619838D01*
X127603333Y-151619838D02*
X127698571Y-151572219D01*
X127698571Y-151572219D02*
X127936666Y-151572219D01*
X127936666Y-151572219D02*
X128079523Y-151619838D01*
X129031904Y-152572219D02*
X128460476Y-152572219D01*
X128746190Y-152572219D02*
X128746190Y-151572219D01*
X128746190Y-151572219D02*
X128650952Y-151715076D01*
X128650952Y-151715076D02*
X128555714Y-151810314D01*
X128555714Y-151810314D02*
X128460476Y-151857933D01*
X129984285Y-152572219D02*
X129412857Y-152572219D01*
X129698571Y-152572219D02*
X129698571Y-151572219D01*
X129698571Y-151572219D02*
X129603333Y-151715076D01*
X129603333Y-151715076D02*
X129508095Y-151810314D01*
X129508095Y-151810314D02*
X129412857Y-151857933D01*
X130936666Y-152572219D02*
X130365238Y-152572219D01*
X130650952Y-152572219D02*
X130650952Y-151572219D01*
X130650952Y-151572219D02*
X130555714Y-151715076D01*
X130555714Y-151715076D02*
X130460476Y-151810314D01*
X130460476Y-151810314D02*
X130365238Y-151857933D01*
X131841428Y-151572219D02*
X131365238Y-151572219D01*
X131365238Y-151572219D02*
X131317619Y-152048409D01*
X131317619Y-152048409D02*
X131365238Y-152000790D01*
X131365238Y-152000790D02*
X131460476Y-151953171D01*
X131460476Y-151953171D02*
X131698571Y-151953171D01*
X131698571Y-151953171D02*
X131793809Y-152000790D01*
X131793809Y-152000790D02*
X131841428Y-152048409D01*
X131841428Y-152048409D02*
X131889047Y-152143647D01*
X131889047Y-152143647D02*
X131889047Y-152381742D01*
X131889047Y-152381742D02*
X131841428Y-152476980D01*
X131841428Y-152476980D02*
X131793809Y-152524600D01*
X131793809Y-152524600D02*
X131698571Y-152572219D01*
X131698571Y-152572219D02*
X131460476Y-152572219D01*
X131460476Y-152572219D02*
X131365238Y-152524600D01*
X131365238Y-152524600D02*
X131317619Y-152476980D01*
X139433333Y-130826980D02*
X139385714Y-130874600D01*
X139385714Y-130874600D02*
X139242857Y-130922219D01*
X139242857Y-130922219D02*
X139147619Y-130922219D01*
X139147619Y-130922219D02*
X139004762Y-130874600D01*
X139004762Y-130874600D02*
X138909524Y-130779361D01*
X138909524Y-130779361D02*
X138861905Y-130684123D01*
X138861905Y-130684123D02*
X138814286Y-130493647D01*
X138814286Y-130493647D02*
X138814286Y-130350790D01*
X138814286Y-130350790D02*
X138861905Y-130160314D01*
X138861905Y-130160314D02*
X138909524Y-130065076D01*
X138909524Y-130065076D02*
X139004762Y-129969838D01*
X139004762Y-129969838D02*
X139147619Y-129922219D01*
X139147619Y-129922219D02*
X139242857Y-129922219D01*
X139242857Y-129922219D02*
X139385714Y-129969838D01*
X139385714Y-129969838D02*
X139433333Y-130017457D01*
X140385714Y-130922219D02*
X139814286Y-130922219D01*
X140100000Y-130922219D02*
X140100000Y-129922219D01*
X140100000Y-129922219D02*
X140004762Y-130065076D01*
X140004762Y-130065076D02*
X139909524Y-130160314D01*
X139909524Y-130160314D02*
X139814286Y-130207933D01*
X146683333Y-80297780D02*
X146683333Y-79583495D01*
X146683333Y-79583495D02*
X146730952Y-79440638D01*
X146730952Y-79440638D02*
X146826190Y-79345400D01*
X146826190Y-79345400D02*
X146969047Y-79297780D01*
X146969047Y-79297780D02*
X147064285Y-79297780D01*
X145683333Y-79297780D02*
X146254761Y-79297780D01*
X145969047Y-79297780D02*
X145969047Y-80297780D01*
X145969047Y-80297780D02*
X146064285Y-80154923D01*
X146064285Y-80154923D02*
X146159523Y-80059685D01*
X146159523Y-80059685D02*
X146254761Y-80012066D01*
X109421905Y-116377219D02*
X109421905Y-115377219D01*
X109421905Y-115377219D02*
X109660000Y-115377219D01*
X109660000Y-115377219D02*
X109802857Y-115424838D01*
X109802857Y-115424838D02*
X109898095Y-115520076D01*
X109898095Y-115520076D02*
X109945714Y-115615314D01*
X109945714Y-115615314D02*
X109993333Y-115805790D01*
X109993333Y-115805790D02*
X109993333Y-115948647D01*
X109993333Y-115948647D02*
X109945714Y-116139123D01*
X109945714Y-116139123D02*
X109898095Y-116234361D01*
X109898095Y-116234361D02*
X109802857Y-116329600D01*
X109802857Y-116329600D02*
X109660000Y-116377219D01*
X109660000Y-116377219D02*
X109421905Y-116377219D01*
X110945714Y-116377219D02*
X110374286Y-116377219D01*
X110660000Y-116377219D02*
X110660000Y-115377219D01*
X110660000Y-115377219D02*
X110564762Y-115520076D01*
X110564762Y-115520076D02*
X110469524Y-115615314D01*
X110469524Y-115615314D02*
X110374286Y-115662933D01*
D14*
X107290000Y-132460000D02*
X107290000Y-139000000D01*
X107290000Y-139000000D02*
X110030000Y-139000000D01*
X108660000Y-131690000D02*
X108660000Y-132460000D01*
X108660000Y-139770000D02*
X108660000Y-139000000D01*
X110030000Y-132460000D02*
X107290000Y-132460000D01*
X110030000Y-139000000D02*
X110030000Y-132460000D01*
X128385000Y-125040000D02*
X125295000Y-125040000D01*
X126839952Y-130590000D02*
G75*
G02*
X125295170Y-125040000I48J2990000D01*
G01*
X128384830Y-125040000D02*
G75*
G02*
X126840048Y-130590000I-1544830J-2560000D01*
G01*
X129340000Y-127600000D02*
G75*
G02*
X124340000Y-127600000I-2500000J0D01*
G01*
X124340000Y-127600000D02*
G75*
G02*
X129340000Y-127600000I2500000J0D01*
G01*
X176475000Y-100080000D02*
X177655000Y-100080000D01*
X177655000Y-99160000D02*
X177655000Y-101000000D01*
X177655000Y-101000000D02*
X180935000Y-101000000D01*
X178111000Y-99160000D02*
X178111000Y-101000000D01*
X178231000Y-99160000D02*
X178231000Y-101000000D01*
X178351000Y-99160000D02*
X178351000Y-101000000D01*
X180935000Y-99160000D02*
X177655000Y-99160000D01*
X180935000Y-101000000D02*
X180935000Y-99160000D01*
X182115000Y-100080000D02*
X180935000Y-100080000D01*
D13*
X161040000Y-75720000D02*
X171200000Y-75720000D01*
X171200000Y-83340000D01*
X161040000Y-83340000D01*
X161040000Y-75720000D01*
D14*
X88310000Y-132500000D02*
X88310000Y-139040000D01*
X88310000Y-139040000D02*
X91050000Y-139040000D01*
X89680000Y-131730000D02*
X89680000Y-132500000D01*
X89680000Y-139810000D02*
X89680000Y-139040000D01*
X91050000Y-132500000D02*
X88310000Y-132500000D01*
X91050000Y-139040000D02*
X91050000Y-132500000D01*
X101530000Y-132310000D02*
X101530000Y-138850000D01*
X101530000Y-138850000D02*
X104270000Y-138850000D01*
X102900000Y-131540000D02*
X102900000Y-132310000D01*
X102900000Y-139620000D02*
X102900000Y-138850000D01*
X104270000Y-132310000D02*
X101530000Y-132310000D01*
X104270000Y-138850000D02*
X104270000Y-132310000D01*
D13*
X176040000Y-115640000D02*
X183660000Y-115640000D01*
X183660000Y-105480000D01*
X176040000Y-105480000D01*
X176040000Y-115640000D01*
D14*
X93160000Y-132570000D02*
X93160000Y-139110000D01*
X93160000Y-139110000D02*
X95900000Y-139110000D01*
X94530000Y-131800000D02*
X94530000Y-132570000D01*
X94530000Y-139880000D02*
X94530000Y-139110000D01*
X95900000Y-132570000D02*
X93160000Y-132570000D01*
X95900000Y-139110000D02*
X95900000Y-132570000D01*
D13*
X103210000Y-117050000D02*
X85210000Y-117050000D01*
X85210000Y-73850000D01*
X103210000Y-73850000D01*
X103210000Y-117050000D01*
X171410000Y-89000000D02*
X150410000Y-89000000D01*
X150410000Y-133000000D01*
X171410000Y-133000000D01*
X171410000Y-89000000D01*
X114740000Y-51120000D02*
X138740000Y-51120000D01*
X138740000Y-92120000D01*
X114740000Y-92120000D01*
X114740000Y-51120000D01*
X119120000Y-88080000D02*
X134360000Y-88080000D01*
X134360000Y-90620000D01*
X119120000Y-90620000D01*
X119120000Y-88080000D01*
D14*
X152290000Y-148540000D02*
X153060000Y-148540000D01*
X153060000Y-147170000D02*
X153060000Y-149910000D01*
X153060000Y-149910000D02*
X159600000Y-149910000D01*
X159600000Y-147170000D02*
X153060000Y-147170000D01*
X159600000Y-149910000D02*
X159600000Y-147170000D01*
X160370000Y-148540000D02*
X159600000Y-148540000D01*
D13*
X142770000Y-160620000D02*
X114770000Y-160620000D01*
X114770000Y-142620000D01*
X142770000Y-142620000D01*
X142770000Y-160620000D01*
D14*
X138509000Y-125911000D02*
X138509000Y-125029000D01*
X138549000Y-126163000D02*
X138549000Y-124777000D01*
X138589000Y-126347000D02*
X138589000Y-124593000D01*
X138629000Y-126498000D02*
X138629000Y-124442000D01*
X138669000Y-126628000D02*
X138669000Y-124312000D01*
X138709000Y-126745000D02*
X138709000Y-124195000D01*
X138749000Y-126851000D02*
X138749000Y-124089000D01*
X138789000Y-126948000D02*
X138789000Y-123992000D01*
X138829000Y-127039000D02*
X138829000Y-123901000D01*
X138869000Y-127124000D02*
X138869000Y-123816000D01*
X138909000Y-127203000D02*
X138909000Y-123737000D01*
X138949000Y-127279000D02*
X138949000Y-123661000D01*
X138989000Y-127351000D02*
X138989000Y-123589000D01*
X139029000Y-127419000D02*
X139029000Y-123521000D01*
X139069000Y-127484000D02*
X139069000Y-123456000D01*
X139109000Y-127547000D02*
X139109000Y-123393000D01*
X139149000Y-127607000D02*
X139149000Y-123333000D01*
X139189000Y-127665000D02*
X139189000Y-123275000D01*
X139229000Y-127720000D02*
X139229000Y-123220000D01*
X139269000Y-127774000D02*
X139269000Y-123166000D01*
X139309000Y-127825000D02*
X139309000Y-123115000D01*
X139349000Y-127875000D02*
X139349000Y-123065000D01*
X139389000Y-127924000D02*
X139389000Y-123016000D01*
X139429000Y-127970000D02*
X139429000Y-122970000D01*
X139469000Y-128016000D02*
X139469000Y-122924000D01*
X139509000Y-128059000D02*
X139509000Y-122881000D01*
X139549000Y-128102000D02*
X139549000Y-122838000D01*
X139589000Y-128143000D02*
X139589000Y-122797000D01*
X139629000Y-128183000D02*
X139629000Y-122757000D01*
X139669000Y-128222000D02*
X139669000Y-122718000D01*
X139709000Y-128260000D02*
X139709000Y-122680000D01*
X139749000Y-128297000D02*
X139749000Y-122643000D01*
X139789000Y-128333000D02*
X139789000Y-122607000D01*
X139829000Y-128368000D02*
X139829000Y-122572000D01*
X139869000Y-128401000D02*
X139869000Y-122539000D01*
X139909000Y-128434000D02*
X139909000Y-122506000D01*
X139949000Y-128466000D02*
X139949000Y-122474000D01*
X139989000Y-128498000D02*
X139989000Y-122442000D01*
X140029000Y-128528000D02*
X140029000Y-122412000D01*
X140069000Y-124430000D02*
X140069000Y-122382000D01*
X140069000Y-128558000D02*
X140069000Y-126510000D01*
X140109000Y-124430000D02*
X140109000Y-122354000D01*
X140109000Y-128586000D02*
X140109000Y-126510000D01*
X140149000Y-124430000D02*
X140149000Y-122326000D01*
X140149000Y-128614000D02*
X140149000Y-126510000D01*
X140189000Y-124430000D02*
X140189000Y-122298000D01*
X140189000Y-128642000D02*
X140189000Y-126510000D01*
X140229000Y-124430000D02*
X140229000Y-122272000D01*
X140229000Y-128668000D02*
X140229000Y-126510000D01*
X140269000Y-124430000D02*
X140269000Y-122246000D01*
X140269000Y-128694000D02*
X140269000Y-126510000D01*
X140309000Y-124430000D02*
X140309000Y-122221000D01*
X140309000Y-128719000D02*
X140309000Y-126510000D01*
X140349000Y-124430000D02*
X140349000Y-122196000D01*
X140349000Y-128744000D02*
X140349000Y-126510000D01*
X140389000Y-124430000D02*
X140389000Y-122173000D01*
X140389000Y-128767000D02*
X140389000Y-126510000D01*
X140429000Y-124430000D02*
X140429000Y-122149000D01*
X140429000Y-128791000D02*
X140429000Y-126510000D01*
X140469000Y-124430000D02*
X140469000Y-122127000D01*
X140469000Y-128813000D02*
X140469000Y-126510000D01*
X140509000Y-124430000D02*
X140509000Y-122105000D01*
X140509000Y-128835000D02*
X140509000Y-126510000D01*
X140549000Y-124430000D02*
X140549000Y-122084000D01*
X140549000Y-128856000D02*
X140549000Y-126510000D01*
X140589000Y-124430000D02*
X140589000Y-122063000D01*
X140589000Y-128877000D02*
X140589000Y-126510000D01*
X140629000Y-124430000D02*
X140629000Y-122043000D01*
X140629000Y-128897000D02*
X140629000Y-126510000D01*
X140669000Y-124430000D02*
X140669000Y-122023000D01*
X140669000Y-128917000D02*
X140669000Y-126510000D01*
X140709000Y-124430000D02*
X140709000Y-122004000D01*
X140709000Y-128936000D02*
X140709000Y-126510000D01*
X140749000Y-124430000D02*
X140749000Y-121986000D01*
X140749000Y-128954000D02*
X140749000Y-126510000D01*
X140789000Y-124430000D02*
X140789000Y-121968000D01*
X140789000Y-128972000D02*
X140789000Y-126510000D01*
X140829000Y-124430000D02*
X140829000Y-121950000D01*
X140829000Y-128990000D02*
X140829000Y-126510000D01*
X140869000Y-124430000D02*
X140869000Y-121934000D01*
X140869000Y-129006000D02*
X140869000Y-126510000D01*
X140909000Y-124430000D02*
X140909000Y-121917000D01*
X140909000Y-129023000D02*
X140909000Y-126510000D01*
X140949000Y-124430000D02*
X140949000Y-121902000D01*
X140949000Y-129038000D02*
X140949000Y-126510000D01*
X140989000Y-124430000D02*
X140989000Y-121886000D01*
X140989000Y-129054000D02*
X140989000Y-126510000D01*
X141029000Y-124430000D02*
X141029000Y-121872000D01*
X141029000Y-129068000D02*
X141029000Y-126510000D01*
X141069000Y-124430000D02*
X141069000Y-121857000D01*
X141069000Y-129083000D02*
X141069000Y-126510000D01*
X141109000Y-124430000D02*
X141109000Y-121844000D01*
X141109000Y-129096000D02*
X141109000Y-126510000D01*
X141149000Y-124430000D02*
X141149000Y-121830000D01*
X141149000Y-129110000D02*
X141149000Y-126510000D01*
X141189000Y-124430000D02*
X141189000Y-121817000D01*
X141189000Y-129123000D02*
X141189000Y-126510000D01*
X141229000Y-124430000D02*
X141229000Y-121805000D01*
X141229000Y-129135000D02*
X141229000Y-126510000D01*
X141269000Y-124430000D02*
X141269000Y-121793000D01*
X141269000Y-129147000D02*
X141269000Y-126510000D01*
X141309000Y-124430000D02*
X141309000Y-121782000D01*
X141309000Y-129158000D02*
X141309000Y-126510000D01*
X141349000Y-124430000D02*
X141349000Y-121771000D01*
X141349000Y-129169000D02*
X141349000Y-126510000D01*
X141389000Y-124430000D02*
X141389000Y-121760000D01*
X141389000Y-129180000D02*
X141389000Y-126510000D01*
X141429000Y-124430000D02*
X141429000Y-121750000D01*
X141429000Y-129190000D02*
X141429000Y-126510000D01*
X141469000Y-124430000D02*
X141469000Y-121741000D01*
X141469000Y-129199000D02*
X141469000Y-126510000D01*
X141509000Y-124430000D02*
X141509000Y-121732000D01*
X141509000Y-129208000D02*
X141509000Y-126510000D01*
X141549000Y-124430000D02*
X141549000Y-121723000D01*
X141549000Y-129217000D02*
X141549000Y-126510000D01*
X141589000Y-124430000D02*
X141589000Y-121715000D01*
X141589000Y-129225000D02*
X141589000Y-126510000D01*
X141629000Y-124430000D02*
X141629000Y-121707000D01*
X141629000Y-129233000D02*
X141629000Y-126510000D01*
X141670000Y-124430000D02*
X141670000Y-121700000D01*
X141670000Y-129240000D02*
X141670000Y-126510000D01*
X141710000Y-124430000D02*
X141710000Y-121693000D01*
X141710000Y-129247000D02*
X141710000Y-126510000D01*
X141750000Y-124430000D02*
X141750000Y-121686000D01*
X141750000Y-129254000D02*
X141750000Y-126510000D01*
X141790000Y-124430000D02*
X141790000Y-121680000D01*
X141790000Y-129260000D02*
X141790000Y-126510000D01*
X141830000Y-124430000D02*
X141830000Y-121675000D01*
X141830000Y-129265000D02*
X141830000Y-126510000D01*
X141870000Y-124430000D02*
X141870000Y-121669000D01*
X141870000Y-129271000D02*
X141870000Y-126510000D01*
X141910000Y-124430000D02*
X141910000Y-121665000D01*
X141910000Y-129275000D02*
X141910000Y-126510000D01*
X141950000Y-124430000D02*
X141950000Y-121660000D01*
X141950000Y-129280000D02*
X141950000Y-126510000D01*
X141990000Y-124430000D02*
X141990000Y-121656000D01*
X141990000Y-129284000D02*
X141990000Y-126510000D01*
X142030000Y-124430000D02*
X142030000Y-121653000D01*
X142030000Y-129287000D02*
X142030000Y-126510000D01*
X142070000Y-124430000D02*
X142070000Y-121650000D01*
X142070000Y-129290000D02*
X142070000Y-126510000D01*
X142110000Y-124430000D02*
X142110000Y-121647000D01*
X142110000Y-129293000D02*
X142110000Y-126510000D01*
X142150000Y-129295000D02*
X142150000Y-121645000D01*
X142190000Y-129297000D02*
X142190000Y-121643000D01*
X142230000Y-129299000D02*
X142230000Y-121641000D01*
X142270000Y-129300000D02*
X142270000Y-121640000D01*
X142310000Y-129300000D02*
X142310000Y-121640000D01*
X142350000Y-129300000D02*
X142350000Y-121640000D01*
X146117211Y-128020000D02*
X146117211Y-127270000D01*
X146492211Y-127645000D02*
X145742211Y-127645000D01*
X146220000Y-125470000D02*
G75*
G02*
X138480000Y-125470000I-3870000J0D01*
G01*
X138480000Y-125470000D02*
G75*
G02*
X146220000Y-125470000I3870000J0D01*
G01*
D13*
X147850000Y-75940000D02*
X158010000Y-75940000D01*
X158010000Y-83560000D01*
X147850000Y-83560000D01*
X147850000Y-75940000D01*
D14*
X111705000Y-117175000D02*
X108615000Y-117175000D01*
X110159952Y-122725000D02*
G75*
G02*
X108615170Y-117175000I48J2990000D01*
G01*
X111704830Y-117175000D02*
G75*
G02*
X110160048Y-122725000I-1544830J-2560000D01*
G01*
X112660000Y-119735000D02*
G75*
G02*
X107660000Y-119735000I-2500000J0D01*
G01*
X107660000Y-119735000D02*
G75*
G02*
X112660000Y-119735000I2500000J0D01*
G01*
%LPC*%
D15*
X108660000Y-140810000D03*
D16*
X108660000Y-130650000D03*
D17*
X126840000Y-126330000D03*
D18*
X126840000Y-128870000D03*
D19*
X175485000Y-100080000D03*
D20*
X183105000Y-100080000D03*
D21*
X163540000Y-79530000D03*
D22*
X168620000Y-79530000D03*
D15*
X89680000Y-140850000D03*
D16*
X89680000Y-130690000D03*
D15*
X102900000Y-140660000D03*
D16*
X102900000Y-130500000D03*
D21*
X179850000Y-113140000D03*
D22*
X179850000Y-108060000D03*
D15*
X94530000Y-130760000D03*
D16*
X94530000Y-140920000D03*
D23*
X101830000Y-113230000D03*
X101830000Y-110690000D03*
X101830000Y-108150000D03*
X101830000Y-105610000D03*
X101830000Y-103070000D03*
X101830000Y-100530000D03*
X101830000Y-97990000D03*
X101830000Y-95450000D03*
X101830000Y-92910000D03*
X101830000Y-90370000D03*
X101830000Y-87830000D03*
X101830000Y-85290000D03*
X101830000Y-82750000D03*
X101830000Y-80210000D03*
X101830000Y-77670000D03*
X86590000Y-113230000D03*
X86590000Y-110690000D03*
X86590000Y-108150000D03*
X86590000Y-105610000D03*
X86590000Y-103070000D03*
X86590000Y-100530000D03*
X86590000Y-97990000D03*
X86590000Y-95450000D03*
X86590000Y-92910000D03*
X86590000Y-90370000D03*
X86590000Y-87830000D03*
X86590000Y-85290000D03*
X86590000Y-82750000D03*
X86590000Y-80210000D03*
X86590000Y-77670000D03*
X169910000Y-90500000D03*
X151910000Y-90500000D03*
X151910000Y-131500000D03*
X169910000Y-131500000D03*
X120390000Y-89400000D03*
X122930000Y-89400000D03*
X125470000Y-89400000D03*
X128010000Y-89400000D03*
X130550000Y-89400000D03*
X133090000Y-89400000D03*
D15*
X161410000Y-148540000D03*
D16*
X151250000Y-148540000D03*
D23*
X140200000Y-144000000D03*
X137660000Y-144000000D03*
X135120000Y-144000000D03*
X132580000Y-144000000D03*
X130040000Y-144000000D03*
X127500000Y-144000000D03*
X124960000Y-144000000D03*
X122420000Y-144000000D03*
X119880000Y-144000000D03*
X117340000Y-144000000D03*
D24*
X143600000Y-125470000D03*
D15*
X141100000Y-125470000D03*
D21*
X150350000Y-79750000D03*
D22*
X155430000Y-79750000D03*
D17*
X110160000Y-118465000D03*
D18*
X110160000Y-121005000D03*
%LPD*%
M02*
