G04 #@! TF.GenerationSoftware,KiCad,Pcbnew,8.0.8*
G04 #@! TF.CreationDate,2025-03-05T22:10:22+11:00*
G04 #@! TF.ProjectId,transmissor,7472616e-736d-4697-9373-6f722e6b6963,rev?*
G04 #@! TF.SameCoordinates,Original*
G04 #@! TF.FileFunction,Copper,L2,Bot*
G04 #@! TF.FilePolarity,Positive*
%FSLAX46Y46*%
G04 Gerber Fmt 4.6, Leading zero omitted, Abs format (unit mm)*
G04 Created by KiCad (PCBNEW 8.0.8) date 2025-03-05 22:10:22*
%MOMM*%
%LPD*%
G01*
G04 APERTURE LIST*
G04 #@! TA.AperFunction,ComponentPad*
%ADD10C,1.600000*%
G04 #@! TD*
G04 #@! TA.AperFunction,ComponentPad*
%ADD11O,1.600000X1.600000*%
G04 #@! TD*
G04 #@! TA.AperFunction,ComponentPad*
%ADD12R,1.800000X1.800000*%
G04 #@! TD*
G04 #@! TA.AperFunction,ComponentPad*
%ADD13C,1.800000*%
G04 #@! TD*
G04 #@! TA.AperFunction,ComponentPad*
%ADD14R,1.500000X1.500000*%
G04 #@! TD*
G04 #@! TA.AperFunction,ComponentPad*
%ADD15O,1.500000X1.500000*%
G04 #@! TD*
G04 #@! TA.AperFunction,ComponentPad*
%ADD16R,3.000000X3.000000*%
G04 #@! TD*
G04 #@! TA.AperFunction,ComponentPad*
%ADD17C,3.000000*%
G04 #@! TD*
G04 #@! TA.AperFunction,ComponentPad*
%ADD18C,2.000000*%
G04 #@! TD*
G04 #@! TA.AperFunction,ComponentPad*
%ADD19R,1.600000X1.600000*%
G04 #@! TD*
G04 #@! TA.AperFunction,ViaPad*
%ADD20C,0.600000*%
G04 #@! TD*
G04 #@! TA.AperFunction,Conductor*
%ADD21C,1.000000*%
G04 #@! TD*
G04 APERTURE END LIST*
D10*
X108660000Y-140810000D03*
D11*
X108660000Y-130650000D03*
D12*
X126840000Y-126330000D03*
D13*
X126840000Y-128870000D03*
D14*
X175485000Y-100080000D03*
D15*
X183105000Y-100080000D03*
D16*
X163540000Y-79530000D03*
D17*
X168620000Y-79530000D03*
D10*
X89680000Y-140850000D03*
D11*
X89680000Y-130690000D03*
D10*
X102900000Y-140660000D03*
D11*
X102900000Y-130500000D03*
D16*
X179850000Y-113140000D03*
D17*
X179850000Y-108060000D03*
D10*
X94530000Y-130760000D03*
D11*
X94530000Y-140920000D03*
D18*
X101830000Y-113230000D03*
X101830000Y-110690000D03*
X101830000Y-108150000D03*
X101830000Y-105610000D03*
X101830000Y-103070000D03*
X101830000Y-100530000D03*
X101830000Y-97990000D03*
X101830000Y-95450000D03*
X101830000Y-92910000D03*
X101830000Y-90370000D03*
X101830000Y-87830000D03*
X101830000Y-85290000D03*
X101830000Y-82750000D03*
X101830000Y-80210000D03*
X101830000Y-77670000D03*
X86590000Y-113230000D03*
X86590000Y-110690000D03*
X86590000Y-108150000D03*
X86590000Y-105610000D03*
X86590000Y-103070000D03*
X86590000Y-100530000D03*
X86590000Y-97990000D03*
X86590000Y-95450000D03*
X86590000Y-92910000D03*
X86590000Y-90370000D03*
X86590000Y-87830000D03*
X86590000Y-85290000D03*
X86590000Y-82750000D03*
X86590000Y-80210000D03*
X86590000Y-77670000D03*
X169910000Y-90500000D03*
X151910000Y-90500000D03*
X151910000Y-131500000D03*
X169910000Y-131500000D03*
X120390000Y-89400000D03*
X122930000Y-89400000D03*
X125470000Y-89400000D03*
X128010000Y-89400000D03*
X130550000Y-89400000D03*
X133090000Y-89400000D03*
D10*
X161410000Y-148540000D03*
D11*
X151250000Y-148540000D03*
D18*
X140200000Y-144000000D03*
X137660000Y-144000000D03*
X135120000Y-144000000D03*
X132580000Y-144000000D03*
X130040000Y-144000000D03*
X127500000Y-144000000D03*
X124960000Y-144000000D03*
X122420000Y-144000000D03*
X119880000Y-144000000D03*
X117340000Y-144000000D03*
D19*
X143600000Y-125470000D03*
D10*
X141100000Y-125470000D03*
D16*
X150350000Y-79750000D03*
D17*
X155430000Y-79750000D03*
D12*
X110160000Y-118465000D03*
D13*
X110160000Y-121005000D03*
D20*
X95000000Y-118000000D03*
X97000000Y-109000000D03*
X96000000Y-84000000D03*
X93000000Y-75000000D03*
X104000000Y-122000000D03*
X92980000Y-124750000D03*
X92980000Y-116090000D03*
X114000000Y-76000000D03*
D21*
X97000000Y-116000000D02*
X95000000Y-118000000D01*
X97000000Y-109000000D02*
X97000000Y-116000000D01*
X96000000Y-78000000D02*
X96000000Y-84000000D01*
X93000000Y-75000000D02*
X96000000Y-78000000D01*
X88000000Y-122000000D02*
X84890000Y-118890000D01*
X104000000Y-122000000D02*
X88000000Y-122000000D01*
X84890000Y-118890000D02*
X84890000Y-112390000D01*
X84890000Y-112390000D02*
X86590000Y-110690000D01*
X151250000Y-132160000D02*
X151910000Y-131500000D01*
X151250000Y-148540000D02*
X151250000Y-132160000D01*
X89800000Y-120170000D02*
X88390000Y-118760000D01*
X128010000Y-89400000D02*
X124100000Y-93310000D01*
X105110000Y-116830000D02*
X101770000Y-120170000D01*
X105110000Y-104010000D02*
X105110000Y-116830000D01*
X88390000Y-115030000D02*
X86590000Y-113230000D01*
X115810000Y-93310000D02*
X105110000Y-104010000D01*
X124100000Y-93310000D02*
X115810000Y-93310000D01*
X101770000Y-120170000D02*
X89800000Y-120170000D01*
X88390000Y-118760000D02*
X88390000Y-115030000D01*
X126440000Y-85290000D02*
X101830000Y-85290000D01*
X92980000Y-94140000D02*
X92980000Y-116090000D01*
X92980000Y-127390000D02*
X94530000Y-128940000D01*
X130550000Y-89400000D02*
X126440000Y-85290000D01*
X92980000Y-127390000D02*
X89680000Y-130690000D01*
X92980000Y-124750000D02*
X92980000Y-127390000D01*
X94530000Y-128940000D02*
X94530000Y-130760000D01*
X101830000Y-85290000D02*
X92980000Y-94140000D01*
X112330000Y-77670000D02*
X114000000Y-76000000D01*
X101830000Y-77670000D02*
X112330000Y-77670000D01*
X124960000Y-144000000D02*
X132750000Y-151790000D01*
X158160000Y-151790000D02*
X161410000Y-148540000D01*
X132750000Y-151790000D02*
X158160000Y-151790000D01*
G04 #@! TA.AperFunction,Conductor*
G36*
X169939200Y-70992761D02*
G01*
X170003441Y-71020233D01*
X170031216Y-71052677D01*
X185855202Y-97755654D01*
X185982676Y-97970765D01*
X186000000Y-98033980D01*
X186000000Y-115975199D01*
X185990462Y-116022891D01*
X176031795Y-139923692D01*
X175987840Y-139978004D01*
X175921500Y-139999930D01*
X175917333Y-140000000D01*
X146000000Y-140000000D01*
X146000000Y-150665500D01*
X145980315Y-150732539D01*
X145927511Y-150778294D01*
X145876000Y-150789500D01*
X133215783Y-150789500D01*
X133148744Y-150769815D01*
X133128102Y-150753181D01*
X127983929Y-145609009D01*
X127950444Y-145547686D01*
X127955428Y-145477994D01*
X127997300Y-145422061D01*
X128031342Y-145404049D01*
X128104810Y-145378828D01*
X128323509Y-145260474D01*
X128519744Y-145107738D01*
X128678771Y-144934988D01*
X128738657Y-144898999D01*
X128808495Y-144901099D01*
X128861228Y-144934988D01*
X129020256Y-145107738D01*
X129216491Y-145260474D01*
X129216493Y-145260475D01*
X129434332Y-145378364D01*
X129435190Y-145378828D01*
X129654141Y-145453994D01*
X129668964Y-145459083D01*
X129670386Y-145459571D01*
X129915665Y-145500500D01*
X130164335Y-145500500D01*
X130409614Y-145459571D01*
X130644810Y-145378828D01*
X130863509Y-145260474D01*
X131059744Y-145107738D01*
X131218771Y-144934988D01*
X131278657Y-144898999D01*
X131348495Y-144901099D01*
X131401228Y-144934988D01*
X131560256Y-145107738D01*
X131756491Y-145260474D01*
X131756493Y-145260475D01*
X131974332Y-145378364D01*
X131975190Y-145378828D01*
X132194141Y-145453994D01*
X132208964Y-145459083D01*
X132210386Y-145459571D01*
X132455665Y-145500500D01*
X132704335Y-145500500D01*
X132949614Y-145459571D01*
X133184810Y-145378828D01*
X133403509Y-145260474D01*
X133599744Y-145107738D01*
X133758771Y-144934988D01*
X133818657Y-144898999D01*
X133888495Y-144901099D01*
X133941228Y-144934988D01*
X134100256Y-145107738D01*
X134296491Y-145260474D01*
X134296493Y-145260475D01*
X134514332Y-145378364D01*
X134515190Y-145378828D01*
X134734141Y-145453994D01*
X134748964Y-145459083D01*
X134750386Y-145459571D01*
X134995665Y-145500500D01*
X135244335Y-145500500D01*
X135489614Y-145459571D01*
X135724810Y-145378828D01*
X135943509Y-145260474D01*
X136139744Y-145107738D01*
X136308164Y-144924785D01*
X136308533Y-144924219D01*
X136308745Y-144924038D01*
X136311322Y-144920729D01*
X136312002Y-144921258D01*
X136361676Y-144878860D01*
X136425139Y-144868697D01*
X136436563Y-144869881D01*
X137177037Y-144129408D01*
X137194075Y-144192993D01*
X137259901Y-144307007D01*
X137352993Y-144400099D01*
X137467007Y-144465925D01*
X137530591Y-144482962D01*
X136789943Y-145223609D01*
X136836768Y-145260055D01*
X136836771Y-145260057D01*
X137055385Y-145378364D01*
X137055396Y-145378369D01*
X137290506Y-145459083D01*
X137535707Y-145500000D01*
X137784293Y-145500000D01*
X138029493Y-145459083D01*
X138264603Y-145378369D01*
X138264614Y-145378364D01*
X138483230Y-145260056D01*
X138483236Y-145260051D01*
X138530055Y-145223610D01*
X138530056Y-145223609D01*
X137789408Y-144482962D01*
X137852993Y-144465925D01*
X137967007Y-144400099D01*
X138060099Y-144307007D01*
X138125925Y-144192993D01*
X138142962Y-144129409D01*
X138883434Y-144869881D01*
X138894860Y-144868697D01*
X138963573Y-144881360D01*
X139008092Y-144921194D01*
X139008683Y-144920735D01*
X139011218Y-144923992D01*
X139011456Y-144924205D01*
X139011831Y-144924780D01*
X139011836Y-144924785D01*
X139180256Y-145107738D01*
X139376491Y-145260474D01*
X139376493Y-145260475D01*
X139594332Y-145378364D01*
X139595190Y-145378828D01*
X139814141Y-145453994D01*
X139828964Y-145459083D01*
X139830386Y-145459571D01*
X140075665Y-145500500D01*
X140324335Y-145500500D01*
X140569614Y-145459571D01*
X140804810Y-145378828D01*
X141023509Y-145260474D01*
X141219744Y-145107738D01*
X141388164Y-144924785D01*
X141524173Y-144716607D01*
X141624063Y-144488881D01*
X141685108Y-144247821D01*
X141705643Y-144000000D01*
X141689651Y-143807007D01*
X141685109Y-143752187D01*
X141685107Y-143752175D01*
X141624063Y-143511118D01*
X141524173Y-143283393D01*
X141388166Y-143075217D01*
X141366557Y-143051744D01*
X141219744Y-142892262D01*
X141023509Y-142739526D01*
X141023507Y-142739525D01*
X141023506Y-142739524D01*
X140804811Y-142621172D01*
X140804802Y-142621169D01*
X140569616Y-142540429D01*
X140324335Y-142499500D01*
X140075665Y-142499500D01*
X139830383Y-142540429D01*
X139595197Y-142621169D01*
X139595188Y-142621172D01*
X139376493Y-142739524D01*
X139180257Y-142892261D01*
X139011837Y-143075213D01*
X139011829Y-143075224D01*
X139011455Y-143075797D01*
X139011242Y-143075978D01*
X139008690Y-143079258D01*
X139008014Y-143078732D01*
X138958304Y-143121147D01*
X138894865Y-143131302D01*
X138883435Y-143130116D01*
X138142962Y-143870590D01*
X138125925Y-143807007D01*
X138060099Y-143692993D01*
X137967007Y-143599901D01*
X137852993Y-143534075D01*
X137789409Y-143517037D01*
X138530055Y-142776389D01*
X138530055Y-142776388D01*
X138483236Y-142739947D01*
X138483231Y-142739944D01*
X138264614Y-142621635D01*
X138264603Y-142621630D01*
X138029493Y-142540916D01*
X137784293Y-142500000D01*
X137535707Y-142500000D01*
X137290506Y-142540916D01*
X137055396Y-142621630D01*
X137055385Y-142621635D01*
X136836770Y-142739943D01*
X136789943Y-142776389D01*
X137530591Y-143517037D01*
X137467007Y-143534075D01*
X137352993Y-143599901D01*
X137259901Y-143692993D01*
X137194075Y-143807007D01*
X137177037Y-143870590D01*
X136436563Y-143130116D01*
X136425136Y-143131302D01*
X136356423Y-143118637D01*
X136311910Y-143078802D01*
X136311317Y-143079265D01*
X136308768Y-143075991D01*
X136308535Y-143075782D01*
X136308166Y-143075218D01*
X136308165Y-143075217D01*
X136308164Y-143075215D01*
X136139744Y-142892262D01*
X135943509Y-142739526D01*
X135943507Y-142739525D01*
X135943506Y-142739524D01*
X135724811Y-142621172D01*
X135724802Y-142621169D01*
X135489616Y-142540429D01*
X135244335Y-142499500D01*
X134995665Y-142499500D01*
X134750383Y-142540429D01*
X134515197Y-142621169D01*
X134515188Y-142621172D01*
X134296493Y-142739524D01*
X134100257Y-142892261D01*
X133941230Y-143065010D01*
X133881342Y-143101001D01*
X133811504Y-143098900D01*
X133758770Y-143065010D01*
X133719108Y-143021926D01*
X133599744Y-142892262D01*
X133403509Y-142739526D01*
X133403507Y-142739525D01*
X133403506Y-142739524D01*
X133184811Y-142621172D01*
X133184802Y-142621169D01*
X132949616Y-142540429D01*
X132704335Y-142499500D01*
X132455665Y-142499500D01*
X132210383Y-142540429D01*
X131975197Y-142621169D01*
X131975188Y-142621172D01*
X131756493Y-142739524D01*
X131560257Y-142892261D01*
X131401230Y-143065010D01*
X131341342Y-143101001D01*
X131271504Y-143098900D01*
X131218770Y-143065010D01*
X131179108Y-143021926D01*
X131059744Y-142892262D01*
X130863509Y-142739526D01*
X130863507Y-142739525D01*
X130863506Y-142739524D01*
X130644811Y-142621172D01*
X130644802Y-142621169D01*
X130409616Y-142540429D01*
X130164335Y-142499500D01*
X129915665Y-142499500D01*
X129670383Y-142540429D01*
X129435197Y-142621169D01*
X129435188Y-142621172D01*
X129216493Y-142739524D01*
X129020257Y-142892261D01*
X128861230Y-143065010D01*
X128801342Y-143101001D01*
X128731504Y-143098900D01*
X128678770Y-143065010D01*
X128639108Y-143021926D01*
X128519744Y-142892262D01*
X128323509Y-142739526D01*
X128323507Y-142739525D01*
X128323506Y-142739524D01*
X128104811Y-142621172D01*
X128104802Y-142621169D01*
X127869616Y-142540429D01*
X127624335Y-142499500D01*
X127375665Y-142499500D01*
X127130383Y-142540429D01*
X126895197Y-142621169D01*
X126895188Y-142621172D01*
X126676493Y-142739524D01*
X126480257Y-142892261D01*
X126321230Y-143065010D01*
X126261342Y-143101001D01*
X126191504Y-143098900D01*
X126138770Y-143065010D01*
X126099108Y-143021926D01*
X125979744Y-142892262D01*
X125783509Y-142739526D01*
X125783507Y-142739525D01*
X125783506Y-142739524D01*
X125564811Y-142621172D01*
X125564802Y-142621169D01*
X125329616Y-142540429D01*
X125084335Y-142499500D01*
X124835665Y-142499500D01*
X124590383Y-142540429D01*
X124355197Y-142621169D01*
X124355188Y-142621172D01*
X124136493Y-142739524D01*
X123940257Y-142892261D01*
X123771837Y-143075213D01*
X123771829Y-143075224D01*
X123771455Y-143075797D01*
X123771242Y-143075978D01*
X123768690Y-143079258D01*
X123768014Y-143078732D01*
X123718304Y-143121147D01*
X123654865Y-143131302D01*
X123643435Y-143130116D01*
X122902962Y-143870590D01*
X122885925Y-143807007D01*
X122820099Y-143692993D01*
X122727007Y-143599901D01*
X122612993Y-143534075D01*
X122549409Y-143517037D01*
X123290055Y-142776389D01*
X123290055Y-142776388D01*
X123243236Y-142739947D01*
X123243231Y-142739944D01*
X123024614Y-142621635D01*
X123024603Y-142621630D01*
X122789493Y-142540916D01*
X122544293Y-142500000D01*
X122295707Y-142500000D01*
X122050506Y-142540916D01*
X121815396Y-142621630D01*
X121815385Y-142621635D01*
X121596770Y-142739943D01*
X121549943Y-142776389D01*
X122290591Y-143517037D01*
X122227007Y-143534075D01*
X122112993Y-143599901D01*
X122019901Y-143692993D01*
X121954075Y-143807007D01*
X121937037Y-143870590D01*
X121196563Y-143130116D01*
X121185136Y-143131302D01*
X121116423Y-143118637D01*
X121071910Y-143078802D01*
X121071317Y-143079265D01*
X121068768Y-143075991D01*
X121068535Y-143075782D01*
X121068166Y-143075218D01*
X121068165Y-143075217D01*
X121068164Y-143075215D01*
X120899744Y-142892262D01*
X120703509Y-142739526D01*
X120703507Y-142739525D01*
X120703506Y-142739524D01*
X120484811Y-142621172D01*
X120484802Y-142621169D01*
X120249616Y-142540429D01*
X120004335Y-142499500D01*
X119755665Y-142499500D01*
X119510383Y-142540429D01*
X119275197Y-142621169D01*
X119275188Y-142621172D01*
X119056493Y-142739524D01*
X118860257Y-142892261D01*
X118701230Y-143065010D01*
X118641342Y-143101001D01*
X118571504Y-143098900D01*
X118518770Y-143065010D01*
X118479108Y-143021926D01*
X118359744Y-142892262D01*
X118163509Y-142739526D01*
X118163507Y-142739525D01*
X118163506Y-142739524D01*
X117944811Y-142621172D01*
X117944802Y-142621169D01*
X117709616Y-142540429D01*
X117464335Y-142499500D01*
X117215665Y-142499500D01*
X116970383Y-142540429D01*
X116735197Y-142621169D01*
X116735188Y-142621172D01*
X116516493Y-142739524D01*
X116320257Y-142892261D01*
X116151833Y-143075217D01*
X116015826Y-143283393D01*
X115915936Y-143511118D01*
X115854892Y-143752175D01*
X115854890Y-143752187D01*
X115834357Y-143999994D01*
X115834357Y-144000005D01*
X115854890Y-144247812D01*
X115854892Y-144247824D01*
X115915936Y-144488881D01*
X116015826Y-144716606D01*
X116151833Y-144924782D01*
X116151836Y-144924785D01*
X116320256Y-145107738D01*
X116516491Y-145260474D01*
X116516493Y-145260475D01*
X116734332Y-145378364D01*
X116735190Y-145378828D01*
X116954141Y-145453994D01*
X116968964Y-145459083D01*
X116970386Y-145459571D01*
X117215665Y-145500500D01*
X117464335Y-145500500D01*
X117709614Y-145459571D01*
X117944810Y-145378828D01*
X118163509Y-145260474D01*
X118359744Y-145107738D01*
X118518771Y-144934988D01*
X118578657Y-144898999D01*
X118648495Y-144901099D01*
X118701228Y-144934988D01*
X118860256Y-145107738D01*
X119056491Y-145260474D01*
X119056493Y-145260475D01*
X119274332Y-145378364D01*
X119275190Y-145378828D01*
X119494141Y-145453994D01*
X119508964Y-145459083D01*
X119510386Y-145459571D01*
X119755665Y-145500500D01*
X120004335Y-145500500D01*
X120249614Y-145459571D01*
X120484810Y-145378828D01*
X120703509Y-145260474D01*
X120899744Y-145107738D01*
X121068164Y-144924785D01*
X121068533Y-144924219D01*
X121068745Y-144924038D01*
X121071322Y-144920729D01*
X121072002Y-144921258D01*
X121121676Y-144878860D01*
X121185139Y-144868697D01*
X121196563Y-144869881D01*
X121937037Y-144129408D01*
X121954075Y-144192993D01*
X122019901Y-144307007D01*
X122112993Y-144400099D01*
X122227007Y-144465925D01*
X122290591Y-144482962D01*
X121549943Y-145223609D01*
X121596768Y-145260055D01*
X121596771Y-145260057D01*
X121815385Y-145378364D01*
X121815396Y-145378369D01*
X122050506Y-145459083D01*
X122295707Y-145500000D01*
X122544293Y-145500000D01*
X122789493Y-145459083D01*
X123024603Y-145378369D01*
X123024614Y-145378364D01*
X123243230Y-145260056D01*
X123243236Y-145260051D01*
X123290055Y-145223610D01*
X123290056Y-145223609D01*
X122549408Y-144482962D01*
X122612993Y-144465925D01*
X122727007Y-144400099D01*
X122820099Y-144307007D01*
X122885925Y-144192993D01*
X122902962Y-144129409D01*
X123643434Y-144869881D01*
X123654860Y-144868697D01*
X123723573Y-144881360D01*
X123768092Y-144921194D01*
X123768683Y-144920735D01*
X123771218Y-144923992D01*
X123771456Y-144924205D01*
X123771831Y-144924780D01*
X123771836Y-144924785D01*
X123940256Y-145107738D01*
X124136491Y-145260474D01*
X124136493Y-145260475D01*
X124354332Y-145378364D01*
X124355190Y-145378828D01*
X124574141Y-145453994D01*
X124588964Y-145459083D01*
X124590386Y-145459571D01*
X124835665Y-145500500D01*
X124994218Y-145500500D01*
X125061257Y-145520185D01*
X125081899Y-145536819D01*
X132112215Y-152567137D01*
X132112219Y-152567140D01*
X132276079Y-152676628D01*
X132276085Y-152676631D01*
X132276086Y-152676632D01*
X132458165Y-152752052D01*
X132619389Y-152784121D01*
X132651457Y-152790499D01*
X132651458Y-152790500D01*
X145876000Y-152790500D01*
X145943039Y-152810185D01*
X145988794Y-152862989D01*
X146000000Y-152914500D01*
X146000000Y-154876000D01*
X145980315Y-154943039D01*
X145927511Y-154988794D01*
X145876000Y-155000000D01*
X99040096Y-155000000D01*
X98973057Y-154980315D01*
X98967495Y-154976524D01*
X81051399Y-142037121D01*
X81008577Y-141981912D01*
X81000000Y-141936597D01*
X81000000Y-140849998D01*
X88374532Y-140849998D01*
X88374532Y-140850001D01*
X88394364Y-141076686D01*
X88394366Y-141076697D01*
X88453258Y-141296488D01*
X88453261Y-141296497D01*
X88549431Y-141502732D01*
X88549432Y-141502734D01*
X88679954Y-141689141D01*
X88840858Y-141850045D01*
X88840861Y-141850047D01*
X89027266Y-141980568D01*
X89233504Y-142076739D01*
X89453308Y-142135635D01*
X89615230Y-142149801D01*
X89679998Y-142155468D01*
X89680000Y-142155468D01*
X89680002Y-142155468D01*
X89736673Y-142150509D01*
X89906692Y-142135635D01*
X90126496Y-142076739D01*
X90332734Y-141980568D01*
X90519139Y-141850047D01*
X90680047Y-141689139D01*
X90810568Y-141502734D01*
X90906739Y-141296496D01*
X90965635Y-141076692D01*
X90979344Y-140919998D01*
X93224532Y-140919998D01*
X93224532Y-140920001D01*
X93244364Y-141146686D01*
X93244366Y-141146697D01*
X93303258Y-141366488D01*
X93303261Y-141366497D01*
X93399431Y-141572732D01*
X93399432Y-141572734D01*
X93529954Y-141759141D01*
X93690858Y-141920045D01*
X93690861Y-141920047D01*
X93877266Y-142050568D01*
X94083504Y-142146739D01*
X94303308Y-142205635D01*
X94465230Y-142219801D01*
X94529998Y-142225468D01*
X94530000Y-142225468D01*
X94530002Y-142225468D01*
X94586673Y-142220509D01*
X94756692Y-142205635D01*
X94976496Y-142146739D01*
X95182734Y-142050568D01*
X95369139Y-141920047D01*
X95530047Y-141759139D01*
X95660568Y-141572734D01*
X95756739Y-141366496D01*
X95815635Y-141146692D01*
X95835468Y-140920000D01*
X95815635Y-140693308D01*
X95806710Y-140659998D01*
X101594532Y-140659998D01*
X101594532Y-140660001D01*
X101614364Y-140886686D01*
X101614366Y-140886697D01*
X101673258Y-141106488D01*
X101673261Y-141106497D01*
X101769431Y-141312732D01*
X101769432Y-141312734D01*
X101899954Y-141499141D01*
X102060858Y-141660045D01*
X102060861Y-141660047D01*
X102247266Y-141790568D01*
X102453504Y-141886739D01*
X102673308Y-141945635D01*
X102835230Y-141959801D01*
X102899998Y-141965468D01*
X102900000Y-141965468D01*
X102900002Y-141965468D01*
X102956673Y-141960509D01*
X103126692Y-141945635D01*
X103346496Y-141886739D01*
X103552734Y-141790568D01*
X103739139Y-141660047D01*
X103900047Y-141499139D01*
X104030568Y-141312734D01*
X104126739Y-141106496D01*
X104185635Y-140886692D01*
X104192345Y-140809998D01*
X107354532Y-140809998D01*
X107354532Y-140810001D01*
X107374364Y-141036686D01*
X107374366Y-141036697D01*
X107433258Y-141256488D01*
X107433261Y-141256497D01*
X107529431Y-141462732D01*
X107529432Y-141462734D01*
X107659954Y-141649141D01*
X107820858Y-141810045D01*
X107820861Y-141810047D01*
X108007266Y-141940568D01*
X108213504Y-142036739D01*
X108213509Y-142036740D01*
X108213511Y-142036741D01*
X108265111Y-142050567D01*
X108433308Y-142095635D01*
X108595230Y-142109801D01*
X108659998Y-142115468D01*
X108660000Y-142115468D01*
X108660002Y-142115468D01*
X108716673Y-142110509D01*
X108886692Y-142095635D01*
X109106496Y-142036739D01*
X109312734Y-141940568D01*
X109499139Y-141810047D01*
X109660047Y-141649139D01*
X109790568Y-141462734D01*
X109886739Y-141256496D01*
X109945635Y-141036692D01*
X109965468Y-140810000D01*
X109945635Y-140583308D01*
X109886739Y-140363504D01*
X109790568Y-140157266D01*
X109660047Y-139970861D01*
X109660045Y-139970858D01*
X109499141Y-139809954D01*
X109312734Y-139679432D01*
X109312732Y-139679431D01*
X109106497Y-139583261D01*
X109106488Y-139583258D01*
X108886697Y-139524366D01*
X108886693Y-139524365D01*
X108886692Y-139524365D01*
X108886691Y-139524364D01*
X108886686Y-139524364D01*
X108660002Y-139504532D01*
X108659998Y-139504532D01*
X108433313Y-139524364D01*
X108433302Y-139524366D01*
X108213511Y-139583258D01*
X108213502Y-139583261D01*
X108007267Y-139679431D01*
X108007265Y-139679432D01*
X107820858Y-139809954D01*
X107659954Y-139970858D01*
X107529432Y-140157265D01*
X107529431Y-140157267D01*
X107433261Y-140363502D01*
X107433258Y-140363511D01*
X107374366Y-140583302D01*
X107374364Y-140583313D01*
X107354532Y-140809998D01*
X104192345Y-140809998D01*
X104205468Y-140660000D01*
X104185635Y-140433308D01*
X104126739Y-140213504D01*
X104030568Y-140007266D01*
X103900047Y-139820861D01*
X103900045Y-139820858D01*
X103739141Y-139659954D01*
X103552734Y-139529432D01*
X103552732Y-139529431D01*
X103346497Y-139433261D01*
X103346488Y-139433258D01*
X103126697Y-139374366D01*
X103126693Y-139374365D01*
X103126692Y-139374365D01*
X103126691Y-139374364D01*
X103126686Y-139374364D01*
X102900002Y-139354532D01*
X102899998Y-139354532D01*
X102673313Y-139374364D01*
X102673302Y-139374366D01*
X102453511Y-139433258D01*
X102453502Y-139433261D01*
X102247267Y-139529431D01*
X102247265Y-139529432D01*
X102060858Y-139659954D01*
X101899954Y-139820858D01*
X101769432Y-140007265D01*
X101769431Y-140007267D01*
X101673261Y-140213502D01*
X101673258Y-140213511D01*
X101614366Y-140433302D01*
X101614364Y-140433313D01*
X101594532Y-140659998D01*
X95806710Y-140659998D01*
X95756739Y-140473504D01*
X95660568Y-140267266D01*
X95530047Y-140080861D01*
X95530045Y-140080858D01*
X95369141Y-139919954D01*
X95182734Y-139789432D01*
X95182732Y-139789431D01*
X94976497Y-139693261D01*
X94976488Y-139693258D01*
X94756697Y-139634366D01*
X94756693Y-139634365D01*
X94756692Y-139634365D01*
X94756691Y-139634364D01*
X94756686Y-139634364D01*
X94530002Y-139614532D01*
X94529998Y-139614532D01*
X94303313Y-139634364D01*
X94303302Y-139634366D01*
X94083511Y-139693258D01*
X94083502Y-139693261D01*
X93877267Y-139789431D01*
X93877265Y-139789432D01*
X93690858Y-139919954D01*
X93529954Y-140080858D01*
X93399432Y-140267265D01*
X93399431Y-140267267D01*
X93303261Y-140473502D01*
X93303258Y-140473511D01*
X93244366Y-140693302D01*
X93244364Y-140693313D01*
X93224532Y-140919998D01*
X90979344Y-140919998D01*
X90985468Y-140850000D01*
X90981968Y-140810000D01*
X90979801Y-140785230D01*
X90965635Y-140623308D01*
X90906739Y-140403504D01*
X90810568Y-140197266D01*
X90680047Y-140010861D01*
X90680045Y-140010858D01*
X90519141Y-139849954D01*
X90332734Y-139719432D01*
X90332732Y-139719431D01*
X90126497Y-139623261D01*
X90126488Y-139623258D01*
X89906697Y-139564366D01*
X89906693Y-139564365D01*
X89906692Y-139564365D01*
X89906691Y-139564364D01*
X89906686Y-139564364D01*
X89680002Y-139544532D01*
X89679998Y-139544532D01*
X89453313Y-139564364D01*
X89453302Y-139564366D01*
X89233511Y-139623258D01*
X89233502Y-139623261D01*
X89027267Y-139719431D01*
X89027265Y-139719432D01*
X88840858Y-139849954D01*
X88679954Y-140010858D01*
X88549432Y-140197265D01*
X88549431Y-140197267D01*
X88453261Y-140403502D01*
X88453258Y-140403511D01*
X88394366Y-140623302D01*
X88394364Y-140623313D01*
X88374532Y-140849998D01*
X81000000Y-140849998D01*
X81000000Y-130689998D01*
X88374532Y-130689998D01*
X88374532Y-130690001D01*
X88394364Y-130916686D01*
X88394366Y-130916697D01*
X88453258Y-131136488D01*
X88453261Y-131136497D01*
X88549431Y-131342732D01*
X88549432Y-131342734D01*
X88679954Y-131529141D01*
X88840858Y-131690045D01*
X88840861Y-131690047D01*
X89027266Y-131820568D01*
X89233504Y-131916739D01*
X89453308Y-131975635D01*
X89615230Y-131989801D01*
X89679998Y-131995468D01*
X89680000Y-131995468D01*
X89680002Y-131995468D01*
X89736673Y-131990509D01*
X89906692Y-131975635D01*
X90126496Y-131916739D01*
X90332734Y-131820568D01*
X90519139Y-131690047D01*
X90680047Y-131529139D01*
X90810568Y-131342734D01*
X90906739Y-131136496D01*
X90965635Y-130916692D01*
X90971040Y-130854905D01*
X90996492Y-130789838D01*
X91006879Y-130778040D01*
X92892319Y-128892601D01*
X92953642Y-128859116D01*
X93023334Y-128864100D01*
X93067681Y-128892601D01*
X93493181Y-129318101D01*
X93526666Y-129379424D01*
X93529500Y-129405782D01*
X93529500Y-129882410D01*
X93509815Y-129949449D01*
X93507076Y-129953532D01*
X93399431Y-130107267D01*
X93303261Y-130313502D01*
X93303258Y-130313511D01*
X93244366Y-130533302D01*
X93244364Y-130533313D01*
X93224532Y-130759998D01*
X93224532Y-130760001D01*
X93244364Y-130986686D01*
X93244366Y-130986697D01*
X93303258Y-131206488D01*
X93303261Y-131206497D01*
X93399431Y-131412732D01*
X93399432Y-131412734D01*
X93529954Y-131599141D01*
X93690858Y-131760045D01*
X93690861Y-131760047D01*
X93877266Y-131890568D01*
X94083504Y-131986739D01*
X94303308Y-132045635D01*
X94465230Y-132059801D01*
X94529998Y-132065468D01*
X94530000Y-132065468D01*
X94530002Y-132065468D01*
X94586673Y-132060509D01*
X94756692Y-132045635D01*
X94976496Y-131986739D01*
X95182734Y-131890568D01*
X95369139Y-131760047D01*
X95530047Y-131599139D01*
X95660568Y-131412734D01*
X95756739Y-131206496D01*
X95815635Y-130986692D01*
X95835468Y-130760000D01*
X95815635Y-130533308D01*
X95806710Y-130499998D01*
X101594532Y-130499998D01*
X101594532Y-130500001D01*
X101614364Y-130726686D01*
X101614366Y-130726697D01*
X101673258Y-130946488D01*
X101673261Y-130946497D01*
X101769431Y-131152732D01*
X101769432Y-131152734D01*
X101899954Y-131339141D01*
X102060858Y-131500045D01*
X102060861Y-131500047D01*
X102247266Y-131630568D01*
X102453504Y-131726739D01*
X102673308Y-131785635D01*
X102835230Y-131799801D01*
X102899998Y-131805468D01*
X102900000Y-131805468D01*
X102900002Y-131805468D01*
X102956673Y-131800509D01*
X103126692Y-131785635D01*
X103346496Y-131726739D01*
X103552734Y-131630568D01*
X103739139Y-131500047D01*
X103900047Y-131339139D01*
X104030568Y-131152734D01*
X104126739Y-130946496D01*
X104185635Y-130726692D01*
X104192345Y-130649998D01*
X107354532Y-130649998D01*
X107354532Y-130650001D01*
X107374364Y-130876686D01*
X107374366Y-130876697D01*
X107433258Y-131096488D01*
X107433261Y-131096497D01*
X107529431Y-131302732D01*
X107529432Y-131302734D01*
X107659954Y-131489141D01*
X107820858Y-131650045D01*
X107820861Y-131650047D01*
X108007266Y-131780568D01*
X108213504Y-131876739D01*
X108433308Y-131935635D01*
X108595230Y-131949801D01*
X108659998Y-131955468D01*
X108660000Y-131955468D01*
X108660002Y-131955468D01*
X108716673Y-131950509D01*
X108886692Y-131935635D01*
X109106496Y-131876739D01*
X109312734Y-131780568D01*
X109499139Y-131650047D01*
X109649192Y-131499994D01*
X150404859Y-131499994D01*
X150404859Y-131500005D01*
X150425385Y-131747729D01*
X150425387Y-131747738D01*
X150486412Y-131988717D01*
X150586267Y-132216367D01*
X150686562Y-132369881D01*
X151427037Y-131629408D01*
X151444075Y-131692993D01*
X151509901Y-131807007D01*
X151602993Y-131900099D01*
X151717007Y-131965925D01*
X151780591Y-131982962D01*
X151039943Y-132723609D01*
X151086768Y-132760055D01*
X151086771Y-132760057D01*
X151305385Y-132878364D01*
X151305396Y-132878369D01*
X151540506Y-132959083D01*
X151785707Y-133000000D01*
X152034293Y-133000000D01*
X152279493Y-132959083D01*
X152514603Y-132878369D01*
X152514614Y-132878364D01*
X152733230Y-132760056D01*
X152733236Y-132760051D01*
X152780055Y-132723610D01*
X152780056Y-132723609D01*
X152039408Y-131982962D01*
X152102993Y-131965925D01*
X152217007Y-131900099D01*
X152310099Y-131807007D01*
X152375925Y-131692993D01*
X152392962Y-131629409D01*
X153133435Y-132369882D01*
X153233733Y-132216364D01*
X153333587Y-131988717D01*
X153394612Y-131747738D01*
X153394614Y-131747729D01*
X153415141Y-131500005D01*
X153415141Y-131499994D01*
X168404357Y-131499994D01*
X168404357Y-131500005D01*
X168424890Y-131747812D01*
X168424892Y-131747824D01*
X168485936Y-131988881D01*
X168585826Y-132216606D01*
X168721833Y-132424782D01*
X168721836Y-132424785D01*
X168890256Y-132607738D01*
X169086491Y-132760474D01*
X169086493Y-132760475D01*
X169304332Y-132878364D01*
X169305190Y-132878828D01*
X169524141Y-132953994D01*
X169538964Y-132959083D01*
X169540386Y-132959571D01*
X169785665Y-133000500D01*
X170034335Y-133000500D01*
X170279614Y-132959571D01*
X170514810Y-132878828D01*
X170733509Y-132760474D01*
X170929744Y-132607738D01*
X171098164Y-132424785D01*
X171234173Y-132216607D01*
X171334063Y-131988881D01*
X171395108Y-131747821D01*
X171399651Y-131692993D01*
X171415643Y-131500005D01*
X171415643Y-131499994D01*
X171395109Y-131252187D01*
X171395107Y-131252175D01*
X171334063Y-131011118D01*
X171234173Y-130783393D01*
X171098166Y-130575217D01*
X171076557Y-130551744D01*
X170929744Y-130392262D01*
X170733509Y-130239526D01*
X170733507Y-130239525D01*
X170733506Y-130239524D01*
X170514811Y-130121172D01*
X170514802Y-130121169D01*
X170279616Y-130040429D01*
X170034335Y-129999500D01*
X169785665Y-129999500D01*
X169540383Y-130040429D01*
X169305197Y-130121169D01*
X169305188Y-130121172D01*
X169086493Y-130239524D01*
X168890257Y-130392261D01*
X168721833Y-130575217D01*
X168585826Y-130783393D01*
X168485936Y-131011118D01*
X168424892Y-131252175D01*
X168424890Y-131252187D01*
X168404357Y-131499994D01*
X153415141Y-131499994D01*
X153394614Y-131252270D01*
X153394612Y-131252261D01*
X153333587Y-131011282D01*
X153233732Y-130783632D01*
X153133435Y-130630116D01*
X152392962Y-131370590D01*
X152375925Y-131307007D01*
X152310099Y-131192993D01*
X152217007Y-131099901D01*
X152102993Y-131034075D01*
X152039409Y-131017037D01*
X152780055Y-130276389D01*
X152780055Y-130276388D01*
X152733236Y-130239947D01*
X152733231Y-130239944D01*
X152514614Y-130121635D01*
X152514603Y-130121630D01*
X152279493Y-130040916D01*
X152034293Y-130000000D01*
X151785707Y-130000000D01*
X151540506Y-130040916D01*
X151305396Y-130121630D01*
X151305385Y-130121635D01*
X151086770Y-130239943D01*
X151039943Y-130276389D01*
X151780591Y-131017037D01*
X151717007Y-131034075D01*
X151602993Y-131099901D01*
X151509901Y-131192993D01*
X151444075Y-131307007D01*
X151427037Y-131370591D01*
X150686563Y-130630117D01*
X150586267Y-130783633D01*
X150586265Y-130783637D01*
X150486412Y-131011282D01*
X150425387Y-131252261D01*
X150425385Y-131252270D01*
X150404859Y-131499994D01*
X109649192Y-131499994D01*
X109660047Y-131489139D01*
X109790568Y-131302734D01*
X109886739Y-131096496D01*
X109945635Y-130876692D01*
X109965468Y-130650000D01*
X109963728Y-130630117D01*
X109952345Y-130500001D01*
X109945635Y-130423308D01*
X109896391Y-130239526D01*
X109886741Y-130203511D01*
X109886738Y-130203502D01*
X109865023Y-130156935D01*
X109790568Y-129997266D01*
X109660047Y-129810861D01*
X109660045Y-129810858D01*
X109499141Y-129649954D01*
X109312734Y-129519432D01*
X109312732Y-129519431D01*
X109106497Y-129423261D01*
X109106488Y-129423258D01*
X108886697Y-129364366D01*
X108886693Y-129364365D01*
X108886692Y-129364365D01*
X108886691Y-129364364D01*
X108886686Y-129364364D01*
X108660002Y-129344532D01*
X108659998Y-129344532D01*
X108433313Y-129364364D01*
X108433302Y-129364366D01*
X108213511Y-129423258D01*
X108213502Y-129423261D01*
X108007267Y-129519431D01*
X108007265Y-129519432D01*
X107820858Y-129649954D01*
X107659954Y-129810858D01*
X107529432Y-129997265D01*
X107529431Y-129997267D01*
X107433261Y-130203502D01*
X107433258Y-130203511D01*
X107374366Y-130423302D01*
X107374364Y-130423313D01*
X107354532Y-130649998D01*
X104192345Y-130649998D01*
X104205468Y-130500000D01*
X104185635Y-130273308D01*
X104126739Y-130053504D01*
X104030568Y-129847266D01*
X103900047Y-129660861D01*
X103900045Y-129660858D01*
X103739141Y-129499954D01*
X103552734Y-129369432D01*
X103552732Y-129369431D01*
X103346497Y-129273261D01*
X103346488Y-129273258D01*
X103126697Y-129214366D01*
X103126693Y-129214365D01*
X103126692Y-129214365D01*
X103126691Y-129214364D01*
X103126686Y-129214364D01*
X102900002Y-129194532D01*
X102899998Y-129194532D01*
X102673313Y-129214364D01*
X102673302Y-129214366D01*
X102453511Y-129273258D01*
X102453502Y-129273261D01*
X102247267Y-129369431D01*
X102247265Y-129369432D01*
X102060858Y-129499954D01*
X101899954Y-129660858D01*
X101769432Y-129847265D01*
X101769431Y-129847267D01*
X101673261Y-130053502D01*
X101673258Y-130053511D01*
X101614366Y-130273302D01*
X101614364Y-130273313D01*
X101594532Y-130499998D01*
X95806710Y-130499998D01*
X95756739Y-130313504D01*
X95660568Y-130107266D01*
X95552924Y-129953532D01*
X95530597Y-129887326D01*
X95530500Y-129882410D01*
X95530500Y-128869993D01*
X125434700Y-128869993D01*
X125434700Y-128870006D01*
X125453864Y-129101297D01*
X125453866Y-129101308D01*
X125510842Y-129326300D01*
X125604075Y-129538848D01*
X125731016Y-129733147D01*
X125731019Y-129733151D01*
X125731021Y-129733153D01*
X125888216Y-129903913D01*
X125888219Y-129903915D01*
X125888222Y-129903918D01*
X126071365Y-130046464D01*
X126071371Y-130046468D01*
X126071374Y-130046470D01*
X126275497Y-130156936D01*
X126389487Y-130196068D01*
X126495015Y-130232297D01*
X126495017Y-130232297D01*
X126495019Y-130232298D01*
X126723951Y-130270500D01*
X126723952Y-130270500D01*
X126956048Y-130270500D01*
X126956049Y-130270500D01*
X127184981Y-130232298D01*
X127404503Y-130156936D01*
X127608626Y-130046470D01*
X127620452Y-130037266D01*
X127770713Y-129920313D01*
X127791784Y-129903913D01*
X127948979Y-129733153D01*
X128075924Y-129538849D01*
X128169157Y-129326300D01*
X128226134Y-129101305D01*
X128226135Y-129101297D01*
X128245300Y-128870006D01*
X128245300Y-128869993D01*
X128226135Y-128638702D01*
X128226133Y-128638690D01*
X128169157Y-128413699D01*
X128075924Y-128201151D01*
X127948981Y-128006849D01*
X127853832Y-127903489D01*
X127822910Y-127840835D01*
X127830770Y-127771409D01*
X127874918Y-127717253D01*
X127901730Y-127703325D01*
X127982084Y-127673355D01*
X127982093Y-127673350D01*
X128097187Y-127587190D01*
X128097190Y-127587187D01*
X128183350Y-127472093D01*
X128183354Y-127472086D01*
X128233596Y-127337379D01*
X128233598Y-127337372D01*
X128239999Y-127277844D01*
X128240000Y-127277827D01*
X128240000Y-126580000D01*
X127215278Y-126580000D01*
X127259333Y-126503694D01*
X127290000Y-126389244D01*
X127290000Y-126270756D01*
X127259333Y-126156306D01*
X127215278Y-126080000D01*
X128240000Y-126080000D01*
X128240000Y-125469997D01*
X139795034Y-125469997D01*
X139795034Y-125470002D01*
X139814858Y-125696599D01*
X139814860Y-125696610D01*
X139873730Y-125916317D01*
X139873735Y-125916331D01*
X139969863Y-126122478D01*
X140020974Y-126195472D01*
X140700000Y-125516446D01*
X140700000Y-125522661D01*
X140727259Y-125624394D01*
X140779920Y-125715606D01*
X140854394Y-125790080D01*
X140945606Y-125842741D01*
X141047339Y-125870000D01*
X141053553Y-125870000D01*
X140374526Y-126549025D01*
X140447513Y-126600132D01*
X140447521Y-126600136D01*
X140653668Y-126696264D01*
X140653682Y-126696269D01*
X140873389Y-126755139D01*
X140873400Y-126755141D01*
X141099998Y-126774966D01*
X141100002Y-126774966D01*
X141326599Y-126755141D01*
X141326610Y-126755139D01*
X141546317Y-126696269D01*
X141546331Y-126696264D01*
X141752478Y-126600136D01*
X141825471Y-126549024D01*
X141146447Y-125870000D01*
X141152661Y-125870000D01*
X141254394Y-125842741D01*
X141345606Y-125790080D01*
X141420080Y-125715606D01*
X141472741Y-125624394D01*
X141500000Y-125522661D01*
X141500000Y-125516447D01*
X142184197Y-126200644D01*
X142233192Y-126210491D01*
X142283375Y-126259106D01*
X142298049Y-126314632D01*
X142299099Y-126314576D01*
X142299146Y-126314571D01*
X142299146Y-126314573D01*
X142299324Y-126314564D01*
X142299501Y-126317876D01*
X142305908Y-126377483D01*
X142356202Y-126512328D01*
X142356206Y-126512335D01*
X142442452Y-126627544D01*
X142442455Y-126627547D01*
X142557664Y-126713793D01*
X142557671Y-126713797D01*
X142692517Y-126764091D01*
X142692516Y-126764091D01*
X142699444Y-126764835D01*
X142752127Y-126770500D01*
X144447872Y-126770499D01*
X144507483Y-126764091D01*
X144642331Y-126713796D01*
X144757546Y-126627546D01*
X144843796Y-126512331D01*
X144894091Y-126377483D01*
X144900500Y-126317873D01*
X144900499Y-124622128D01*
X144894091Y-124562517D01*
X144855170Y-124458165D01*
X144843797Y-124427671D01*
X144843793Y-124427664D01*
X144757547Y-124312455D01*
X144757544Y-124312452D01*
X144642335Y-124226206D01*
X144642328Y-124226202D01*
X144507482Y-124175908D01*
X144507483Y-124175908D01*
X144447883Y-124169501D01*
X144447881Y-124169500D01*
X144447873Y-124169500D01*
X144447864Y-124169500D01*
X142752129Y-124169500D01*
X142752123Y-124169501D01*
X142692516Y-124175908D01*
X142557671Y-124226202D01*
X142557664Y-124226206D01*
X142442455Y-124312452D01*
X142442452Y-124312455D01*
X142356206Y-124427664D01*
X142356202Y-124427671D01*
X142305908Y-124562517D01*
X142299501Y-124622116D01*
X142299501Y-124622123D01*
X142299322Y-124625452D01*
X142297847Y-124625372D01*
X142279815Y-124686784D01*
X142227011Y-124732539D01*
X142183522Y-124740029D01*
X141500000Y-125423551D01*
X141500000Y-125417339D01*
X141472741Y-125315606D01*
X141420080Y-125224394D01*
X141345606Y-125149920D01*
X141254394Y-125097259D01*
X141152661Y-125070000D01*
X141146445Y-125070000D01*
X141825472Y-124390974D01*
X141752478Y-124339863D01*
X141546331Y-124243735D01*
X141546317Y-124243730D01*
X141326610Y-124184860D01*
X141326599Y-124184858D01*
X141100002Y-124165034D01*
X141099998Y-124165034D01*
X140873400Y-124184858D01*
X140873389Y-124184860D01*
X140653682Y-124243730D01*
X140653673Y-124243734D01*
X140447516Y-124339866D01*
X140447512Y-124339868D01*
X140374526Y-124390973D01*
X140374526Y-124390974D01*
X141053553Y-125070000D01*
X141047339Y-125070000D01*
X140945606Y-125097259D01*
X140854394Y-125149920D01*
X140779920Y-125224394D01*
X140727259Y-125315606D01*
X140700000Y-125417339D01*
X140700000Y-125423552D01*
X140020974Y-124744526D01*
X140020973Y-124744526D01*
X139969871Y-124817509D01*
X139969866Y-124817516D01*
X139873734Y-125023673D01*
X139873730Y-125023682D01*
X139814860Y-125243389D01*
X139814858Y-125243400D01*
X139795034Y-125469997D01*
X128240000Y-125469997D01*
X128240000Y-125382172D01*
X128239999Y-125382155D01*
X128233598Y-125322627D01*
X128233596Y-125322620D01*
X128183354Y-125187913D01*
X128183350Y-125187906D01*
X128097190Y-125072812D01*
X128097187Y-125072809D01*
X127982093Y-124986649D01*
X127982086Y-124986645D01*
X127847379Y-124936403D01*
X127847372Y-124936401D01*
X127787844Y-124930000D01*
X127090000Y-124930000D01*
X127090000Y-125954722D01*
X127013694Y-125910667D01*
X126899244Y-125880000D01*
X126780756Y-125880000D01*
X126666306Y-125910667D01*
X126590000Y-125954722D01*
X126590000Y-124930000D01*
X125892155Y-124930000D01*
X125832627Y-124936401D01*
X125832620Y-124936403D01*
X125697913Y-124986645D01*
X125697906Y-124986649D01*
X125582812Y-125072809D01*
X125582809Y-125072812D01*
X125496649Y-125187906D01*
X125496645Y-125187913D01*
X125446403Y-125322620D01*
X125446401Y-125322627D01*
X125440000Y-125382155D01*
X125440000Y-126080000D01*
X126464722Y-126080000D01*
X126420667Y-126156306D01*
X126390000Y-126270756D01*
X126390000Y-126389244D01*
X126420667Y-126503694D01*
X126464722Y-126580000D01*
X125440000Y-126580000D01*
X125440000Y-127277844D01*
X125446401Y-127337372D01*
X125446403Y-127337379D01*
X125496645Y-127472086D01*
X125496649Y-127472093D01*
X125582809Y-127587187D01*
X125582812Y-127587190D01*
X125697906Y-127673350D01*
X125697913Y-127673354D01*
X125778270Y-127703325D01*
X125834204Y-127745196D01*
X125858621Y-127810660D01*
X125843770Y-127878933D01*
X125826168Y-127903489D01*
X125731021Y-128006847D01*
X125731019Y-128006848D01*
X125731016Y-128006853D01*
X125604075Y-128201151D01*
X125510842Y-128413699D01*
X125453867Y-128638690D01*
X125453864Y-128638702D01*
X125434700Y-128869993D01*
X95530500Y-128869993D01*
X95530500Y-128841456D01*
X95530499Y-128841454D01*
X95492053Y-128648175D01*
X95492052Y-128648174D01*
X95492051Y-128648165D01*
X95488128Y-128638695D01*
X95469097Y-128592749D01*
X95416632Y-128466086D01*
X95416628Y-128466080D01*
X95307139Y-128302217D01*
X95164686Y-128159764D01*
X95164655Y-128159735D01*
X94016819Y-127011899D01*
X93983334Y-126950576D01*
X93980500Y-126924218D01*
X93980500Y-124651456D01*
X93942052Y-124458170D01*
X93942051Y-124458169D01*
X93942051Y-124458165D01*
X93914220Y-124390974D01*
X93866635Y-124276092D01*
X93866628Y-124276079D01*
X93757139Y-124112218D01*
X93757136Y-124112214D01*
X93617785Y-123972863D01*
X93617781Y-123972860D01*
X93453920Y-123863371D01*
X93453907Y-123863364D01*
X93271839Y-123787950D01*
X93271829Y-123787947D01*
X93078543Y-123749500D01*
X93078541Y-123749500D01*
X92881459Y-123749500D01*
X92881457Y-123749500D01*
X92688170Y-123787947D01*
X92688160Y-123787950D01*
X92506092Y-123863364D01*
X92506079Y-123863371D01*
X92342218Y-123972860D01*
X92342214Y-123972863D01*
X92202863Y-124112214D01*
X92202860Y-124112218D01*
X92093371Y-124276079D01*
X92093364Y-124276092D01*
X92017950Y-124458160D01*
X92017947Y-124458170D01*
X91979500Y-124651456D01*
X91979500Y-126924216D01*
X91959815Y-126991255D01*
X91943181Y-127011897D01*
X89591966Y-129363111D01*
X89530643Y-129396596D01*
X89515095Y-129398958D01*
X89453307Y-129404365D01*
X89233511Y-129463258D01*
X89233502Y-129463261D01*
X89027267Y-129559431D01*
X89027265Y-129559432D01*
X88840858Y-129689954D01*
X88679954Y-129850858D01*
X88549432Y-130037265D01*
X88549431Y-130037267D01*
X88453261Y-130243502D01*
X88453258Y-130243511D01*
X88394366Y-130463302D01*
X88394364Y-130463313D01*
X88374532Y-130689998D01*
X81000000Y-130689998D01*
X81000000Y-112291456D01*
X83889500Y-112291456D01*
X83889500Y-118988544D01*
X83927947Y-119181829D01*
X83927950Y-119181839D01*
X83949521Y-119233915D01*
X84003364Y-119363906D01*
X84003371Y-119363919D01*
X84112860Y-119527782D01*
X84256537Y-119671459D01*
X84256559Y-119671479D01*
X87219735Y-122634655D01*
X87219764Y-122634686D01*
X87362214Y-122777136D01*
X87362218Y-122777139D01*
X87526079Y-122886628D01*
X87526092Y-122886635D01*
X87654833Y-122939961D01*
X87697744Y-122957735D01*
X87708164Y-122962051D01*
X87804812Y-122981275D01*
X87853135Y-122990887D01*
X87901458Y-123000500D01*
X87901459Y-123000500D01*
X104098543Y-123000500D01*
X104228582Y-122974632D01*
X104291835Y-122962051D01*
X104473914Y-122886632D01*
X104637782Y-122777139D01*
X104777139Y-122637782D01*
X104886632Y-122473914D01*
X104962051Y-122291835D01*
X104984005Y-122181468D01*
X105000500Y-122098543D01*
X105000500Y-121901456D01*
X104962052Y-121708170D01*
X104962051Y-121708169D01*
X104962051Y-121708165D01*
X104902570Y-121564564D01*
X104886635Y-121526092D01*
X104886628Y-121526079D01*
X104777139Y-121362218D01*
X104777136Y-121362214D01*
X104637785Y-121222863D01*
X104637781Y-121222860D01*
X104473920Y-121113371D01*
X104473907Y-121113364D01*
X104291839Y-121037950D01*
X104291829Y-121037947D01*
X104126158Y-121004993D01*
X108754700Y-121004993D01*
X108754700Y-121005006D01*
X108773864Y-121236297D01*
X108773866Y-121236308D01*
X108830842Y-121461300D01*
X108924075Y-121673848D01*
X109051016Y-121868147D01*
X109051019Y-121868151D01*
X109051021Y-121868153D01*
X109208216Y-122038913D01*
X109208219Y-122038915D01*
X109208222Y-122038918D01*
X109391365Y-122181464D01*
X109391371Y-122181468D01*
X109391374Y-122181470D01*
X109595497Y-122291936D01*
X109709487Y-122331068D01*
X109815015Y-122367297D01*
X109815017Y-122367297D01*
X109815019Y-122367298D01*
X110043951Y-122405500D01*
X110043952Y-122405500D01*
X110276048Y-122405500D01*
X110276049Y-122405500D01*
X110504981Y-122367298D01*
X110724503Y-122291936D01*
X110928626Y-122181470D01*
X110936532Y-122175317D01*
X111035171Y-122098543D01*
X111111784Y-122038913D01*
X111268979Y-121868153D01*
X111395924Y-121673849D01*
X111489157Y-121461300D01*
X111546134Y-121236305D01*
X111551486Y-121171719D01*
X111565300Y-121005006D01*
X111565300Y-121004993D01*
X111546135Y-120773702D01*
X111546133Y-120773691D01*
X111489157Y-120548699D01*
X111395924Y-120336151D01*
X111268981Y-120141849D01*
X111173832Y-120038489D01*
X111142910Y-119975835D01*
X111150770Y-119906409D01*
X111194918Y-119852253D01*
X111221730Y-119838325D01*
X111302084Y-119808355D01*
X111302093Y-119808350D01*
X111417187Y-119722190D01*
X111417190Y-119722187D01*
X111503350Y-119607093D01*
X111503354Y-119607086D01*
X111553596Y-119472379D01*
X111553598Y-119472372D01*
X111559999Y-119412844D01*
X111560000Y-119412827D01*
X111560000Y-118715000D01*
X110535278Y-118715000D01*
X110579333Y-118638694D01*
X110610000Y-118524244D01*
X110610000Y-118405756D01*
X110579333Y-118291306D01*
X110535278Y-118215000D01*
X111560000Y-118215000D01*
X111560000Y-117517172D01*
X111559999Y-117517155D01*
X111553598Y-117457627D01*
X111553596Y-117457620D01*
X111503354Y-117322913D01*
X111503350Y-117322906D01*
X111417190Y-117207812D01*
X111417187Y-117207809D01*
X111302093Y-117121649D01*
X111302086Y-117121645D01*
X111167379Y-117071403D01*
X111167372Y-117071401D01*
X111107844Y-117065000D01*
X110410000Y-117065000D01*
X110410000Y-118089722D01*
X110333694Y-118045667D01*
X110219244Y-118015000D01*
X110100756Y-118015000D01*
X109986306Y-118045667D01*
X109910000Y-118089722D01*
X109910000Y-117065000D01*
X109212155Y-117065000D01*
X109152627Y-117071401D01*
X109152620Y-117071403D01*
X109017913Y-117121645D01*
X109017906Y-117121649D01*
X108902812Y-117207809D01*
X108902809Y-117207812D01*
X108816649Y-117322906D01*
X108816645Y-117322913D01*
X108766403Y-117457620D01*
X108766401Y-117457627D01*
X108760000Y-117517155D01*
X108760000Y-118215000D01*
X109784722Y-118215000D01*
X109740667Y-118291306D01*
X109710000Y-118405756D01*
X109710000Y-118524244D01*
X109740667Y-118638694D01*
X109784722Y-118715000D01*
X108760000Y-118715000D01*
X108760000Y-119412844D01*
X108766401Y-119472372D01*
X108766403Y-119472379D01*
X108816645Y-119607086D01*
X108816649Y-119607093D01*
X108902809Y-119722187D01*
X108902812Y-119722190D01*
X109017906Y-119808350D01*
X109017913Y-119808354D01*
X109098270Y-119838325D01*
X109154204Y-119880196D01*
X109178621Y-119945660D01*
X109163770Y-120013933D01*
X109146168Y-120038489D01*
X109051021Y-120141847D01*
X109051019Y-120141848D01*
X109051016Y-120141853D01*
X108924075Y-120336151D01*
X108830842Y-120548699D01*
X108773866Y-120773691D01*
X108773864Y-120773702D01*
X108754700Y-121004993D01*
X104126158Y-121004993D01*
X104098543Y-120999500D01*
X104098541Y-120999500D01*
X102654781Y-120999500D01*
X102587742Y-120979815D01*
X102541987Y-120927011D01*
X102532043Y-120857853D01*
X102561068Y-120794297D01*
X102567100Y-120787819D01*
X103379084Y-119975835D01*
X105887139Y-117467782D01*
X105891860Y-117460717D01*
X105996632Y-117303914D01*
X106072051Y-117121835D01*
X106085932Y-117052049D01*
X106110500Y-116928543D01*
X106110500Y-108569997D01*
X112664537Y-108569997D01*
X112664537Y-108570002D01*
X112679823Y-109144046D01*
X112684387Y-109315401D01*
X112699908Y-109509313D01*
X112743881Y-110058692D01*
X112842849Y-110797753D01*
X112842851Y-110797765D01*
X112869259Y-110937821D01*
X112957650Y-111406607D01*
X112981015Y-111530521D01*
X113157975Y-112254861D01*
X113157975Y-112254863D01*
X113373238Y-112968763D01*
X113373250Y-112968799D01*
X113470859Y-113239466D01*
X113626206Y-113670237D01*
X113742842Y-113946606D01*
X113916141Y-114357235D01*
X114115309Y-114766819D01*
X114242223Y-115027814D01*
X114571299Y-115621898D01*
X114603542Y-115680105D01*
X114788181Y-115975199D01*
X114999053Y-116312221D01*
X115112633Y-116473920D01*
X115427661Y-116922414D01*
X115427672Y-116922428D01*
X115742090Y-117322906D01*
X115855835Y-117467785D01*
X115888120Y-117508906D01*
X116379142Y-118070065D01*
X116623071Y-118320576D01*
X116899348Y-118604308D01*
X116936596Y-118638694D01*
X117447247Y-119110106D01*
X117447249Y-119110108D01*
X118021271Y-119586010D01*
X118021313Y-119586043D01*
X118619825Y-120030702D01*
X118787370Y-120141847D01*
X119241210Y-120442913D01*
X119883641Y-120821462D01*
X120545309Y-121165283D01*
X120545319Y-121165288D01*
X120701833Y-121236308D01*
X121224337Y-121473401D01*
X121918803Y-121744943D01*
X121918819Y-121744948D01*
X121918829Y-121744952D01*
X122626710Y-121979131D01*
X122626721Y-121979134D01*
X122626736Y-121979139D01*
X123346130Y-122175325D01*
X124074946Y-122332946D01*
X124811118Y-122451554D01*
X125552559Y-122530814D01*
X126297167Y-122570500D01*
X126297171Y-122570500D01*
X127042829Y-122570500D01*
X127042833Y-122570500D01*
X127787441Y-122530814D01*
X128528882Y-122451554D01*
X129265054Y-122332946D01*
X129993870Y-122175325D01*
X130713264Y-121979139D01*
X130713283Y-121979132D01*
X130713289Y-121979131D01*
X131421170Y-121744952D01*
X131421171Y-121744951D01*
X131421197Y-121744943D01*
X132115663Y-121473401D01*
X132794691Y-121165283D01*
X133456359Y-120821462D01*
X134098790Y-120442913D01*
X134720164Y-120030709D01*
X134720168Y-120030705D01*
X134720174Y-120030702D01*
X135318686Y-119586043D01*
X135318691Y-119586038D01*
X135318718Y-119586019D01*
X135892757Y-119110102D01*
X136440652Y-118604308D01*
X136960852Y-118070071D01*
X137451881Y-117508905D01*
X137907526Y-116928543D01*
X137912327Y-116922428D01*
X137912338Y-116922414D01*
X137912339Y-116922411D01*
X137912348Y-116922401D01*
X138340947Y-116312221D01*
X138736464Y-115680095D01*
X139097777Y-115027814D01*
X139423862Y-114357228D01*
X139713794Y-113670237D01*
X139966753Y-112968790D01*
X140182021Y-112254873D01*
X140182021Y-112254872D01*
X140182024Y-112254863D01*
X140182024Y-112254861D01*
X140218096Y-112107209D01*
X140343932Y-111592135D01*
X177849500Y-111592135D01*
X177849500Y-114687870D01*
X177849501Y-114687876D01*
X177855908Y-114747483D01*
X177906202Y-114882328D01*
X177906206Y-114882335D01*
X177992452Y-114997544D01*
X177992455Y-114997547D01*
X178107664Y-115083793D01*
X178107671Y-115083797D01*
X178242517Y-115134091D01*
X178242516Y-115134091D01*
X178249444Y-115134835D01*
X178302127Y-115140500D01*
X181397872Y-115140499D01*
X181457483Y-115134091D01*
X181592331Y-115083796D01*
X181707546Y-114997546D01*
X181793796Y-114882331D01*
X181844091Y-114747483D01*
X181850500Y-114687873D01*
X181850499Y-111592128D01*
X181844091Y-111532517D01*
X181843343Y-111530512D01*
X181793797Y-111397671D01*
X181793793Y-111397664D01*
X181707547Y-111282455D01*
X181707544Y-111282452D01*
X181592335Y-111196206D01*
X181592328Y-111196202D01*
X181457482Y-111145908D01*
X181457483Y-111145908D01*
X181397883Y-111139501D01*
X181397881Y-111139500D01*
X181397873Y-111139500D01*
X181397864Y-111139500D01*
X178302129Y-111139500D01*
X178302123Y-111139501D01*
X178242516Y-111145908D01*
X178107671Y-111196202D01*
X178107664Y-111196206D01*
X177992455Y-111282452D01*
X177992452Y-111282455D01*
X177906206Y-111397664D01*
X177906202Y-111397671D01*
X177855908Y-111532517D01*
X177849501Y-111592116D01*
X177849501Y-111592123D01*
X177849500Y-111592135D01*
X140343932Y-111592135D01*
X140358987Y-111530512D01*
X140497150Y-110797758D01*
X140596119Y-110058689D01*
X140655613Y-109315401D01*
X140675463Y-108570000D01*
X140661882Y-108059998D01*
X177844891Y-108059998D01*
X177844891Y-108060001D01*
X177865300Y-108345362D01*
X177926109Y-108624895D01*
X178026091Y-108892958D01*
X178163191Y-109144038D01*
X178163196Y-109144046D01*
X178269882Y-109286562D01*
X178269883Y-109286563D01*
X179164768Y-108391678D01*
X179176497Y-108419995D01*
X179259670Y-108544472D01*
X179365528Y-108650330D01*
X179490005Y-108733503D01*
X179518320Y-108745231D01*
X178623435Y-109640115D01*
X178623436Y-109640116D01*
X178765953Y-109746803D01*
X178765961Y-109746808D01*
X179017042Y-109883908D01*
X179017041Y-109883908D01*
X179285104Y-109983890D01*
X179564637Y-110044699D01*
X179849999Y-110065109D01*
X179850001Y-110065109D01*
X180135362Y-110044699D01*
X180414895Y-109983890D01*
X180682958Y-109883908D01*
X180934038Y-109746808D01*
X180934039Y-109746807D01*
X181076563Y-109640115D01*
X180181679Y-108745231D01*
X180209995Y-108733503D01*
X180334472Y-108650330D01*
X180440330Y-108544472D01*
X180523503Y-108419995D01*
X180535231Y-108391679D01*
X181430115Y-109286563D01*
X181536807Y-109144039D01*
X181536808Y-109144038D01*
X181673908Y-108892958D01*
X181773890Y-108624895D01*
X181834699Y-108345362D01*
X181855109Y-108060001D01*
X181855109Y-108059998D01*
X181834699Y-107774637D01*
X181773890Y-107495104D01*
X181673908Y-107227041D01*
X181536808Y-106975961D01*
X181536803Y-106975953D01*
X181430116Y-106833436D01*
X181430115Y-106833435D01*
X180535231Y-107728320D01*
X180523503Y-107700005D01*
X180440330Y-107575528D01*
X180334472Y-107469670D01*
X180209995Y-107386497D01*
X180181678Y-107374767D01*
X181076563Y-106479883D01*
X181076562Y-106479882D01*
X180934046Y-106373196D01*
X180934038Y-106373191D01*
X180682957Y-106236091D01*
X180682958Y-106236091D01*
X180414895Y-106136109D01*
X180135362Y-106075300D01*
X179850001Y-106054891D01*
X179849999Y-106054891D01*
X179564637Y-106075300D01*
X179285104Y-106136109D01*
X179017041Y-106236091D01*
X178765961Y-106373191D01*
X178765953Y-106373196D01*
X178623435Y-106479882D01*
X179518321Y-107374767D01*
X179490005Y-107386497D01*
X179365528Y-107469670D01*
X179259670Y-107575528D01*
X179176497Y-107700005D01*
X179164768Y-107728321D01*
X178269882Y-106833435D01*
X178163196Y-106975953D01*
X178163191Y-106975961D01*
X178026091Y-107227041D01*
X177926109Y-107495104D01*
X177865300Y-107774637D01*
X177844891Y-108059998D01*
X140661882Y-108059998D01*
X140655613Y-107824599D01*
X140596119Y-107081311D01*
X140497150Y-106342242D01*
X140358987Y-105609488D01*
X140218096Y-105032791D01*
X140182024Y-104885138D01*
X140182024Y-104885136D01*
X139966761Y-104171236D01*
X139966759Y-104171230D01*
X139966753Y-104171210D01*
X139713794Y-103469763D01*
X139423862Y-102782772D01*
X139097777Y-102112186D01*
X138736464Y-101459905D01*
X138340947Y-100827779D01*
X137912348Y-100217599D01*
X137912346Y-100217596D01*
X137912338Y-100217585D01*
X137912327Y-100217571D01*
X137467249Y-99650670D01*
X137451881Y-99631095D01*
X137212791Y-99357854D01*
X137146536Y-99282135D01*
X174234500Y-99282135D01*
X174234500Y-100877870D01*
X174234501Y-100877876D01*
X174240908Y-100937483D01*
X174291202Y-101072328D01*
X174291206Y-101072335D01*
X174377452Y-101187544D01*
X174377455Y-101187547D01*
X174492664Y-101273793D01*
X174492671Y-101273797D01*
X174627517Y-101324091D01*
X174627516Y-101324091D01*
X174634444Y-101324835D01*
X174687127Y-101330500D01*
X176282872Y-101330499D01*
X176342483Y-101324091D01*
X176477331Y-101273796D01*
X176592546Y-101187546D01*
X176678796Y-101072331D01*
X176729091Y-100937483D01*
X176735500Y-100877873D01*
X176735499Y-100079997D01*
X181849723Y-100079997D01*
X181849723Y-100080002D01*
X181868793Y-100297975D01*
X181868793Y-100297979D01*
X181925422Y-100509322D01*
X181925424Y-100509326D01*
X181925425Y-100509330D01*
X181935061Y-100529994D01*
X182017897Y-100707638D01*
X182017898Y-100707639D01*
X182143402Y-100886877D01*
X182298123Y-101041598D01*
X182477361Y-101167102D01*
X182675670Y-101259575D01*
X182887023Y-101316207D01*
X183069926Y-101332208D01*
X183104998Y-101335277D01*
X183105000Y-101335277D01*
X183105002Y-101335277D01*
X183133254Y-101332805D01*
X183322977Y-101316207D01*
X183534330Y-101259575D01*
X183732639Y-101167102D01*
X183911877Y-101041598D01*
X184066598Y-100886877D01*
X184192102Y-100707639D01*
X184284575Y-100509330D01*
X184341207Y-100297977D01*
X184360277Y-100080000D01*
X184341207Y-99862023D01*
X184284575Y-99650670D01*
X184192102Y-99452362D01*
X184192100Y-99452359D01*
X184192099Y-99452357D01*
X184066599Y-99273124D01*
X184012332Y-99218857D01*
X183911877Y-99118402D01*
X183732639Y-98992898D01*
X183732640Y-98992898D01*
X183732638Y-98992897D01*
X183633484Y-98946661D01*
X183534330Y-98900425D01*
X183534326Y-98900424D01*
X183534322Y-98900422D01*
X183322977Y-98843793D01*
X183105002Y-98824723D01*
X183104998Y-98824723D01*
X182977151Y-98835908D01*
X182887023Y-98843793D01*
X182887020Y-98843793D01*
X182675677Y-98900422D01*
X182675668Y-98900426D01*
X182477361Y-98992898D01*
X182477357Y-98992900D01*
X182298121Y-99118402D01*
X182143402Y-99273121D01*
X182017900Y-99452357D01*
X182017898Y-99452361D01*
X181925426Y-99650668D01*
X181925422Y-99650677D01*
X181868793Y-99862020D01*
X181868793Y-99862024D01*
X181849723Y-100079997D01*
X176735499Y-100079997D01*
X176735499Y-99282128D01*
X176729091Y-99222517D01*
X176713475Y-99180649D01*
X176678797Y-99087671D01*
X176678793Y-99087664D01*
X176592547Y-98972455D01*
X176592544Y-98972452D01*
X176477335Y-98886206D01*
X176477328Y-98886202D01*
X176342482Y-98835908D01*
X176342483Y-98835908D01*
X176282883Y-98829501D01*
X176282881Y-98829500D01*
X176282873Y-98829500D01*
X176282864Y-98829500D01*
X174687129Y-98829500D01*
X174687123Y-98829501D01*
X174627516Y-98835908D01*
X174492671Y-98886202D01*
X174492664Y-98886206D01*
X174377455Y-98972452D01*
X174377452Y-98972455D01*
X174291206Y-99087664D01*
X174291202Y-99087671D01*
X174240908Y-99222517D01*
X174235468Y-99273121D01*
X174234501Y-99282123D01*
X174234500Y-99282135D01*
X137146536Y-99282135D01*
X136960857Y-99069934D01*
X136440653Y-98535693D01*
X135892752Y-98029893D01*
X135892750Y-98029891D01*
X135318728Y-97553989D01*
X135318686Y-97553956D01*
X134720174Y-97109297D01*
X134098789Y-96697086D01*
X133814764Y-96529726D01*
X133456359Y-96318538D01*
X132914552Y-96037000D01*
X132794680Y-95974711D01*
X132115663Y-95666599D01*
X131983443Y-95614900D01*
X131421197Y-95395057D01*
X131421191Y-95395055D01*
X131421186Y-95395053D01*
X131421170Y-95395047D01*
X130713289Y-95160868D01*
X130713253Y-95160858D01*
X129993897Y-94964682D01*
X129993867Y-94964674D01*
X129265061Y-94807055D01*
X129265022Y-94807048D01*
X128528903Y-94688449D01*
X128528896Y-94688448D01*
X128528891Y-94688447D01*
X128528882Y-94688446D01*
X127787441Y-94609186D01*
X127787439Y-94609185D01*
X127787437Y-94609185D01*
X127042841Y-94569500D01*
X127042833Y-94569500D01*
X126297167Y-94569500D01*
X126297158Y-94569500D01*
X125552565Y-94609185D01*
X125200441Y-94646827D01*
X124811118Y-94688446D01*
X124811110Y-94688447D01*
X124811103Y-94688448D01*
X124811096Y-94688449D01*
X124074977Y-94807048D01*
X124074938Y-94807055D01*
X123346132Y-94964674D01*
X123346102Y-94964682D01*
X122626746Y-95160858D01*
X122626710Y-95160868D01*
X121918829Y-95395047D01*
X121918813Y-95395053D01*
X121224336Y-95666599D01*
X120545319Y-95974711D01*
X120326550Y-96088390D01*
X119883641Y-96318538D01*
X119883630Y-96318544D01*
X119883629Y-96318545D01*
X119241210Y-96697086D01*
X118619825Y-97109297D01*
X118021313Y-97553956D01*
X118021271Y-97553989D01*
X117447249Y-98029891D01*
X117447247Y-98029893D01*
X116899346Y-98535693D01*
X116379142Y-99069934D01*
X115888120Y-99631093D01*
X115427672Y-100217571D01*
X115427661Y-100217585D01*
X114999045Y-100827790D01*
X114999045Y-100827791D01*
X114603542Y-101459894D01*
X114242223Y-102112185D01*
X113916141Y-102782764D01*
X113626206Y-103469762D01*
X113373250Y-104171200D01*
X113373238Y-104171236D01*
X113157975Y-104885136D01*
X113157975Y-104885138D01*
X112981015Y-105609478D01*
X112981013Y-105609488D01*
X112980916Y-105610005D01*
X112842851Y-106342234D01*
X112842849Y-106342246D01*
X112743881Y-107081307D01*
X112684387Y-107824603D01*
X112684386Y-107824617D01*
X112664537Y-108569997D01*
X106110500Y-108569997D01*
X106110500Y-104475782D01*
X106130185Y-104408743D01*
X106146819Y-104388101D01*
X116188101Y-94346819D01*
X116249424Y-94313334D01*
X116275782Y-94310500D01*
X124198543Y-94310500D01*
X124229669Y-94304308D01*
X124307492Y-94288828D01*
X124391836Y-94272051D01*
X124472738Y-94238540D01*
X124573914Y-94196632D01*
X124737782Y-94087139D01*
X124877139Y-93947782D01*
X124877140Y-93947779D01*
X124884206Y-93940714D01*
X124884208Y-93940710D01*
X127888101Y-90936819D01*
X127949424Y-90903334D01*
X127975782Y-90900500D01*
X128134335Y-90900500D01*
X128379614Y-90859571D01*
X128614810Y-90778828D01*
X128833509Y-90660474D01*
X129029744Y-90507738D01*
X129188771Y-90334988D01*
X129248657Y-90298999D01*
X129318495Y-90301099D01*
X129371228Y-90334988D01*
X129530256Y-90507738D01*
X129726491Y-90660474D01*
X129726493Y-90660475D01*
X129944332Y-90778364D01*
X129945190Y-90778828D01*
X130027273Y-90807007D01*
X130178964Y-90859083D01*
X130180386Y-90859571D01*
X130425665Y-90900500D01*
X130674335Y-90900500D01*
X130919614Y-90859571D01*
X131154810Y-90778828D01*
X131373509Y-90660474D01*
X131569744Y-90507738D01*
X131738164Y-90324785D01*
X131738533Y-90324219D01*
X131738745Y-90324038D01*
X131741322Y-90320729D01*
X131742002Y-90321258D01*
X131791676Y-90278860D01*
X131855139Y-90268697D01*
X131866563Y-90269881D01*
X132607037Y-89529408D01*
X132624075Y-89592993D01*
X132689901Y-89707007D01*
X132782993Y-89800099D01*
X132897007Y-89865925D01*
X132960591Y-89882962D01*
X132219943Y-90623609D01*
X132266768Y-90660055D01*
X132266771Y-90660057D01*
X132485385Y-90778364D01*
X132485396Y-90778369D01*
X132720506Y-90859083D01*
X132965707Y-90900000D01*
X133214293Y-90900000D01*
X133459493Y-90859083D01*
X133694603Y-90778369D01*
X133694614Y-90778364D01*
X133913230Y-90660056D01*
X133913236Y-90660051D01*
X133960055Y-90623610D01*
X133960056Y-90623609D01*
X133836441Y-90499994D01*
X150404859Y-90499994D01*
X150404859Y-90500005D01*
X150425385Y-90747729D01*
X150425387Y-90747738D01*
X150486412Y-90988717D01*
X150586267Y-91216367D01*
X150686562Y-91369881D01*
X151427037Y-90629408D01*
X151444075Y-90692993D01*
X151509901Y-90807007D01*
X151602993Y-90900099D01*
X151717007Y-90965925D01*
X151780591Y-90982962D01*
X151039943Y-91723609D01*
X151086768Y-91760055D01*
X151086771Y-91760057D01*
X151305385Y-91878364D01*
X151305396Y-91878369D01*
X151540506Y-91959083D01*
X151785707Y-92000000D01*
X152034293Y-92000000D01*
X152279493Y-91959083D01*
X152514603Y-91878369D01*
X152514614Y-91878364D01*
X152733230Y-91760056D01*
X152733236Y-91760051D01*
X152780055Y-91723610D01*
X152780056Y-91723609D01*
X152039408Y-90982962D01*
X152102993Y-90965925D01*
X152217007Y-90900099D01*
X152310099Y-90807007D01*
X152375925Y-90692993D01*
X152392962Y-90629409D01*
X153133435Y-91369882D01*
X153233733Y-91216364D01*
X153333587Y-90988717D01*
X153394612Y-90747738D01*
X153394614Y-90747729D01*
X153415141Y-90500005D01*
X153415141Y-90499994D01*
X168404357Y-90499994D01*
X168404357Y-90500005D01*
X168424890Y-90747812D01*
X168424892Y-90747824D01*
X168485936Y-90988881D01*
X168585826Y-91216606D01*
X168721833Y-91424782D01*
X168721836Y-91424785D01*
X168890256Y-91607738D01*
X169086491Y-91760474D01*
X169086493Y-91760475D01*
X169304332Y-91878364D01*
X169305190Y-91878828D01*
X169524141Y-91953994D01*
X169538964Y-91959083D01*
X169540386Y-91959571D01*
X169785665Y-92000500D01*
X170034335Y-92000500D01*
X170279614Y-91959571D01*
X170514810Y-91878828D01*
X170733509Y-91760474D01*
X170929744Y-91607738D01*
X171098164Y-91424785D01*
X171234173Y-91216607D01*
X171334063Y-90988881D01*
X171395108Y-90747821D01*
X171402346Y-90660474D01*
X171415643Y-90500005D01*
X171415643Y-90499994D01*
X171395109Y-90252187D01*
X171395107Y-90252175D01*
X171334063Y-90011118D01*
X171234173Y-89783393D01*
X171098166Y-89575217D01*
X170978492Y-89445217D01*
X170929744Y-89392262D01*
X170733509Y-89239526D01*
X170733507Y-89239525D01*
X170733506Y-89239524D01*
X170514811Y-89121172D01*
X170514802Y-89121169D01*
X170279616Y-89040429D01*
X170034335Y-88999500D01*
X169785665Y-88999500D01*
X169540383Y-89040429D01*
X169305197Y-89121169D01*
X169305188Y-89121172D01*
X169086493Y-89239524D01*
X168890257Y-89392261D01*
X168721833Y-89575217D01*
X168585826Y-89783393D01*
X168485936Y-90011118D01*
X168424892Y-90252175D01*
X168424890Y-90252187D01*
X168404357Y-90499994D01*
X153415141Y-90499994D01*
X153394614Y-90252270D01*
X153394612Y-90252261D01*
X153333587Y-90011282D01*
X153233732Y-89783632D01*
X153133435Y-89630116D01*
X152392962Y-90370590D01*
X152375925Y-90307007D01*
X152310099Y-90192993D01*
X152217007Y-90099901D01*
X152102993Y-90034075D01*
X152039409Y-90017037D01*
X152780055Y-89276389D01*
X152780055Y-89276388D01*
X152733236Y-89239947D01*
X152733231Y-89239944D01*
X152514614Y-89121635D01*
X152514603Y-89121630D01*
X152279493Y-89040916D01*
X152034293Y-89000000D01*
X151785707Y-89000000D01*
X151540506Y-89040916D01*
X151305396Y-89121630D01*
X151305385Y-89121635D01*
X151086770Y-89239943D01*
X151039943Y-89276389D01*
X151780591Y-90017037D01*
X151717007Y-90034075D01*
X151602993Y-90099901D01*
X151509901Y-90192993D01*
X151444075Y-90307007D01*
X151427037Y-90370591D01*
X150686563Y-89630117D01*
X150586267Y-89783633D01*
X150586265Y-89783637D01*
X150486412Y-90011282D01*
X150425387Y-90252261D01*
X150425385Y-90252270D01*
X150404859Y-90499994D01*
X133836441Y-90499994D01*
X133219408Y-89882962D01*
X133282993Y-89865925D01*
X133397007Y-89800099D01*
X133490099Y-89707007D01*
X133555925Y-89592993D01*
X133572962Y-89529409D01*
X134313435Y-90269882D01*
X134413733Y-90116364D01*
X134513587Y-89888717D01*
X134574612Y-89647738D01*
X134574614Y-89647729D01*
X134595141Y-89400005D01*
X134595141Y-89399994D01*
X134574614Y-89152270D01*
X134574612Y-89152261D01*
X134513587Y-88911282D01*
X134413732Y-88683632D01*
X134313435Y-88530116D01*
X133572962Y-89270590D01*
X133555925Y-89207007D01*
X133490099Y-89092993D01*
X133397007Y-88999901D01*
X133282993Y-88934075D01*
X133219409Y-88917037D01*
X133960055Y-88176389D01*
X133960055Y-88176388D01*
X133913236Y-88139947D01*
X133913231Y-88139944D01*
X133694614Y-88021635D01*
X133694603Y-88021630D01*
X133459493Y-87940916D01*
X133214293Y-87900000D01*
X132965707Y-87900000D01*
X132720506Y-87940916D01*
X132485396Y-88021630D01*
X132485385Y-88021635D01*
X132266770Y-88139943D01*
X132219943Y-88176389D01*
X132960591Y-88917037D01*
X132897007Y-88934075D01*
X132782993Y-88999901D01*
X132689901Y-89092993D01*
X132624075Y-89207007D01*
X132607037Y-89270590D01*
X131866563Y-88530116D01*
X131855136Y-88531302D01*
X131786423Y-88518637D01*
X131741910Y-88478802D01*
X131741317Y-88479265D01*
X131738768Y-88475991D01*
X131738535Y-88475782D01*
X131738166Y-88475218D01*
X131738165Y-88475217D01*
X131738164Y-88475215D01*
X131569744Y-88292262D01*
X131373509Y-88139526D01*
X131373507Y-88139525D01*
X131373506Y-88139524D01*
X131154811Y-88021172D01*
X131154802Y-88021169D01*
X130919616Y-87940429D01*
X130674335Y-87899500D01*
X130515783Y-87899500D01*
X130448744Y-87879815D01*
X130428102Y-87863181D01*
X127224209Y-84659289D01*
X127224206Y-84659285D01*
X127224206Y-84659286D01*
X127217140Y-84652220D01*
X127217139Y-84652218D01*
X127077782Y-84512861D01*
X126938981Y-84420117D01*
X126913919Y-84403371D01*
X126913916Y-84403369D01*
X126913914Y-84403368D01*
X126913911Y-84403366D01*
X126913906Y-84403364D01*
X126783917Y-84349522D01*
X126731836Y-84327949D01*
X126731828Y-84327947D01*
X126614066Y-84304523D01*
X126588891Y-84299515D01*
X126538543Y-84289500D01*
X126538541Y-84289500D01*
X103002855Y-84289500D01*
X102935816Y-84269815D01*
X102911626Y-84249483D01*
X102849747Y-84182265D01*
X102849744Y-84182262D01*
X102849743Y-84182261D01*
X102766991Y-84117852D01*
X102726179Y-84061143D01*
X102722504Y-83991370D01*
X102757136Y-83930687D01*
X102766985Y-83922151D01*
X102849744Y-83857738D01*
X103018164Y-83674785D01*
X103154173Y-83466607D01*
X103254063Y-83238881D01*
X103315108Y-82997821D01*
X103335643Y-82750000D01*
X103330021Y-82682157D01*
X103315109Y-82502187D01*
X103315107Y-82502175D01*
X103254063Y-82261118D01*
X103154173Y-82033393D01*
X103018166Y-81825217D01*
X102953627Y-81755109D01*
X102849744Y-81642262D01*
X102761923Y-81573908D01*
X102746254Y-81561712D01*
X102705441Y-81505002D01*
X102698655Y-81456176D01*
X102700055Y-81433608D01*
X101959408Y-80692962D01*
X102022993Y-80675925D01*
X102137007Y-80610099D01*
X102230099Y-80517007D01*
X102295925Y-80402993D01*
X102312962Y-80339409D01*
X103053435Y-81079882D01*
X103153733Y-80926364D01*
X103253587Y-80698717D01*
X103314612Y-80457738D01*
X103314614Y-80457729D01*
X103335141Y-80210005D01*
X103335141Y-80209994D01*
X103314614Y-79962270D01*
X103314612Y-79962261D01*
X103253587Y-79721282D01*
X103153732Y-79493632D01*
X103053435Y-79340116D01*
X102312962Y-80080590D01*
X102295925Y-80017007D01*
X102230099Y-79902993D01*
X102137007Y-79809901D01*
X102022993Y-79744075D01*
X101959409Y-79727037D01*
X102700055Y-78986389D01*
X102698654Y-78963825D01*
X102714146Y-78895694D01*
X102746249Y-78858290D01*
X102849744Y-78777738D01*
X102877711Y-78747358D01*
X102911626Y-78710517D01*
X102971513Y-78674526D01*
X103002855Y-78670500D01*
X112428543Y-78670500D01*
X112538196Y-78648688D01*
X112593024Y-78637782D01*
X112621836Y-78632051D01*
X112675165Y-78609961D01*
X112803914Y-78556632D01*
X112967782Y-78447139D01*
X113107139Y-78307782D01*
X113107139Y-78307780D01*
X113117347Y-78297573D01*
X113117348Y-78297570D01*
X113212763Y-78202155D01*
X148350000Y-78202155D01*
X148350000Y-79500000D01*
X149630936Y-79500000D01*
X149619207Y-79528316D01*
X149590000Y-79675147D01*
X149590000Y-79824853D01*
X149619207Y-79971684D01*
X149630936Y-80000000D01*
X148350000Y-80000000D01*
X148350000Y-81297844D01*
X148356401Y-81357372D01*
X148356403Y-81357379D01*
X148406645Y-81492086D01*
X148406649Y-81492093D01*
X148492809Y-81607187D01*
X148492812Y-81607190D01*
X148607906Y-81693350D01*
X148607913Y-81693354D01*
X148742620Y-81743596D01*
X148742627Y-81743598D01*
X148802155Y-81749999D01*
X148802172Y-81750000D01*
X150100000Y-81750000D01*
X150100000Y-80469064D01*
X150128316Y-80480793D01*
X150275147Y-80510000D01*
X150424853Y-80510000D01*
X150571684Y-80480793D01*
X150600000Y-80469064D01*
X150600000Y-81750000D01*
X151897828Y-81750000D01*
X151897844Y-81749999D01*
X151957372Y-81743598D01*
X151957379Y-81743596D01*
X152092086Y-81693354D01*
X152092093Y-81693350D01*
X152207187Y-81607190D01*
X152207190Y-81607187D01*
X152293350Y-81492093D01*
X152293354Y-81492086D01*
X152343596Y-81357379D01*
X152343598Y-81357372D01*
X152349999Y-81297844D01*
X152350000Y-81297827D01*
X152350000Y-80000000D01*
X151069064Y-80000000D01*
X151080793Y-79971684D01*
X151110000Y-79824853D01*
X151110000Y-79749998D01*
X153424891Y-79749998D01*
X153424891Y-79750001D01*
X153445300Y-80035362D01*
X153506109Y-80314895D01*
X153606091Y-80582958D01*
X153743191Y-80834038D01*
X153743196Y-80834046D01*
X153849882Y-80976562D01*
X153849883Y-80976563D01*
X154744768Y-80081678D01*
X154756497Y-80109995D01*
X154839670Y-80234472D01*
X154945528Y-80340330D01*
X155070005Y-80423503D01*
X155098320Y-80435231D01*
X154203435Y-81330115D01*
X154203436Y-81330116D01*
X154345953Y-81436803D01*
X154345961Y-81436808D01*
X154597042Y-81573908D01*
X154597041Y-81573908D01*
X154865104Y-81673890D01*
X155144637Y-81734699D01*
X155429999Y-81755109D01*
X155430001Y-81755109D01*
X155715362Y-81734699D01*
X155994895Y-81673890D01*
X156262958Y-81573908D01*
X156514038Y-81436808D01*
X156514039Y-81436807D01*
X156656563Y-81330115D01*
X155761679Y-80435231D01*
X155789995Y-80423503D01*
X155914472Y-80340330D01*
X156020330Y-80234472D01*
X156103503Y-80109995D01*
X156115231Y-80081679D01*
X157010115Y-80976563D01*
X157116807Y-80834039D01*
X157116808Y-80834038D01*
X157253908Y-80582958D01*
X157353890Y-80314895D01*
X157414699Y-80035362D01*
X157435109Y-79750001D01*
X157435109Y-79749998D01*
X157414699Y-79464637D01*
X157353890Y-79185104D01*
X157253908Y-78917041D01*
X157116808Y-78665961D01*
X157116803Y-78665953D01*
X157010116Y-78523436D01*
X157010115Y-78523435D01*
X156115231Y-79418320D01*
X156103503Y-79390005D01*
X156020330Y-79265528D01*
X155914472Y-79159670D01*
X155789995Y-79076497D01*
X155761678Y-79064767D01*
X156656563Y-78169883D01*
X156656562Y-78169882D01*
X156514046Y-78063196D01*
X156514038Y-78063191D01*
X156365594Y-77982135D01*
X161539500Y-77982135D01*
X161539500Y-81077870D01*
X161539501Y-81077876D01*
X161545908Y-81137483D01*
X161596202Y-81272328D01*
X161596206Y-81272335D01*
X161682452Y-81387544D01*
X161682455Y-81387547D01*
X161797664Y-81473793D01*
X161797671Y-81473797D01*
X161932517Y-81524091D01*
X161932516Y-81524091D01*
X161939444Y-81524835D01*
X161992127Y-81530500D01*
X165087872Y-81530499D01*
X165147483Y-81524091D01*
X165282331Y-81473796D01*
X165397546Y-81387546D01*
X165483796Y-81272331D01*
X165534091Y-81137483D01*
X165540500Y-81077873D01*
X165540499Y-79529998D01*
X166614390Y-79529998D01*
X166614390Y-79530001D01*
X166634804Y-79815433D01*
X166695628Y-80095037D01*
X166695630Y-80095043D01*
X166695631Y-80095046D01*
X166795633Y-80363161D01*
X166795635Y-80363166D01*
X166932770Y-80614309D01*
X166932775Y-80614317D01*
X167104254Y-80843387D01*
X167104270Y-80843405D01*
X167306594Y-81045729D01*
X167306612Y-81045745D01*
X167535682Y-81217224D01*
X167535690Y-81217229D01*
X167786833Y-81354364D01*
X167786832Y-81354364D01*
X167786836Y-81354365D01*
X167786839Y-81354367D01*
X168054954Y-81454369D01*
X168054960Y-81454370D01*
X168054962Y-81454371D01*
X168334566Y-81515195D01*
X168334568Y-81515195D01*
X168334572Y-81515196D01*
X168588220Y-81533337D01*
X168619999Y-81535610D01*
X168620000Y-81535610D01*
X168620001Y-81535610D01*
X168648595Y-81533564D01*
X168905428Y-81515196D01*
X168952290Y-81505002D01*
X169185037Y-81454371D01*
X169185037Y-81454370D01*
X169185046Y-81454369D01*
X169453161Y-81354367D01*
X169704315Y-81217226D01*
X169933395Y-81045739D01*
X170135739Y-80843395D01*
X170307226Y-80614315D01*
X170444367Y-80363161D01*
X170544369Y-80095046D01*
X170573273Y-79962175D01*
X170605195Y-79815433D01*
X170605195Y-79815432D01*
X170605196Y-79815428D01*
X170625610Y-79530000D01*
X170605196Y-79244572D01*
X170574238Y-79102262D01*
X170544371Y-78964962D01*
X170544370Y-78964960D01*
X170544369Y-78964954D01*
X170444367Y-78696839D01*
X170427506Y-78665961D01*
X170307229Y-78445690D01*
X170307224Y-78445682D01*
X170135745Y-78216612D01*
X170135729Y-78216594D01*
X169933405Y-78014270D01*
X169933387Y-78014254D01*
X169704317Y-77842775D01*
X169704309Y-77842770D01*
X169453166Y-77705635D01*
X169453167Y-77705635D01*
X169345915Y-77665632D01*
X169185046Y-77605631D01*
X169185043Y-77605630D01*
X169185037Y-77605628D01*
X168905433Y-77544804D01*
X168620001Y-77524390D01*
X168619999Y-77524390D01*
X168334566Y-77544804D01*
X168054962Y-77605628D01*
X167786833Y-77705635D01*
X167535690Y-77842770D01*
X167535682Y-77842775D01*
X167306612Y-78014254D01*
X167306594Y-78014270D01*
X167104270Y-78216594D01*
X167104254Y-78216612D01*
X166932775Y-78445682D01*
X166932770Y-78445690D01*
X166795635Y-78696833D01*
X166695628Y-78964962D01*
X166634804Y-79244566D01*
X166614390Y-79529998D01*
X165540499Y-79529998D01*
X165540499Y-77982128D01*
X165534091Y-77922517D01*
X165532336Y-77917812D01*
X165483797Y-77787671D01*
X165483793Y-77787664D01*
X165397547Y-77672455D01*
X165397544Y-77672452D01*
X165282335Y-77586206D01*
X165282328Y-77586202D01*
X165147482Y-77535908D01*
X165147483Y-77535908D01*
X165087883Y-77529501D01*
X165087881Y-77529500D01*
X165087873Y-77529500D01*
X165087864Y-77529500D01*
X161992129Y-77529500D01*
X161992123Y-77529501D01*
X161932516Y-77535908D01*
X161797671Y-77586202D01*
X161797664Y-77586206D01*
X161682455Y-77672452D01*
X161682452Y-77672455D01*
X161596206Y-77787664D01*
X161596202Y-77787671D01*
X161545908Y-77922517D01*
X161539501Y-77982116D01*
X161539501Y-77982123D01*
X161539500Y-77982135D01*
X156365594Y-77982135D01*
X156262957Y-77926091D01*
X156262958Y-77926091D01*
X155994895Y-77826109D01*
X155715362Y-77765300D01*
X155430001Y-77744891D01*
X155429999Y-77744891D01*
X155144637Y-77765300D01*
X154865104Y-77826109D01*
X154597041Y-77926091D01*
X154345961Y-78063191D01*
X154345953Y-78063196D01*
X154203435Y-78169882D01*
X155098321Y-79064767D01*
X155070005Y-79076497D01*
X154945528Y-79159670D01*
X154839670Y-79265528D01*
X154756497Y-79390005D01*
X154744768Y-79418321D01*
X153849882Y-78523435D01*
X153743196Y-78665953D01*
X153743191Y-78665961D01*
X153606091Y-78917041D01*
X153506109Y-79185104D01*
X153445300Y-79464637D01*
X153424891Y-79749998D01*
X151110000Y-79749998D01*
X151110000Y-79675147D01*
X151080793Y-79528316D01*
X151069064Y-79500000D01*
X152350000Y-79500000D01*
X152350000Y-78202172D01*
X152349999Y-78202155D01*
X152343598Y-78142627D01*
X152343596Y-78142620D01*
X152293354Y-78007913D01*
X152293350Y-78007906D01*
X152207190Y-77892812D01*
X152207187Y-77892809D01*
X152092093Y-77806649D01*
X152092086Y-77806645D01*
X151957379Y-77756403D01*
X151957372Y-77756401D01*
X151897844Y-77750000D01*
X150600000Y-77750000D01*
X150600000Y-79030935D01*
X150571684Y-79019207D01*
X150424853Y-78990000D01*
X150275147Y-78990000D01*
X150128316Y-79019207D01*
X150100000Y-79030935D01*
X150100000Y-77750000D01*
X148802155Y-77750000D01*
X148742627Y-77756401D01*
X148742620Y-77756403D01*
X148607913Y-77806645D01*
X148607906Y-77806649D01*
X148492812Y-77892809D01*
X148492809Y-77892812D01*
X148406649Y-78007906D01*
X148406645Y-78007913D01*
X148356403Y-78142620D01*
X148356401Y-78142627D01*
X148350000Y-78202155D01*
X113212763Y-78202155D01*
X114777140Y-76637781D01*
X114886632Y-76473914D01*
X114962052Y-76291835D01*
X115000500Y-76098540D01*
X115000500Y-75901459D01*
X114962052Y-75708164D01*
X114886632Y-75526085D01*
X114886631Y-75526084D01*
X114886628Y-75526078D01*
X114777140Y-75362218D01*
X114777137Y-75362214D01*
X114637785Y-75222862D01*
X114637781Y-75222859D01*
X114473921Y-75113371D01*
X114473912Y-75113366D01*
X114291836Y-75037948D01*
X114291828Y-75037946D01*
X114098545Y-74999500D01*
X114098541Y-74999500D01*
X113901460Y-74999500D01*
X113901455Y-74999500D01*
X113708172Y-75037946D01*
X113708164Y-75037948D01*
X113526088Y-75113366D01*
X113526079Y-75113371D01*
X113362219Y-75222859D01*
X113362215Y-75222862D01*
X111951899Y-76633181D01*
X111890576Y-76666666D01*
X111864218Y-76669500D01*
X103002855Y-76669500D01*
X102935816Y-76649815D01*
X102911626Y-76629483D01*
X102849747Y-76562265D01*
X102849744Y-76562262D01*
X102736242Y-76473920D01*
X102653509Y-76409526D01*
X102653507Y-76409525D01*
X102653506Y-76409524D01*
X102434811Y-76291172D01*
X102434802Y-76291169D01*
X102199616Y-76210429D01*
X101954335Y-76169500D01*
X101705665Y-76169500D01*
X101460383Y-76210429D01*
X101225197Y-76291169D01*
X101225188Y-76291172D01*
X101006493Y-76409524D01*
X100810257Y-76562261D01*
X100641833Y-76745217D01*
X100505826Y-76953393D01*
X100405936Y-77181118D01*
X100344892Y-77422175D01*
X100344890Y-77422187D01*
X100324357Y-77669994D01*
X100324357Y-77670005D01*
X100344890Y-77917812D01*
X100344892Y-77917824D01*
X100405936Y-78158881D01*
X100505826Y-78386606D01*
X100641833Y-78594782D01*
X100641836Y-78594785D01*
X100810256Y-78777738D01*
X100887502Y-78837861D01*
X100913745Y-78858287D01*
X100954558Y-78914997D01*
X100961344Y-78963823D01*
X100959943Y-78986389D01*
X101700591Y-79727037D01*
X101637007Y-79744075D01*
X101522993Y-79809901D01*
X101429901Y-79902993D01*
X101364075Y-80017007D01*
X101347037Y-80080591D01*
X100606563Y-79340117D01*
X100506267Y-79493633D01*
X100506265Y-79493637D01*
X100406412Y-79721282D01*
X100345387Y-79962261D01*
X100345385Y-79962270D01*
X100324859Y-80209994D01*
X100324859Y-80210005D01*
X100345385Y-80457729D01*
X100345387Y-80457738D01*
X100406412Y-80698717D01*
X100506267Y-80926367D01*
X100606562Y-81079881D01*
X101347037Y-80339408D01*
X101364075Y-80402993D01*
X101429901Y-80517007D01*
X101522993Y-80610099D01*
X101637007Y-80675925D01*
X101700591Y-80692962D01*
X100959943Y-81433609D01*
X100961344Y-81456176D01*
X100945851Y-81524306D01*
X100913745Y-81561712D01*
X100810258Y-81642260D01*
X100641833Y-81825217D01*
X100505826Y-82033393D01*
X100405936Y-82261118D01*
X100344892Y-82502175D01*
X100344890Y-82502187D01*
X100324357Y-82749994D01*
X100324357Y-82750005D01*
X100344890Y-82997812D01*
X100344892Y-82997824D01*
X100405936Y-83238881D01*
X100505826Y-83466606D01*
X100641833Y-83674782D01*
X100641836Y-83674785D01*
X100810256Y-83857738D01*
X100893008Y-83922147D01*
X100933821Y-83978857D01*
X100937496Y-84048630D01*
X100902864Y-84109313D01*
X100893014Y-84117848D01*
X100878908Y-84128828D01*
X100810257Y-84182261D01*
X100641833Y-84365217D01*
X100505826Y-84573393D01*
X100405936Y-84801118D01*
X100344892Y-85042175D01*
X100344890Y-85042187D01*
X100329811Y-85224174D01*
X100324357Y-85290000D01*
X100326553Y-85316502D01*
X100312470Y-85384938D01*
X100290657Y-85414421D01*
X96312818Y-89392261D01*
X92342221Y-93362858D01*
X92342218Y-93362861D01*
X92306198Y-93398881D01*
X92202859Y-93502219D01*
X92093371Y-93666079D01*
X92093366Y-93666089D01*
X92040018Y-93794882D01*
X92039338Y-93796527D01*
X92039295Y-93796632D01*
X92017949Y-93848164D01*
X92017947Y-93848170D01*
X91979500Y-94041456D01*
X91979500Y-94041459D01*
X91979500Y-116188541D01*
X91979500Y-116188543D01*
X91979499Y-116188543D01*
X92017947Y-116381829D01*
X92017950Y-116381839D01*
X92093364Y-116563907D01*
X92093371Y-116563920D01*
X92202860Y-116727781D01*
X92202863Y-116727785D01*
X92342214Y-116867136D01*
X92342218Y-116867139D01*
X92506079Y-116976628D01*
X92506092Y-116976635D01*
X92688160Y-117052049D01*
X92688165Y-117052051D01*
X92688169Y-117052051D01*
X92688170Y-117052052D01*
X92881456Y-117090500D01*
X92881459Y-117090500D01*
X93078543Y-117090500D01*
X93208582Y-117064632D01*
X93271835Y-117052051D01*
X93453914Y-116976632D01*
X93617782Y-116867139D01*
X93757139Y-116727782D01*
X93866632Y-116563914D01*
X93942051Y-116381835D01*
X93964445Y-116269255D01*
X93980500Y-116188543D01*
X93980500Y-94605781D01*
X94000185Y-94538742D01*
X94016814Y-94518105D01*
X100219705Y-88315213D01*
X100281026Y-88281730D01*
X100350718Y-88286714D01*
X100406651Y-88328586D01*
X100420940Y-88353086D01*
X100505826Y-88546606D01*
X100641833Y-88754782D01*
X100641836Y-88754785D01*
X100810256Y-88937738D01*
X100893008Y-89002147D01*
X100933821Y-89058857D01*
X100937496Y-89128630D01*
X100902864Y-89189313D01*
X100893014Y-89197848D01*
X100881248Y-89207007D01*
X100810257Y-89262261D01*
X100641833Y-89445217D01*
X100505826Y-89653393D01*
X100405936Y-89881118D01*
X100344892Y-90122175D01*
X100344890Y-90122187D01*
X100324357Y-90369994D01*
X100324357Y-90370005D01*
X100344890Y-90617812D01*
X100344892Y-90617824D01*
X100405936Y-90858881D01*
X100505826Y-91086606D01*
X100641833Y-91294782D01*
X100641836Y-91294785D01*
X100810256Y-91477738D01*
X100893008Y-91542147D01*
X100933821Y-91598857D01*
X100937496Y-91668630D01*
X100902864Y-91729313D01*
X100893014Y-91737848D01*
X100863944Y-91760475D01*
X100810257Y-91802261D01*
X100641833Y-91985217D01*
X100505826Y-92193393D01*
X100405936Y-92421118D01*
X100344892Y-92662175D01*
X100344890Y-92662187D01*
X100324357Y-92909994D01*
X100324357Y-92910005D01*
X100344890Y-93157812D01*
X100344892Y-93157824D01*
X100405936Y-93398881D01*
X100505826Y-93626606D01*
X100641833Y-93834782D01*
X100641836Y-93834785D01*
X100810256Y-94017738D01*
X100893008Y-94082147D01*
X100933821Y-94138857D01*
X100937496Y-94208630D01*
X100902864Y-94269313D01*
X100893014Y-94277848D01*
X100878908Y-94288828D01*
X100810257Y-94342261D01*
X100641833Y-94525217D01*
X100505826Y-94733393D01*
X100405936Y-94961118D01*
X100344892Y-95202175D01*
X100344890Y-95202187D01*
X100324357Y-95449994D01*
X100324357Y-95450005D01*
X100344890Y-95697812D01*
X100344892Y-95697824D01*
X100405936Y-95938881D01*
X100505826Y-96166606D01*
X100641833Y-96374782D01*
X100641836Y-96374785D01*
X100810256Y-96557738D01*
X100893008Y-96622147D01*
X100933821Y-96678857D01*
X100937496Y-96748630D01*
X100902864Y-96809313D01*
X100893014Y-96817848D01*
X100834400Y-96863469D01*
X100810257Y-96882261D01*
X100641833Y-97065217D01*
X100505826Y-97273393D01*
X100405936Y-97501118D01*
X100344892Y-97742175D01*
X100344890Y-97742187D01*
X100324357Y-97989994D01*
X100324357Y-97990005D01*
X100344890Y-98237812D01*
X100344892Y-98237824D01*
X100405936Y-98478881D01*
X100505826Y-98706606D01*
X100641833Y-98914782D01*
X100641836Y-98914785D01*
X100810256Y-99097738D01*
X100893008Y-99162147D01*
X100933821Y-99218857D01*
X100937496Y-99288630D01*
X100902864Y-99349313D01*
X100893014Y-99357848D01*
X100834400Y-99403469D01*
X100810257Y-99422261D01*
X100641833Y-99605217D01*
X100505826Y-99813393D01*
X100405936Y-100041118D01*
X100344892Y-100282175D01*
X100344890Y-100282187D01*
X100324357Y-100529994D01*
X100324357Y-100530005D01*
X100344890Y-100777812D01*
X100344892Y-100777824D01*
X100405936Y-101018881D01*
X100505826Y-101246606D01*
X100641833Y-101454782D01*
X100641836Y-101454785D01*
X100810256Y-101637738D01*
X100893008Y-101702147D01*
X100933821Y-101758857D01*
X100937496Y-101828630D01*
X100902864Y-101889313D01*
X100893014Y-101897848D01*
X100834400Y-101943469D01*
X100810257Y-101962261D01*
X100641833Y-102145217D01*
X100505826Y-102353393D01*
X100405936Y-102581118D01*
X100344892Y-102822175D01*
X100344890Y-102822187D01*
X100324357Y-103069994D01*
X100324357Y-103070005D01*
X100344890Y-103317812D01*
X100344892Y-103317824D01*
X100405936Y-103558881D01*
X100505826Y-103786606D01*
X100641833Y-103994782D01*
X100641836Y-103994785D01*
X100810256Y-104177738D01*
X100893008Y-104242147D01*
X100933821Y-104298857D01*
X100937496Y-104368630D01*
X100902864Y-104429313D01*
X100893014Y-104437848D01*
X100834400Y-104483469D01*
X100810257Y-104502261D01*
X100641833Y-104685217D01*
X100505826Y-104893393D01*
X100405936Y-105121118D01*
X100344892Y-105362175D01*
X100344890Y-105362187D01*
X100324357Y-105609994D01*
X100324357Y-105610005D01*
X100344890Y-105857812D01*
X100344892Y-105857824D01*
X100405936Y-106098881D01*
X100505826Y-106326606D01*
X100641833Y-106534782D01*
X100641836Y-106534785D01*
X100810256Y-106717738D01*
X100893008Y-106782147D01*
X100933821Y-106838857D01*
X100937496Y-106908630D01*
X100902864Y-106969313D01*
X100893014Y-106977848D01*
X100865540Y-106999233D01*
X100810257Y-107042261D01*
X100641833Y-107225217D01*
X100505826Y-107433393D01*
X100405936Y-107661118D01*
X100344892Y-107902175D01*
X100344890Y-107902187D01*
X100324357Y-108149994D01*
X100324357Y-108150005D01*
X100344890Y-108397812D01*
X100344892Y-108397824D01*
X100405936Y-108638881D01*
X100505826Y-108866606D01*
X100641833Y-109074782D01*
X100641836Y-109074785D01*
X100810256Y-109257738D01*
X100893008Y-109322147D01*
X100933821Y-109378857D01*
X100937496Y-109448630D01*
X100902864Y-109509313D01*
X100893014Y-109517848D01*
X100834400Y-109563469D01*
X100810257Y-109582261D01*
X100641833Y-109765217D01*
X100505826Y-109973393D01*
X100405936Y-110201118D01*
X100344892Y-110442175D01*
X100344890Y-110442187D01*
X100324357Y-110689994D01*
X100324357Y-110690005D01*
X100344890Y-110937812D01*
X100344892Y-110937824D01*
X100405936Y-111178881D01*
X100505826Y-111406606D01*
X100641833Y-111614782D01*
X100641836Y-111614785D01*
X100810256Y-111797738D01*
X100893008Y-111862147D01*
X100933821Y-111918857D01*
X100937496Y-111988630D01*
X100902864Y-112049313D01*
X100893014Y-112057848D01*
X100841222Y-112098160D01*
X100810257Y-112122261D01*
X100641833Y-112305217D01*
X100505826Y-112513393D01*
X100405936Y-112741118D01*
X100344892Y-112982175D01*
X100344890Y-112982187D01*
X100324357Y-113229994D01*
X100324357Y-113230005D01*
X100344890Y-113477812D01*
X100344892Y-113477824D01*
X100405936Y-113718881D01*
X100505826Y-113946606D01*
X100641833Y-114154782D01*
X100641836Y-114154785D01*
X100810256Y-114337738D01*
X101006491Y-114490474D01*
X101225190Y-114608828D01*
X101460386Y-114689571D01*
X101705665Y-114730500D01*
X101954335Y-114730500D01*
X102199614Y-114689571D01*
X102434810Y-114608828D01*
X102653509Y-114490474D01*
X102849744Y-114337738D01*
X103018164Y-114154785D01*
X103154173Y-113946607D01*
X103254063Y-113718881D01*
X103315108Y-113477821D01*
X103328701Y-113313780D01*
X103335643Y-113230005D01*
X103335643Y-113229994D01*
X103315109Y-112982187D01*
X103315107Y-112982175D01*
X103254063Y-112741118D01*
X103154173Y-112513393D01*
X103018166Y-112305217D01*
X102971810Y-112254861D01*
X102849744Y-112122262D01*
X102766991Y-112057852D01*
X102726179Y-112001143D01*
X102722504Y-111931370D01*
X102757136Y-111870687D01*
X102766985Y-111862151D01*
X102849744Y-111797738D01*
X103018164Y-111614785D01*
X103154173Y-111406607D01*
X103254063Y-111178881D01*
X103315108Y-110937821D01*
X103315109Y-110937812D01*
X103335643Y-110690005D01*
X103335643Y-110689994D01*
X103315109Y-110442187D01*
X103315107Y-110442175D01*
X103254063Y-110201118D01*
X103154173Y-109973393D01*
X103018166Y-109765217D01*
X102903001Y-109640115D01*
X102849744Y-109582262D01*
X102766991Y-109517852D01*
X102726179Y-109461143D01*
X102722504Y-109391370D01*
X102757136Y-109330687D01*
X102766985Y-109322151D01*
X102849744Y-109257738D01*
X103018164Y-109074785D01*
X103154173Y-108866607D01*
X103254063Y-108638881D01*
X103315108Y-108397821D01*
X103318058Y-108362218D01*
X103335643Y-108150005D01*
X103335643Y-108149994D01*
X103315109Y-107902187D01*
X103315107Y-107902175D01*
X103254063Y-107661118D01*
X103154173Y-107433393D01*
X103018166Y-107225217D01*
X102939670Y-107139948D01*
X102849744Y-107042262D01*
X102766991Y-106977852D01*
X102726179Y-106921143D01*
X102722504Y-106851370D01*
X102757136Y-106790687D01*
X102766985Y-106782151D01*
X102849744Y-106717738D01*
X103018164Y-106534785D01*
X103154173Y-106326607D01*
X103254063Y-106098881D01*
X103315108Y-105857821D01*
X103335643Y-105610000D01*
X103320684Y-105429474D01*
X103315109Y-105362187D01*
X103315107Y-105362175D01*
X103254063Y-105121118D01*
X103154173Y-104893393D01*
X103018166Y-104685217D01*
X102996557Y-104661744D01*
X102849744Y-104502262D01*
X102766991Y-104437852D01*
X102726179Y-104381143D01*
X102722504Y-104311370D01*
X102757136Y-104250687D01*
X102766985Y-104242151D01*
X102849744Y-104177738D01*
X103018164Y-103994785D01*
X103154173Y-103786607D01*
X103254063Y-103558881D01*
X103315108Y-103317821D01*
X103322148Y-103232861D01*
X103335643Y-103070005D01*
X103335643Y-103069994D01*
X103315109Y-102822187D01*
X103315107Y-102822175D01*
X103254063Y-102581118D01*
X103154173Y-102353393D01*
X103018166Y-102145217D01*
X102987758Y-102112185D01*
X102849744Y-101962262D01*
X102766991Y-101897852D01*
X102726179Y-101841143D01*
X102722504Y-101771370D01*
X102757136Y-101710687D01*
X102766985Y-101702151D01*
X102849744Y-101637738D01*
X103018164Y-101454785D01*
X103154173Y-101246607D01*
X103254063Y-101018881D01*
X103315108Y-100777821D01*
X103315109Y-100777812D01*
X103335643Y-100530005D01*
X103335643Y-100529994D01*
X103315109Y-100282187D01*
X103315107Y-100282175D01*
X103254063Y-100041118D01*
X103154173Y-99813393D01*
X103018166Y-99605217D01*
X102996557Y-99581744D01*
X102849744Y-99422262D01*
X102766991Y-99357852D01*
X102726179Y-99301143D01*
X102722504Y-99231370D01*
X102757136Y-99170687D01*
X102766985Y-99162151D01*
X102849744Y-99097738D01*
X103018164Y-98914785D01*
X103154173Y-98706607D01*
X103254063Y-98478881D01*
X103315108Y-98237821D01*
X103332337Y-98029898D01*
X103335643Y-97990005D01*
X103335643Y-97989994D01*
X103315109Y-97742187D01*
X103315107Y-97742175D01*
X103254063Y-97501118D01*
X103154173Y-97273393D01*
X103018166Y-97065217D01*
X102996557Y-97041744D01*
X102849744Y-96882262D01*
X102766991Y-96817852D01*
X102726179Y-96761143D01*
X102722504Y-96691370D01*
X102757136Y-96630687D01*
X102766985Y-96622151D01*
X102849744Y-96557738D01*
X103018164Y-96374785D01*
X103154173Y-96166607D01*
X103254063Y-95938881D01*
X103315108Y-95697821D01*
X103335643Y-95450000D01*
X103331090Y-95395057D01*
X103315109Y-95202187D01*
X103315107Y-95202175D01*
X103254063Y-94961118D01*
X103154173Y-94733393D01*
X103018166Y-94525217D01*
X102996557Y-94501744D01*
X102849744Y-94342262D01*
X102766991Y-94277852D01*
X102726179Y-94221143D01*
X102722504Y-94151370D01*
X102757136Y-94090687D01*
X102766985Y-94082151D01*
X102849744Y-94017738D01*
X103018164Y-93834785D01*
X103154173Y-93626607D01*
X103254063Y-93398881D01*
X103315108Y-93157821D01*
X103335643Y-92910000D01*
X103315108Y-92662179D01*
X103282360Y-92532859D01*
X103254063Y-92421118D01*
X103154173Y-92193393D01*
X103018166Y-91985217D01*
X102994108Y-91959083D01*
X102849744Y-91802262D01*
X102766991Y-91737852D01*
X102726179Y-91681143D01*
X102722504Y-91611370D01*
X102757136Y-91550687D01*
X102766985Y-91542151D01*
X102849744Y-91477738D01*
X103018164Y-91294785D01*
X103154173Y-91086607D01*
X103254063Y-90858881D01*
X103315108Y-90617821D01*
X103315109Y-90617812D01*
X103335643Y-90370005D01*
X103335643Y-90369994D01*
X103315109Y-90122187D01*
X103315107Y-90122175D01*
X103254063Y-89881118D01*
X103154173Y-89653393D01*
X103018166Y-89445217D01*
X102976545Y-89400005D01*
X102849744Y-89262262D01*
X102766991Y-89197852D01*
X102726179Y-89141143D01*
X102722504Y-89071370D01*
X102757136Y-89010687D01*
X102766985Y-89002151D01*
X102849744Y-88937738D01*
X103018164Y-88754785D01*
X103154173Y-88546607D01*
X103254063Y-88318881D01*
X103315108Y-88077821D01*
X103319802Y-88021172D01*
X103335643Y-87830005D01*
X103335643Y-87829994D01*
X103315109Y-87582187D01*
X103315107Y-87582175D01*
X103254063Y-87341118D01*
X103154173Y-87113393D01*
X103018166Y-86905217D01*
X102996557Y-86881744D01*
X102849744Y-86722262D01*
X102766991Y-86657852D01*
X102726179Y-86601143D01*
X102722504Y-86531370D01*
X102757136Y-86470687D01*
X102766985Y-86462151D01*
X102849744Y-86397738D01*
X102874884Y-86370429D01*
X102911626Y-86330517D01*
X102971513Y-86294526D01*
X103002855Y-86290500D01*
X125974218Y-86290500D01*
X126041257Y-86310185D01*
X126061899Y-86326819D01*
X127526069Y-87790990D01*
X127559554Y-87852313D01*
X127554570Y-87922005D01*
X127512698Y-87977938D01*
X127478651Y-87995952D01*
X127405197Y-88021169D01*
X127405188Y-88021172D01*
X127186493Y-88139524D01*
X127139129Y-88176389D01*
X126990256Y-88292262D01*
X126961422Y-88323583D01*
X126831230Y-88465010D01*
X126771342Y-88501001D01*
X126701504Y-88498900D01*
X126648770Y-88465010D01*
X126545736Y-88353086D01*
X126489744Y-88292262D01*
X126293509Y-88139526D01*
X126293507Y-88139525D01*
X126293506Y-88139524D01*
X126074811Y-88021172D01*
X126074802Y-88021169D01*
X125839616Y-87940429D01*
X125594335Y-87899500D01*
X125345665Y-87899500D01*
X125100383Y-87940429D01*
X124865197Y-88021169D01*
X124865188Y-88021172D01*
X124646493Y-88139524D01*
X124599129Y-88176389D01*
X124450256Y-88292262D01*
X124421422Y-88323583D01*
X124291230Y-88465010D01*
X124231342Y-88501001D01*
X124161504Y-88498900D01*
X124108770Y-88465010D01*
X124005736Y-88353086D01*
X123949744Y-88292262D01*
X123753509Y-88139526D01*
X123753507Y-88139525D01*
X123753506Y-88139524D01*
X123534811Y-88021172D01*
X123534802Y-88021169D01*
X123299616Y-87940429D01*
X123054335Y-87899500D01*
X122805665Y-87899500D01*
X122560383Y-87940429D01*
X122325197Y-88021169D01*
X122325188Y-88021172D01*
X122106493Y-88139524D01*
X122059129Y-88176389D01*
X121910256Y-88292262D01*
X121881422Y-88323583D01*
X121751230Y-88465010D01*
X121691342Y-88501001D01*
X121621504Y-88498900D01*
X121568770Y-88465010D01*
X121465736Y-88353086D01*
X121409744Y-88292262D01*
X121213509Y-88139526D01*
X121213507Y-88139525D01*
X121213506Y-88139524D01*
X120994811Y-88021172D01*
X120994802Y-88021169D01*
X120759616Y-87940429D01*
X120514335Y-87899500D01*
X120265665Y-87899500D01*
X120020383Y-87940429D01*
X119785197Y-88021169D01*
X119785188Y-88021172D01*
X119566493Y-88139524D01*
X119370257Y-88292261D01*
X119201833Y-88475217D01*
X119065826Y-88683393D01*
X118965936Y-88911118D01*
X118904892Y-89152175D01*
X118904890Y-89152187D01*
X118884357Y-89399994D01*
X118884357Y-89400005D01*
X118904890Y-89647812D01*
X118904892Y-89647824D01*
X118965936Y-89888881D01*
X119065826Y-90116606D01*
X119201833Y-90324782D01*
X119201836Y-90324785D01*
X119370256Y-90507738D01*
X119566491Y-90660474D01*
X119566493Y-90660475D01*
X119784332Y-90778364D01*
X119785190Y-90778828D01*
X119867273Y-90807007D01*
X120018964Y-90859083D01*
X120020386Y-90859571D01*
X120265665Y-90900500D01*
X120514335Y-90900500D01*
X120759614Y-90859571D01*
X120994810Y-90778828D01*
X121213509Y-90660474D01*
X121409744Y-90507738D01*
X121568771Y-90334988D01*
X121628657Y-90298999D01*
X121698495Y-90301099D01*
X121751228Y-90334988D01*
X121910256Y-90507738D01*
X122106491Y-90660474D01*
X122106493Y-90660475D01*
X122324332Y-90778364D01*
X122325190Y-90778828D01*
X122407273Y-90807007D01*
X122558964Y-90859083D01*
X122560386Y-90859571D01*
X122805665Y-90900500D01*
X123054335Y-90900500D01*
X123299614Y-90859571D01*
X123534810Y-90778828D01*
X123753509Y-90660474D01*
X123949744Y-90507738D01*
X124108771Y-90334988D01*
X124168657Y-90298999D01*
X124238495Y-90301099D01*
X124291228Y-90334988D01*
X124450256Y-90507738D01*
X124646491Y-90660474D01*
X124865190Y-90778828D01*
X124938652Y-90804047D01*
X124995666Y-90844432D01*
X125021797Y-90909231D01*
X125008746Y-90977871D01*
X124986069Y-91009009D01*
X123721899Y-92273181D01*
X123660576Y-92306666D01*
X123634218Y-92309500D01*
X115711455Y-92309500D01*
X115614812Y-92328724D01*
X115518167Y-92347947D01*
X115518161Y-92347949D01*
X115464834Y-92370037D01*
X115464834Y-92370038D01*
X115419315Y-92388892D01*
X115336089Y-92423366D01*
X115336079Y-92423371D01*
X115172219Y-92532859D01*
X115102540Y-92602538D01*
X115032861Y-92672218D01*
X115032858Y-92672221D01*
X104472221Y-103232858D01*
X104472218Y-103232861D01*
X104402538Y-103302540D01*
X104332859Y-103372219D01*
X104223371Y-103536079D01*
X104223366Y-103536089D01*
X104170037Y-103664836D01*
X104170036Y-103664835D01*
X104152249Y-103707782D01*
X104152248Y-103707786D01*
X104147949Y-103718163D01*
X104147947Y-103718171D01*
X104109500Y-103911454D01*
X104109500Y-116364217D01*
X104089815Y-116431256D01*
X104073181Y-116451898D01*
X101391899Y-119133181D01*
X101330576Y-119166666D01*
X101304218Y-119169500D01*
X95414399Y-119169500D01*
X95347360Y-119149815D01*
X95301605Y-119097011D01*
X95291661Y-119027853D01*
X95320686Y-118964297D01*
X95366946Y-118930939D01*
X95473914Y-118886631D01*
X95637781Y-118777139D01*
X97637778Y-116777141D01*
X97637782Y-116777139D01*
X97777139Y-116637782D01*
X97886632Y-116473914D01*
X97924771Y-116381839D01*
X97962049Y-116291840D01*
X97962049Y-116291839D01*
X97962051Y-116291835D01*
X97966543Y-116269255D01*
X98000500Y-116098540D01*
X98000500Y-115901460D01*
X98000500Y-108901459D01*
X98000500Y-108901456D01*
X97962052Y-108708170D01*
X97962051Y-108708169D01*
X97962051Y-108708165D01*
X97927560Y-108624895D01*
X97886635Y-108526092D01*
X97886628Y-108526079D01*
X97777139Y-108362218D01*
X97777136Y-108362214D01*
X97637785Y-108222863D01*
X97637781Y-108222860D01*
X97473920Y-108113371D01*
X97473907Y-108113364D01*
X97291839Y-108037950D01*
X97291829Y-108037947D01*
X97098543Y-107999500D01*
X97098541Y-107999500D01*
X96901459Y-107999500D01*
X96901457Y-107999500D01*
X96708170Y-108037947D01*
X96708160Y-108037950D01*
X96526092Y-108113364D01*
X96526079Y-108113371D01*
X96362218Y-108222860D01*
X96362214Y-108222863D01*
X96222863Y-108362214D01*
X96222860Y-108362218D01*
X96113371Y-108526079D01*
X96113364Y-108526092D01*
X96037950Y-108708160D01*
X96037947Y-108708170D01*
X95999500Y-108901456D01*
X95999500Y-115534217D01*
X95979815Y-115601256D01*
X95963181Y-115621898D01*
X94222863Y-117362215D01*
X94222860Y-117362219D01*
X94113372Y-117526079D01*
X94113367Y-117526089D01*
X94037949Y-117708163D01*
X94037947Y-117708171D01*
X93999500Y-117901455D01*
X93999500Y-118098544D01*
X94037947Y-118291828D01*
X94037949Y-118291836D01*
X94113367Y-118473910D01*
X94113372Y-118473920D01*
X94222860Y-118637780D01*
X94222863Y-118637784D01*
X94362215Y-118777136D01*
X94362219Y-118777139D01*
X94526079Y-118886627D01*
X94526083Y-118886629D01*
X94526086Y-118886631D01*
X94594574Y-118915000D01*
X94633054Y-118930939D01*
X94687457Y-118974780D01*
X94709522Y-119041074D01*
X94692243Y-119108774D01*
X94641105Y-119156384D01*
X94585601Y-119169500D01*
X90265782Y-119169500D01*
X90198743Y-119149815D01*
X90178101Y-119133181D01*
X89426819Y-118381899D01*
X89393334Y-118320576D01*
X89390500Y-118294218D01*
X89390500Y-114931456D01*
X89369687Y-114826830D01*
X89355813Y-114757078D01*
X89352051Y-114738164D01*
X89298478Y-114608828D01*
X89277252Y-114557584D01*
X89276635Y-114556093D01*
X89276634Y-114556092D01*
X89276632Y-114556086D01*
X89167139Y-114392218D01*
X89027782Y-114252861D01*
X89027781Y-114252860D01*
X88129341Y-113354421D01*
X88095857Y-113293099D01*
X88093447Y-113256499D01*
X88095643Y-113230003D01*
X88095643Y-113229995D01*
X88075109Y-112982187D01*
X88075107Y-112982175D01*
X88014063Y-112741118D01*
X87914173Y-112513393D01*
X87778166Y-112305217D01*
X87731810Y-112254861D01*
X87609744Y-112122262D01*
X87526991Y-112057852D01*
X87486179Y-112001143D01*
X87482504Y-111931370D01*
X87517136Y-111870687D01*
X87526985Y-111862151D01*
X87609744Y-111797738D01*
X87778164Y-111614785D01*
X87914173Y-111406607D01*
X88014063Y-111178881D01*
X88075108Y-110937821D01*
X88075109Y-110937812D01*
X88095643Y-110690005D01*
X88095643Y-110689994D01*
X88075109Y-110442187D01*
X88075107Y-110442175D01*
X88014063Y-110201118D01*
X87914173Y-109973393D01*
X87778166Y-109765217D01*
X87663001Y-109640115D01*
X87609744Y-109582262D01*
X87526991Y-109517852D01*
X87486179Y-109461143D01*
X87482504Y-109391370D01*
X87517136Y-109330687D01*
X87526985Y-109322151D01*
X87609744Y-109257738D01*
X87778164Y-109074785D01*
X87914173Y-108866607D01*
X88014063Y-108638881D01*
X88075108Y-108397821D01*
X88078058Y-108362218D01*
X88095643Y-108150005D01*
X88095643Y-108149994D01*
X88075109Y-107902187D01*
X88075107Y-107902175D01*
X88014063Y-107661118D01*
X87914173Y-107433393D01*
X87778166Y-107225217D01*
X87699670Y-107139948D01*
X87609744Y-107042262D01*
X87526991Y-106977852D01*
X87486179Y-106921143D01*
X87482504Y-106851370D01*
X87517136Y-106790687D01*
X87526985Y-106782151D01*
X87609744Y-106717738D01*
X87778164Y-106534785D01*
X87914173Y-106326607D01*
X88014063Y-106098881D01*
X88075108Y-105857821D01*
X88095643Y-105610000D01*
X88080684Y-105429474D01*
X88075109Y-105362187D01*
X88075107Y-105362175D01*
X88014063Y-105121118D01*
X87914173Y-104893393D01*
X87778166Y-104685217D01*
X87756557Y-104661744D01*
X87609744Y-104502262D01*
X87526991Y-104437852D01*
X87486179Y-104381143D01*
X87482504Y-104311370D01*
X87517136Y-104250687D01*
X87526985Y-104242151D01*
X87609744Y-104177738D01*
X87778164Y-103994785D01*
X87914173Y-103786607D01*
X88014063Y-103558881D01*
X88075108Y-103317821D01*
X88082148Y-103232861D01*
X88095643Y-103070005D01*
X88095643Y-103069994D01*
X88075109Y-102822187D01*
X88075107Y-102822175D01*
X88014063Y-102581118D01*
X87914173Y-102353393D01*
X87778166Y-102145217D01*
X87747758Y-102112185D01*
X87609744Y-101962262D01*
X87526991Y-101897852D01*
X87486179Y-101841143D01*
X87482504Y-101771370D01*
X87517136Y-101710687D01*
X87526985Y-101702151D01*
X87609744Y-101637738D01*
X87778164Y-101454785D01*
X87914173Y-101246607D01*
X88014063Y-101018881D01*
X88075108Y-100777821D01*
X88075109Y-100777812D01*
X88095643Y-100530005D01*
X88095643Y-100529994D01*
X88075109Y-100282187D01*
X88075107Y-100282175D01*
X88014063Y-100041118D01*
X87914173Y-99813393D01*
X87778166Y-99605217D01*
X87756557Y-99581744D01*
X87609744Y-99422262D01*
X87526991Y-99357852D01*
X87486179Y-99301143D01*
X87482504Y-99231370D01*
X87517136Y-99170687D01*
X87526985Y-99162151D01*
X87609744Y-99097738D01*
X87778164Y-98914785D01*
X87914173Y-98706607D01*
X88014063Y-98478881D01*
X88075108Y-98237821D01*
X88092337Y-98029898D01*
X88095643Y-97990005D01*
X88095643Y-97989994D01*
X88075109Y-97742187D01*
X88075107Y-97742175D01*
X88014063Y-97501118D01*
X87914173Y-97273393D01*
X87778166Y-97065217D01*
X87756557Y-97041744D01*
X87609744Y-96882262D01*
X87526991Y-96817852D01*
X87486179Y-96761143D01*
X87482504Y-96691370D01*
X87517136Y-96630687D01*
X87526985Y-96622151D01*
X87609744Y-96557738D01*
X87778164Y-96374785D01*
X87914173Y-96166607D01*
X88014063Y-95938881D01*
X88075108Y-95697821D01*
X88095643Y-95450000D01*
X88091090Y-95395057D01*
X88075109Y-95202187D01*
X88075107Y-95202175D01*
X88014063Y-94961118D01*
X87914173Y-94733393D01*
X87778166Y-94525217D01*
X87756557Y-94501744D01*
X87609744Y-94342262D01*
X87526991Y-94277852D01*
X87486179Y-94221143D01*
X87482504Y-94151370D01*
X87517136Y-94090687D01*
X87526985Y-94082151D01*
X87609744Y-94017738D01*
X87778164Y-93834785D01*
X87914173Y-93626607D01*
X88014063Y-93398881D01*
X88075108Y-93157821D01*
X88095643Y-92910000D01*
X88075108Y-92662179D01*
X88042360Y-92532859D01*
X88014063Y-92421118D01*
X87914173Y-92193393D01*
X87778166Y-91985217D01*
X87754108Y-91959083D01*
X87609744Y-91802262D01*
X87526991Y-91737852D01*
X87486179Y-91681143D01*
X87482504Y-91611370D01*
X87517136Y-91550687D01*
X87526985Y-91542151D01*
X87609744Y-91477738D01*
X87778164Y-91294785D01*
X87914173Y-91086607D01*
X88014063Y-90858881D01*
X88075108Y-90617821D01*
X88075109Y-90617812D01*
X88095643Y-90370005D01*
X88095643Y-90369994D01*
X88075109Y-90122187D01*
X88075107Y-90122175D01*
X88014063Y-89881118D01*
X87914173Y-89653393D01*
X87778166Y-89445217D01*
X87736545Y-89400005D01*
X87609744Y-89262262D01*
X87526991Y-89197852D01*
X87486179Y-89141143D01*
X87482504Y-89071370D01*
X87517136Y-89010687D01*
X87526985Y-89002151D01*
X87609744Y-88937738D01*
X87778164Y-88754785D01*
X87914173Y-88546607D01*
X88014063Y-88318881D01*
X88075108Y-88077821D01*
X88079802Y-88021172D01*
X88095643Y-87830005D01*
X88095643Y-87829994D01*
X88075109Y-87582187D01*
X88075107Y-87582175D01*
X88014063Y-87341118D01*
X87914173Y-87113393D01*
X87778166Y-86905217D01*
X87757860Y-86883159D01*
X87609744Y-86722262D01*
X87526993Y-86657854D01*
X87506254Y-86641712D01*
X87465441Y-86585002D01*
X87458655Y-86536176D01*
X87460055Y-86513608D01*
X86719408Y-85772962D01*
X86782993Y-85755925D01*
X86897007Y-85690099D01*
X86990099Y-85597007D01*
X87055925Y-85482993D01*
X87072962Y-85419409D01*
X87813435Y-86159882D01*
X87913733Y-86006364D01*
X88013587Y-85778717D01*
X88074612Y-85537738D01*
X88074614Y-85537729D01*
X88095141Y-85290005D01*
X88095141Y-85289994D01*
X88074614Y-85042270D01*
X88074612Y-85042261D01*
X88013587Y-84801282D01*
X87913732Y-84573632D01*
X87813435Y-84420116D01*
X87072962Y-85160590D01*
X87055925Y-85097007D01*
X86990099Y-84982993D01*
X86897007Y-84889901D01*
X86782993Y-84824075D01*
X86719409Y-84807037D01*
X87460055Y-84066389D01*
X87458654Y-84043825D01*
X87474146Y-83975694D01*
X87506249Y-83938290D01*
X87609744Y-83857738D01*
X87778164Y-83674785D01*
X87914173Y-83466607D01*
X88014063Y-83238881D01*
X88075108Y-82997821D01*
X88095643Y-82750000D01*
X88090021Y-82682157D01*
X88075109Y-82502187D01*
X88075107Y-82502175D01*
X88014063Y-82261118D01*
X87914173Y-82033393D01*
X87778166Y-81825217D01*
X87713627Y-81755109D01*
X87609744Y-81642262D01*
X87526991Y-81577852D01*
X87486179Y-81521143D01*
X87482504Y-81451370D01*
X87517136Y-81390687D01*
X87526985Y-81382151D01*
X87609744Y-81317738D01*
X87778164Y-81134785D01*
X87914173Y-80926607D01*
X88014063Y-80698881D01*
X88075108Y-80457821D01*
X88079651Y-80402993D01*
X88095643Y-80210005D01*
X88095643Y-80209994D01*
X88075109Y-79962187D01*
X88075107Y-79962175D01*
X88014063Y-79721118D01*
X87914173Y-79493393D01*
X87778166Y-79285217D01*
X87756557Y-79261744D01*
X87609744Y-79102262D01*
X87526991Y-79037852D01*
X87486179Y-78981143D01*
X87482504Y-78911370D01*
X87517136Y-78850687D01*
X87526985Y-78842151D01*
X87609744Y-78777738D01*
X87778164Y-78594785D01*
X87914173Y-78386607D01*
X88014063Y-78158881D01*
X88075108Y-77917821D01*
X88076464Y-77901457D01*
X88095643Y-77670005D01*
X88095643Y-77669994D01*
X88075109Y-77422187D01*
X88075107Y-77422175D01*
X88014063Y-77181118D01*
X87914173Y-76953393D01*
X87778166Y-76745217D01*
X87708463Y-76669500D01*
X87609744Y-76562262D01*
X87413509Y-76409526D01*
X87413507Y-76409525D01*
X87413506Y-76409524D01*
X87194811Y-76291172D01*
X87194802Y-76291169D01*
X86959616Y-76210429D01*
X86714335Y-76169500D01*
X86465665Y-76169500D01*
X86220383Y-76210429D01*
X85985197Y-76291169D01*
X85985188Y-76291172D01*
X85766493Y-76409524D01*
X85570257Y-76562261D01*
X85401833Y-76745217D01*
X85265826Y-76953393D01*
X85165936Y-77181118D01*
X85104892Y-77422175D01*
X85104890Y-77422187D01*
X85084357Y-77669994D01*
X85084357Y-77670005D01*
X85104890Y-77917812D01*
X85104892Y-77917824D01*
X85165936Y-78158881D01*
X85265826Y-78386606D01*
X85401833Y-78594782D01*
X85401836Y-78594785D01*
X85570256Y-78777738D01*
X85653008Y-78842147D01*
X85693821Y-78898857D01*
X85697496Y-78968630D01*
X85662864Y-79029313D01*
X85653014Y-79037848D01*
X85638908Y-79048828D01*
X85570257Y-79102261D01*
X85401833Y-79285217D01*
X85265826Y-79493393D01*
X85165936Y-79721118D01*
X85104892Y-79962175D01*
X85104890Y-79962187D01*
X85084357Y-80209994D01*
X85084357Y-80210005D01*
X85104890Y-80457812D01*
X85104892Y-80457824D01*
X85165936Y-80698881D01*
X85265826Y-80926606D01*
X85401833Y-81134782D01*
X85434245Y-81169991D01*
X85570256Y-81317738D01*
X85653008Y-81382147D01*
X85693821Y-81438857D01*
X85697496Y-81508630D01*
X85662864Y-81569313D01*
X85653014Y-81577848D01*
X85594400Y-81623469D01*
X85570257Y-81642261D01*
X85401833Y-81825217D01*
X85265826Y-82033393D01*
X85165936Y-82261118D01*
X85104892Y-82502175D01*
X85104890Y-82502187D01*
X85084357Y-82749994D01*
X85084357Y-82750005D01*
X85104890Y-82997812D01*
X85104892Y-82997824D01*
X85165936Y-83238881D01*
X85265826Y-83466606D01*
X85401833Y-83674782D01*
X85401836Y-83674785D01*
X85570256Y-83857738D01*
X85647502Y-83917861D01*
X85673745Y-83938287D01*
X85714558Y-83994997D01*
X85721344Y-84043823D01*
X85719943Y-84066389D01*
X86460591Y-84807037D01*
X86397007Y-84824075D01*
X86282993Y-84889901D01*
X86189901Y-84982993D01*
X86124075Y-85097007D01*
X86107037Y-85160591D01*
X85366563Y-84420117D01*
X85266267Y-84573633D01*
X85266265Y-84573637D01*
X85166412Y-84801282D01*
X85105387Y-85042261D01*
X85105385Y-85042270D01*
X85084859Y-85289994D01*
X85084859Y-85290005D01*
X85105385Y-85537729D01*
X85105387Y-85537738D01*
X85166412Y-85778717D01*
X85266267Y-86006367D01*
X85366562Y-86159881D01*
X86107037Y-85419408D01*
X86124075Y-85482993D01*
X86189901Y-85597007D01*
X86282993Y-85690099D01*
X86397007Y-85755925D01*
X86460591Y-85772962D01*
X85719943Y-86513609D01*
X85721344Y-86536176D01*
X85705851Y-86604306D01*
X85673745Y-86641712D01*
X85570258Y-86722260D01*
X85401833Y-86905217D01*
X85265826Y-87113393D01*
X85165936Y-87341118D01*
X85104892Y-87582175D01*
X85104890Y-87582187D01*
X85084357Y-87829994D01*
X85084357Y-87830005D01*
X85104890Y-88077812D01*
X85104892Y-88077824D01*
X85165936Y-88318881D01*
X85265826Y-88546606D01*
X85401833Y-88754782D01*
X85401836Y-88754785D01*
X85570256Y-88937738D01*
X85653008Y-89002147D01*
X85693821Y-89058857D01*
X85697496Y-89128630D01*
X85662864Y-89189313D01*
X85653014Y-89197848D01*
X85641248Y-89207007D01*
X85570257Y-89262261D01*
X85401833Y-89445217D01*
X85265826Y-89653393D01*
X85165936Y-89881118D01*
X85104892Y-90122175D01*
X85104890Y-90122187D01*
X85084357Y-90369994D01*
X85084357Y-90370005D01*
X85104890Y-90617812D01*
X85104892Y-90617824D01*
X85165936Y-90858881D01*
X85265826Y-91086606D01*
X85401833Y-91294782D01*
X85401836Y-91294785D01*
X85570256Y-91477738D01*
X85653008Y-91542147D01*
X85693821Y-91598857D01*
X85697496Y-91668630D01*
X85662864Y-91729313D01*
X85653014Y-91737848D01*
X85623944Y-91760475D01*
X85570257Y-91802261D01*
X85401833Y-91985217D01*
X85265826Y-92193393D01*
X85165936Y-92421118D01*
X85104892Y-92662175D01*
X85104890Y-92662187D01*
X85084357Y-92909994D01*
X85084357Y-92910005D01*
X85104890Y-93157812D01*
X85104892Y-93157824D01*
X85165936Y-93398881D01*
X85265826Y-93626606D01*
X85401833Y-93834782D01*
X85401836Y-93834785D01*
X85570256Y-94017738D01*
X85653008Y-94082147D01*
X85693821Y-94138857D01*
X85697496Y-94208630D01*
X85662864Y-94269313D01*
X85653014Y-94277848D01*
X85638908Y-94288828D01*
X85570257Y-94342261D01*
X85401833Y-94525217D01*
X85265826Y-94733393D01*
X85165936Y-94961118D01*
X85104892Y-95202175D01*
X85104890Y-95202187D01*
X85084357Y-95449994D01*
X85084357Y-95450005D01*
X85104890Y-95697812D01*
X85104892Y-95697824D01*
X85165936Y-95938881D01*
X85265826Y-96166606D01*
X85401833Y-96374782D01*
X85401836Y-96374785D01*
X85570256Y-96557738D01*
X85653008Y-96622147D01*
X85693821Y-96678857D01*
X85697496Y-96748630D01*
X85662864Y-96809313D01*
X85653014Y-96817848D01*
X85594400Y-96863469D01*
X85570257Y-96882261D01*
X85401833Y-97065217D01*
X85265826Y-97273393D01*
X85165936Y-97501118D01*
X85104892Y-97742175D01*
X85104890Y-97742187D01*
X85084357Y-97989994D01*
X85084357Y-97990005D01*
X85104890Y-98237812D01*
X85104892Y-98237824D01*
X85165936Y-98478881D01*
X85265826Y-98706606D01*
X85401833Y-98914782D01*
X85401836Y-98914785D01*
X85570256Y-99097738D01*
X85653008Y-99162147D01*
X85693821Y-99218857D01*
X85697496Y-99288630D01*
X85662864Y-99349313D01*
X85653014Y-99357848D01*
X85594400Y-99403469D01*
X85570257Y-99422261D01*
X85401833Y-99605217D01*
X85265826Y-99813393D01*
X85165936Y-100041118D01*
X85104892Y-100282175D01*
X85104890Y-100282187D01*
X85084357Y-100529994D01*
X85084357Y-100530005D01*
X85104890Y-100777812D01*
X85104892Y-100777824D01*
X85165936Y-101018881D01*
X85265826Y-101246606D01*
X85401833Y-101454782D01*
X85401836Y-101454785D01*
X85570256Y-101637738D01*
X85653008Y-101702147D01*
X85693821Y-101758857D01*
X85697496Y-101828630D01*
X85662864Y-101889313D01*
X85653014Y-101897848D01*
X85594400Y-101943469D01*
X85570257Y-101962261D01*
X85401833Y-102145217D01*
X85265826Y-102353393D01*
X85165936Y-102581118D01*
X85104892Y-102822175D01*
X85104890Y-102822187D01*
X85084357Y-103069994D01*
X85084357Y-103070005D01*
X85104890Y-103317812D01*
X85104892Y-103317824D01*
X85165936Y-103558881D01*
X85265826Y-103786606D01*
X85401833Y-103994782D01*
X85401836Y-103994785D01*
X85570256Y-104177738D01*
X85653008Y-104242147D01*
X85693821Y-104298857D01*
X85697496Y-104368630D01*
X85662864Y-104429313D01*
X85653014Y-104437848D01*
X85594400Y-104483469D01*
X85570257Y-104502261D01*
X85401833Y-104685217D01*
X85265826Y-104893393D01*
X85165936Y-105121118D01*
X85104892Y-105362175D01*
X85104890Y-105362187D01*
X85084357Y-105609994D01*
X85084357Y-105610005D01*
X85104890Y-105857812D01*
X85104892Y-105857824D01*
X85165936Y-106098881D01*
X85265826Y-106326606D01*
X85401833Y-106534782D01*
X85401836Y-106534785D01*
X85570256Y-106717738D01*
X85653008Y-106782147D01*
X85693821Y-106838857D01*
X85697496Y-106908630D01*
X85662864Y-106969313D01*
X85653014Y-106977848D01*
X85625540Y-106999233D01*
X85570257Y-107042261D01*
X85401833Y-107225217D01*
X85265826Y-107433393D01*
X85165936Y-107661118D01*
X85104892Y-107902175D01*
X85104890Y-107902187D01*
X85084357Y-108149994D01*
X85084357Y-108150005D01*
X85104890Y-108397812D01*
X85104892Y-108397824D01*
X85165936Y-108638881D01*
X85265826Y-108866606D01*
X85401833Y-109074782D01*
X85401836Y-109074785D01*
X85570256Y-109257738D01*
X85653008Y-109322147D01*
X85693821Y-109378857D01*
X85697496Y-109448630D01*
X85662864Y-109509313D01*
X85653014Y-109517848D01*
X85594400Y-109563469D01*
X85570257Y-109582261D01*
X85401833Y-109765217D01*
X85265826Y-109973393D01*
X85165936Y-110201118D01*
X85104892Y-110442175D01*
X85104890Y-110442187D01*
X85084357Y-110689994D01*
X85084357Y-110690000D01*
X85085985Y-110709647D01*
X85086553Y-110716502D01*
X85072470Y-110784938D01*
X85050657Y-110814421D01*
X84582627Y-111282452D01*
X84252221Y-111612858D01*
X84252218Y-111612861D01*
X84182538Y-111682540D01*
X84112859Y-111752219D01*
X84003371Y-111916079D01*
X84003364Y-111916092D01*
X83927950Y-112098160D01*
X83927947Y-112098170D01*
X83889500Y-112291456D01*
X81000000Y-112291456D01*
X81000000Y-74901455D01*
X91999500Y-74901455D01*
X91999500Y-75098544D01*
X92037947Y-75291828D01*
X92037949Y-75291836D01*
X92113367Y-75473910D01*
X92113372Y-75473920D01*
X92222860Y-75637780D01*
X92222863Y-75637784D01*
X94963181Y-78378101D01*
X94996666Y-78439424D01*
X94999500Y-78465782D01*
X94999500Y-84098541D01*
X94999500Y-84098543D01*
X94999499Y-84098543D01*
X95037947Y-84291829D01*
X95037950Y-84291839D01*
X95113364Y-84473907D01*
X95113371Y-84473920D01*
X95222860Y-84637781D01*
X95222863Y-84637785D01*
X95362214Y-84777136D01*
X95362218Y-84777139D01*
X95526079Y-84886628D01*
X95526092Y-84886635D01*
X95708160Y-84962049D01*
X95708165Y-84962051D01*
X95708169Y-84962051D01*
X95708170Y-84962052D01*
X95901456Y-85000500D01*
X95901459Y-85000500D01*
X96098543Y-85000500D01*
X96228582Y-84974632D01*
X96291835Y-84962051D01*
X96473914Y-84886632D01*
X96637782Y-84777139D01*
X96777139Y-84637782D01*
X96886632Y-84473914D01*
X96962051Y-84291835D01*
X96983847Y-84182261D01*
X97000500Y-84098543D01*
X97000500Y-77901458D01*
X97000499Y-77901457D01*
X96974061Y-77768541D01*
X96974061Y-77768538D01*
X96962053Y-77708172D01*
X96962052Y-77708165D01*
X96890701Y-77535909D01*
X96886633Y-77526088D01*
X96886628Y-77526079D01*
X96777140Y-77362219D01*
X96777137Y-77362215D01*
X93637784Y-74222863D01*
X93637780Y-74222860D01*
X93473920Y-74113372D01*
X93473910Y-74113367D01*
X93291836Y-74037949D01*
X93291828Y-74037947D01*
X93098543Y-73999500D01*
X93098540Y-73999500D01*
X92901460Y-73999500D01*
X92901457Y-73999500D01*
X92708171Y-74037947D01*
X92708163Y-74037949D01*
X92526089Y-74113367D01*
X92526079Y-74113372D01*
X92362219Y-74222860D01*
X92362215Y-74222863D01*
X92222863Y-74362215D01*
X92222860Y-74362219D01*
X92113372Y-74526079D01*
X92113367Y-74526089D01*
X92037949Y-74708163D01*
X92037947Y-74708171D01*
X91999500Y-74901455D01*
X81000000Y-74901455D01*
X81000000Y-72109176D01*
X81019685Y-72042137D01*
X81072489Y-71996382D01*
X81108293Y-71986175D01*
X127984834Y-66001935D01*
X128015179Y-66001807D01*
X169939200Y-70992761D01*
G37*
G04 #@! TD.AperFunction*
M02*
