%TF.GenerationSoftware,KiCad,Pcbnew,8.0.8*%
%TF.CreationDate,2025-03-05T22:12:12+11:00*%
%TF.ProjectId,transmissor,7472616e-736d-4697-9373-6f722e6b6963,rev?*%
%TF.SameCoordinates,Original*%
%TF.FileFunction,Drillmap*%
%TF.FilePolarity,Positive*%
%FSLAX45Y45*%
G04 Gerber Fmt 4.5, Leading zero omitted, Abs format (unit mm)*
G04 Created by KiCad (PCBNEW 8.0.8) date 2025-03-05 22:12:12*
%MOMM*%
%LPD*%
G01*
G04 APERTURE LIST*
%ADD10C,0.050000*%
%ADD11C,0.200000*%
%ADD12C,0.100000*%
%ADD13C,0.152000*%
G04 APERTURE END LIST*
D10*
X14017000Y-10857000D02*
G75*
G02*
X11317000Y-10857000I-1350000J0D01*
G01*
X11317000Y-10857000D02*
G75*
G02*
X14017000Y-10857000I1350000J0D01*
G01*
X18817000Y-10857000D02*
G75*
G02*
X6517000Y-10857000I-6150000J0D01*
G01*
X6517000Y-10857000D02*
G75*
G02*
X18817000Y-10857000I6150000J0D01*
G01*
D11*
D12*
X9283000Y-11594000D02*
X9313000Y-11624000D01*
X9313000Y-11594000D02*
X9283000Y-11624000D01*
X9283000Y-12460000D02*
X9313000Y-12490000D01*
X9313000Y-12460000D02*
X9283000Y-12490000D01*
X9285000Y-7485000D02*
X9315000Y-7515000D01*
X9315000Y-7485000D02*
X9285000Y-7515000D01*
X9485000Y-11785000D02*
X9515000Y-11815000D01*
X9515000Y-11785000D02*
X9485000Y-11815000D01*
X9585000Y-8385000D02*
X9615000Y-8415000D01*
X9615000Y-8385000D02*
X9585000Y-8415000D01*
X9685000Y-10885000D02*
X9715000Y-10915000D01*
X9715000Y-10885000D02*
X9685000Y-10915000D01*
X10385000Y-12185000D02*
X10415000Y-12215000D01*
X10415000Y-12185000D02*
X10385000Y-12215000D01*
X11385000Y-7585000D02*
X11415000Y-7615000D01*
X11415000Y-7585000D02*
X11385000Y-7615000D01*
X17586000Y-10008000D02*
G75*
G02*
X17511000Y-10008000I-37500J0D01*
G01*
X17511000Y-10008000D02*
G75*
G02*
X17586000Y-10008000I37500J0D01*
G01*
X18348000Y-10008000D02*
G75*
G02*
X18273000Y-10008000I-37500J0D01*
G01*
X18273000Y-10008000D02*
G75*
G02*
X18348000Y-10008000I37500J0D01*
G01*
X8968000Y-13029000D02*
X8968000Y-13109000D01*
X8928000Y-13069000D02*
X9008000Y-13069000D01*
X8968000Y-14045000D02*
X8968000Y-14125000D01*
X8928000Y-14085000D02*
X9008000Y-14085000D01*
X9453000Y-13036000D02*
X9453000Y-13116000D01*
X9413000Y-13076000D02*
X9493000Y-13076000D01*
X9453000Y-14052000D02*
X9453000Y-14132000D01*
X9413000Y-14092000D02*
X9493000Y-14092000D01*
X10290000Y-13010000D02*
X10290000Y-13090000D01*
X10250000Y-13050000D02*
X10330000Y-13050000D01*
X10290000Y-14026000D02*
X10290000Y-14106000D01*
X10250000Y-14066000D02*
X10330000Y-14066000D01*
X10866000Y-13025000D02*
X10866000Y-13105000D01*
X10826000Y-13065000D02*
X10906000Y-13065000D01*
X10866000Y-14041000D02*
X10866000Y-14121000D01*
X10826000Y-14081000D02*
X10906000Y-14081000D01*
X14110000Y-12507000D02*
X14110000Y-12587000D01*
X14070000Y-12547000D02*
X14150000Y-12547000D01*
X14360000Y-12507000D02*
X14360000Y-12587000D01*
X14320000Y-12547000D02*
X14400000Y-12547000D01*
X15125000Y-14814000D02*
X15125000Y-14894000D01*
X15085000Y-14854000D02*
X15165000Y-14854000D01*
X16141000Y-14814000D02*
X16141000Y-14894000D01*
X16101000Y-14854000D02*
X16181000Y-14854000D01*
X11047820Y-11878320D02*
X11047820Y-11814680D01*
X10984180Y-11814680D01*
X10984180Y-11878320D01*
X11047820Y-11878320D01*
X11047820Y-12132320D02*
X11047820Y-12068680D01*
X10984180Y-12068680D01*
X10984180Y-12132320D01*
X11047820Y-12132320D01*
X12715820Y-12664820D02*
X12715820Y-12601180D01*
X12652180Y-12601180D01*
X12652180Y-12664820D01*
X12715820Y-12664820D01*
X12715820Y-12918820D02*
X12715820Y-12855180D01*
X12652180Y-12855180D01*
X12652180Y-12918820D01*
X12715820Y-12918820D01*
X8659000Y-7817000D02*
X8709000Y-7767000D01*
X8659000Y-7717000D01*
X8609000Y-7767000D01*
X8659000Y-7817000D01*
X8659000Y-8071000D02*
X8709000Y-8021000D01*
X8659000Y-7971000D01*
X8609000Y-8021000D01*
X8659000Y-8071000D01*
X8659000Y-8325000D02*
X8709000Y-8275000D01*
X8659000Y-8225000D01*
X8609000Y-8275000D01*
X8659000Y-8325000D01*
X8659000Y-8579000D02*
X8709000Y-8529000D01*
X8659000Y-8479000D01*
X8609000Y-8529000D01*
X8659000Y-8579000D01*
X8659000Y-8833000D02*
X8709000Y-8783000D01*
X8659000Y-8733000D01*
X8609000Y-8783000D01*
X8659000Y-8833000D01*
X8659000Y-9087000D02*
X8709000Y-9037000D01*
X8659000Y-8987000D01*
X8609000Y-9037000D01*
X8659000Y-9087000D01*
X8659000Y-9341000D02*
X8709000Y-9291000D01*
X8659000Y-9241000D01*
X8609000Y-9291000D01*
X8659000Y-9341000D01*
X8659000Y-9595000D02*
X8709000Y-9545000D01*
X8659000Y-9495000D01*
X8609000Y-9545000D01*
X8659000Y-9595000D01*
X8659000Y-9849000D02*
X8709000Y-9799000D01*
X8659000Y-9749000D01*
X8609000Y-9799000D01*
X8659000Y-9849000D01*
X8659000Y-10103000D02*
X8709000Y-10053000D01*
X8659000Y-10003000D01*
X8609000Y-10053000D01*
X8659000Y-10103000D01*
X8659000Y-10357000D02*
X8709000Y-10307000D01*
X8659000Y-10257000D01*
X8609000Y-10307000D01*
X8659000Y-10357000D01*
X8659000Y-10611000D02*
X8709000Y-10561000D01*
X8659000Y-10511000D01*
X8609000Y-10561000D01*
X8659000Y-10611000D01*
X8659000Y-10865000D02*
X8709000Y-10815000D01*
X8659000Y-10765000D01*
X8609000Y-10815000D01*
X8659000Y-10865000D01*
X8659000Y-11119000D02*
X8709000Y-11069000D01*
X8659000Y-11019000D01*
X8609000Y-11069000D01*
X8659000Y-11119000D01*
X8659000Y-11373000D02*
X8709000Y-11323000D01*
X8659000Y-11273000D01*
X8609000Y-11323000D01*
X8659000Y-11373000D01*
X10183000Y-7817000D02*
X10233000Y-7767000D01*
X10183000Y-7717000D01*
X10133000Y-7767000D01*
X10183000Y-7817000D01*
X10183000Y-8071000D02*
X10233000Y-8021000D01*
X10183000Y-7971000D01*
X10133000Y-8021000D01*
X10183000Y-8071000D01*
X10183000Y-8325000D02*
X10233000Y-8275000D01*
X10183000Y-8225000D01*
X10133000Y-8275000D01*
X10183000Y-8325000D01*
X10183000Y-8579000D02*
X10233000Y-8529000D01*
X10183000Y-8479000D01*
X10133000Y-8529000D01*
X10183000Y-8579000D01*
X10183000Y-8833000D02*
X10233000Y-8783000D01*
X10183000Y-8733000D01*
X10133000Y-8783000D01*
X10183000Y-8833000D01*
X10183000Y-9087000D02*
X10233000Y-9037000D01*
X10183000Y-8987000D01*
X10133000Y-9037000D01*
X10183000Y-9087000D01*
X10183000Y-9341000D02*
X10233000Y-9291000D01*
X10183000Y-9241000D01*
X10133000Y-9291000D01*
X10183000Y-9341000D01*
X10183000Y-9595000D02*
X10233000Y-9545000D01*
X10183000Y-9495000D01*
X10133000Y-9545000D01*
X10183000Y-9595000D01*
X10183000Y-9849000D02*
X10233000Y-9799000D01*
X10183000Y-9749000D01*
X10133000Y-9799000D01*
X10183000Y-9849000D01*
X10183000Y-10103000D02*
X10233000Y-10053000D01*
X10183000Y-10003000D01*
X10133000Y-10053000D01*
X10183000Y-10103000D01*
X10183000Y-10357000D02*
X10233000Y-10307000D01*
X10183000Y-10257000D01*
X10133000Y-10307000D01*
X10183000Y-10357000D01*
X10183000Y-10611000D02*
X10233000Y-10561000D01*
X10183000Y-10511000D01*
X10133000Y-10561000D01*
X10183000Y-10611000D01*
X10183000Y-10865000D02*
X10233000Y-10815000D01*
X10183000Y-10765000D01*
X10133000Y-10815000D01*
X10183000Y-10865000D01*
X10183000Y-11119000D02*
X10233000Y-11069000D01*
X10183000Y-11019000D01*
X10133000Y-11069000D01*
X10183000Y-11119000D01*
X10183000Y-11373000D02*
X10233000Y-11323000D01*
X10183000Y-11273000D01*
X10133000Y-11323000D01*
X10183000Y-11373000D01*
X11734000Y-14450000D02*
X11784000Y-14400000D01*
X11734000Y-14350000D01*
X11684000Y-14400000D01*
X11734000Y-14450000D01*
X11988000Y-14450000D02*
X12038000Y-14400000D01*
X11988000Y-14350000D01*
X11938000Y-14400000D01*
X11988000Y-14450000D01*
X12039000Y-8990000D02*
X12089000Y-8940000D01*
X12039000Y-8890000D01*
X11989000Y-8940000D01*
X12039000Y-8990000D01*
X12242000Y-14450000D02*
X12292000Y-14400000D01*
X12242000Y-14350000D01*
X12192000Y-14400000D01*
X12242000Y-14450000D01*
X12293000Y-8990000D02*
X12343000Y-8940000D01*
X12293000Y-8890000D01*
X12243000Y-8940000D01*
X12293000Y-8990000D01*
X12496000Y-14450000D02*
X12546000Y-14400000D01*
X12496000Y-14350000D01*
X12446000Y-14400000D01*
X12496000Y-14450000D01*
X12547000Y-8990000D02*
X12597000Y-8940000D01*
X12547000Y-8890000D01*
X12497000Y-8940000D01*
X12547000Y-8990000D01*
X12750000Y-14450000D02*
X12800000Y-14400000D01*
X12750000Y-14350000D01*
X12700000Y-14400000D01*
X12750000Y-14450000D01*
X12801000Y-8990000D02*
X12851000Y-8940000D01*
X12801000Y-8890000D01*
X12751000Y-8940000D01*
X12801000Y-8990000D01*
X13004000Y-14450000D02*
X13054000Y-14400000D01*
X13004000Y-14350000D01*
X12954000Y-14400000D01*
X13004000Y-14450000D01*
X13055000Y-8990000D02*
X13105000Y-8940000D01*
X13055000Y-8890000D01*
X13005000Y-8940000D01*
X13055000Y-8990000D01*
X13258000Y-14450000D02*
X13308000Y-14400000D01*
X13258000Y-14350000D01*
X13208000Y-14400000D01*
X13258000Y-14450000D01*
X13309000Y-8990000D02*
X13359000Y-8940000D01*
X13309000Y-8890000D01*
X13259000Y-8940000D01*
X13309000Y-8990000D01*
X13512000Y-14450000D02*
X13562000Y-14400000D01*
X13512000Y-14350000D01*
X13462000Y-14400000D01*
X13512000Y-14450000D01*
X13766000Y-14450000D02*
X13816000Y-14400000D01*
X13766000Y-14350000D01*
X13716000Y-14400000D01*
X13766000Y-14450000D01*
X14020000Y-14450000D02*
X14070000Y-14400000D01*
X14020000Y-14350000D01*
X13970000Y-14400000D01*
X14020000Y-14450000D01*
X15191000Y-9100000D02*
X15241000Y-9050000D01*
X15191000Y-9000000D01*
X15141000Y-9050000D01*
X15191000Y-9100000D01*
X15191000Y-13200000D02*
X15241000Y-13150000D01*
X15191000Y-13100000D01*
X15141000Y-13150000D01*
X15191000Y-13200000D01*
X16991000Y-9100000D02*
X17041000Y-9050000D01*
X16991000Y-9000000D01*
X16941000Y-9050000D01*
X16991000Y-9100000D01*
X16991000Y-13200000D02*
X17041000Y-13150000D01*
X16991000Y-13100000D01*
X16941000Y-13150000D01*
X16991000Y-13200000D01*
D13*
X14959000Y-7899000D02*
X15111000Y-8051000D01*
X15111000Y-7899000D02*
X14959000Y-8051000D01*
X15111000Y-7975000D02*
G75*
G02*
X14959000Y-7975000I-76000J0D01*
G01*
X14959000Y-7975000D02*
G75*
G02*
X15111000Y-7975000I76000J0D01*
G01*
X15467000Y-7899000D02*
X15619000Y-8051000D01*
X15619000Y-7899000D02*
X15467000Y-8051000D01*
X15619000Y-7975000D02*
G75*
G02*
X15467000Y-7975000I-76000J0D01*
G01*
X15467000Y-7975000D02*
G75*
G02*
X15619000Y-7975000I76000J0D01*
G01*
X16278000Y-7877000D02*
X16430000Y-8029000D01*
X16430000Y-7877000D02*
X16278000Y-8029000D01*
X16430000Y-7953000D02*
G75*
G02*
X16278000Y-7953000I-76000J0D01*
G01*
X16278000Y-7953000D02*
G75*
G02*
X16430000Y-7953000I76000J0D01*
G01*
X16786000Y-7877000D02*
X16938000Y-8029000D01*
X16938000Y-7877000D02*
X16786000Y-8029000D01*
X16938000Y-7953000D02*
G75*
G02*
X16786000Y-7953000I-76000J0D01*
G01*
X16786000Y-7953000D02*
G75*
G02*
X16938000Y-7953000I76000J0D01*
G01*
X17909000Y-10730000D02*
X18061000Y-10882000D01*
X18061000Y-10730000D02*
X17909000Y-10882000D01*
X18061000Y-10806000D02*
G75*
G02*
X17909000Y-10806000I-76000J0D01*
G01*
X17909000Y-10806000D02*
G75*
G02*
X18061000Y-10806000I76000J0D01*
G01*
X17909000Y-11238000D02*
X18061000Y-11390000D01*
X18061000Y-11238000D02*
X17909000Y-11390000D01*
X18061000Y-11314000D02*
G75*
G02*
X17909000Y-11314000I-76000J0D01*
G01*
X17909000Y-11314000D02*
G75*
G02*
X18061000Y-11314000I76000J0D01*
G01*
D11*
X6775277Y-17320984D02*
X6775277Y-17120984D01*
X6775277Y-17120984D02*
X6822896Y-17120984D01*
X6822896Y-17120984D02*
X6851467Y-17130508D01*
X6851467Y-17130508D02*
X6870515Y-17149555D01*
X6870515Y-17149555D02*
X6880039Y-17168603D01*
X6880039Y-17168603D02*
X6889562Y-17206698D01*
X6889562Y-17206698D02*
X6889562Y-17235270D01*
X6889562Y-17235270D02*
X6880039Y-17273365D01*
X6880039Y-17273365D02*
X6870515Y-17292412D01*
X6870515Y-17292412D02*
X6851467Y-17311460D01*
X6851467Y-17311460D02*
X6822896Y-17320984D01*
X6822896Y-17320984D02*
X6775277Y-17320984D01*
X6975277Y-17320984D02*
X6975277Y-17187650D01*
X6975277Y-17225746D02*
X6984801Y-17206698D01*
X6984801Y-17206698D02*
X6994324Y-17197174D01*
X6994324Y-17197174D02*
X7013372Y-17187650D01*
X7013372Y-17187650D02*
X7032420Y-17187650D01*
X7099086Y-17320984D02*
X7099086Y-17187650D01*
X7099086Y-17120984D02*
X7089562Y-17130508D01*
X7089562Y-17130508D02*
X7099086Y-17140031D01*
X7099086Y-17140031D02*
X7108610Y-17130508D01*
X7108610Y-17130508D02*
X7099086Y-17120984D01*
X7099086Y-17120984D02*
X7099086Y-17140031D01*
X7222896Y-17320984D02*
X7203848Y-17311460D01*
X7203848Y-17311460D02*
X7194324Y-17292412D01*
X7194324Y-17292412D02*
X7194324Y-17120984D01*
X7327658Y-17320984D02*
X7308610Y-17311460D01*
X7308610Y-17311460D02*
X7299086Y-17292412D01*
X7299086Y-17292412D02*
X7299086Y-17120984D01*
X7556229Y-17320984D02*
X7556229Y-17120984D01*
X7556229Y-17120984D02*
X7622896Y-17263841D01*
X7622896Y-17263841D02*
X7689562Y-17120984D01*
X7689562Y-17120984D02*
X7689562Y-17320984D01*
X7870515Y-17320984D02*
X7870515Y-17216222D01*
X7870515Y-17216222D02*
X7860991Y-17197174D01*
X7860991Y-17197174D02*
X7841943Y-17187650D01*
X7841943Y-17187650D02*
X7803848Y-17187650D01*
X7803848Y-17187650D02*
X7784801Y-17197174D01*
X7870515Y-17311460D02*
X7851467Y-17320984D01*
X7851467Y-17320984D02*
X7803848Y-17320984D01*
X7803848Y-17320984D02*
X7784801Y-17311460D01*
X7784801Y-17311460D02*
X7775277Y-17292412D01*
X7775277Y-17292412D02*
X7775277Y-17273365D01*
X7775277Y-17273365D02*
X7784801Y-17254317D01*
X7784801Y-17254317D02*
X7803848Y-17244793D01*
X7803848Y-17244793D02*
X7851467Y-17244793D01*
X7851467Y-17244793D02*
X7870515Y-17235270D01*
X7965753Y-17187650D02*
X7965753Y-17387650D01*
X7965753Y-17197174D02*
X7984801Y-17187650D01*
X7984801Y-17187650D02*
X8022896Y-17187650D01*
X8022896Y-17187650D02*
X8041943Y-17197174D01*
X8041943Y-17197174D02*
X8051467Y-17206698D01*
X8051467Y-17206698D02*
X8060991Y-17225746D01*
X8060991Y-17225746D02*
X8060991Y-17282889D01*
X8060991Y-17282889D02*
X8051467Y-17301936D01*
X8051467Y-17301936D02*
X8041943Y-17311460D01*
X8041943Y-17311460D02*
X8022896Y-17320984D01*
X8022896Y-17320984D02*
X7984801Y-17320984D01*
X7984801Y-17320984D02*
X7965753Y-17311460D01*
X8146705Y-17301936D02*
X8156229Y-17311460D01*
X8156229Y-17311460D02*
X8146705Y-17320984D01*
X8146705Y-17320984D02*
X8137182Y-17311460D01*
X8137182Y-17311460D02*
X8146705Y-17301936D01*
X8146705Y-17301936D02*
X8146705Y-17320984D01*
X8146705Y-17197174D02*
X8156229Y-17206698D01*
X8156229Y-17206698D02*
X8146705Y-17216222D01*
X8146705Y-17216222D02*
X8137182Y-17206698D01*
X8137182Y-17206698D02*
X8146705Y-17197174D01*
X8146705Y-17197174D02*
X8146705Y-17216222D01*
D12*
X6484500Y-17634500D02*
X6514500Y-17664500D01*
X6514500Y-17634500D02*
X6484500Y-17664500D01*
D11*
X6813372Y-17540984D02*
X6832420Y-17540984D01*
X6832420Y-17540984D02*
X6851467Y-17550508D01*
X6851467Y-17550508D02*
X6860991Y-17560031D01*
X6860991Y-17560031D02*
X6870515Y-17579079D01*
X6870515Y-17579079D02*
X6880039Y-17617174D01*
X6880039Y-17617174D02*
X6880039Y-17664793D01*
X6880039Y-17664793D02*
X6870515Y-17702889D01*
X6870515Y-17702889D02*
X6860991Y-17721936D01*
X6860991Y-17721936D02*
X6851467Y-17731460D01*
X6851467Y-17731460D02*
X6832420Y-17740984D01*
X6832420Y-17740984D02*
X6813372Y-17740984D01*
X6813372Y-17740984D02*
X6794324Y-17731460D01*
X6794324Y-17731460D02*
X6784801Y-17721936D01*
X6784801Y-17721936D02*
X6775277Y-17702889D01*
X6775277Y-17702889D02*
X6765753Y-17664793D01*
X6765753Y-17664793D02*
X6765753Y-17617174D01*
X6765753Y-17617174D02*
X6775277Y-17579079D01*
X6775277Y-17579079D02*
X6784801Y-17560031D01*
X6784801Y-17560031D02*
X6794324Y-17550508D01*
X6794324Y-17550508D02*
X6813372Y-17540984D01*
X6965753Y-17721936D02*
X6975277Y-17731460D01*
X6975277Y-17731460D02*
X6965753Y-17740984D01*
X6965753Y-17740984D02*
X6956229Y-17731460D01*
X6956229Y-17731460D02*
X6965753Y-17721936D01*
X6965753Y-17721936D02*
X6965753Y-17740984D01*
X7041943Y-17540984D02*
X7165753Y-17540984D01*
X7165753Y-17540984D02*
X7099086Y-17617174D01*
X7099086Y-17617174D02*
X7127658Y-17617174D01*
X7127658Y-17617174D02*
X7146705Y-17626698D01*
X7146705Y-17626698D02*
X7156229Y-17636222D01*
X7156229Y-17636222D02*
X7165753Y-17655270D01*
X7165753Y-17655270D02*
X7165753Y-17702889D01*
X7165753Y-17702889D02*
X7156229Y-17721936D01*
X7156229Y-17721936D02*
X7146705Y-17731460D01*
X7146705Y-17731460D02*
X7127658Y-17740984D01*
X7127658Y-17740984D02*
X7070515Y-17740984D01*
X7070515Y-17740984D02*
X7051467Y-17731460D01*
X7051467Y-17731460D02*
X7041943Y-17721936D01*
X7289562Y-17540984D02*
X7308610Y-17540984D01*
X7308610Y-17540984D02*
X7327658Y-17550508D01*
X7327658Y-17550508D02*
X7337182Y-17560031D01*
X7337182Y-17560031D02*
X7346705Y-17579079D01*
X7346705Y-17579079D02*
X7356229Y-17617174D01*
X7356229Y-17617174D02*
X7356229Y-17664793D01*
X7356229Y-17664793D02*
X7346705Y-17702889D01*
X7346705Y-17702889D02*
X7337182Y-17721936D01*
X7337182Y-17721936D02*
X7327658Y-17731460D01*
X7327658Y-17731460D02*
X7308610Y-17740984D01*
X7308610Y-17740984D02*
X7289562Y-17740984D01*
X7289562Y-17740984D02*
X7270515Y-17731460D01*
X7270515Y-17731460D02*
X7260991Y-17721936D01*
X7260991Y-17721936D02*
X7251467Y-17702889D01*
X7251467Y-17702889D02*
X7241943Y-17664793D01*
X7241943Y-17664793D02*
X7241943Y-17617174D01*
X7241943Y-17617174D02*
X7251467Y-17579079D01*
X7251467Y-17579079D02*
X7260991Y-17560031D01*
X7260991Y-17560031D02*
X7270515Y-17550508D01*
X7270515Y-17550508D02*
X7289562Y-17540984D01*
X7480039Y-17540984D02*
X7499086Y-17540984D01*
X7499086Y-17540984D02*
X7518134Y-17550508D01*
X7518134Y-17550508D02*
X7527658Y-17560031D01*
X7527658Y-17560031D02*
X7537182Y-17579079D01*
X7537182Y-17579079D02*
X7546705Y-17617174D01*
X7546705Y-17617174D02*
X7546705Y-17664793D01*
X7546705Y-17664793D02*
X7537182Y-17702889D01*
X7537182Y-17702889D02*
X7527658Y-17721936D01*
X7527658Y-17721936D02*
X7518134Y-17731460D01*
X7518134Y-17731460D02*
X7499086Y-17740984D01*
X7499086Y-17740984D02*
X7480039Y-17740984D01*
X7480039Y-17740984D02*
X7460991Y-17731460D01*
X7460991Y-17731460D02*
X7451467Y-17721936D01*
X7451467Y-17721936D02*
X7441943Y-17702889D01*
X7441943Y-17702889D02*
X7432420Y-17664793D01*
X7432420Y-17664793D02*
X7432420Y-17617174D01*
X7432420Y-17617174D02*
X7441943Y-17579079D01*
X7441943Y-17579079D02*
X7451467Y-17560031D01*
X7451467Y-17560031D02*
X7460991Y-17550508D01*
X7460991Y-17550508D02*
X7480039Y-17540984D01*
X7632420Y-17740984D02*
X7632420Y-17607650D01*
X7632420Y-17626698D02*
X7641943Y-17617174D01*
X7641943Y-17617174D02*
X7660991Y-17607650D01*
X7660991Y-17607650D02*
X7689563Y-17607650D01*
X7689563Y-17607650D02*
X7708610Y-17617174D01*
X7708610Y-17617174D02*
X7718134Y-17636222D01*
X7718134Y-17636222D02*
X7718134Y-17740984D01*
X7718134Y-17636222D02*
X7727658Y-17617174D01*
X7727658Y-17617174D02*
X7746705Y-17607650D01*
X7746705Y-17607650D02*
X7775277Y-17607650D01*
X7775277Y-17607650D02*
X7794324Y-17617174D01*
X7794324Y-17617174D02*
X7803848Y-17636222D01*
X7803848Y-17636222D02*
X7803848Y-17740984D01*
X7899086Y-17740984D02*
X7899086Y-17607650D01*
X7899086Y-17626698D02*
X7908610Y-17617174D01*
X7908610Y-17617174D02*
X7927658Y-17607650D01*
X7927658Y-17607650D02*
X7956229Y-17607650D01*
X7956229Y-17607650D02*
X7975277Y-17617174D01*
X7975277Y-17617174D02*
X7984801Y-17636222D01*
X7984801Y-17636222D02*
X7984801Y-17740984D01*
X7984801Y-17636222D02*
X7994324Y-17617174D01*
X7994324Y-17617174D02*
X8013372Y-17607650D01*
X8013372Y-17607650D02*
X8041943Y-17607650D01*
X8041943Y-17607650D02*
X8060991Y-17617174D01*
X8060991Y-17617174D02*
X8070515Y-17636222D01*
X8070515Y-17636222D02*
X8070515Y-17740984D01*
X8460991Y-17531460D02*
X8289563Y-17788603D01*
X8718134Y-17540984D02*
X8737182Y-17540984D01*
X8737182Y-17540984D02*
X8756229Y-17550508D01*
X8756229Y-17550508D02*
X8765753Y-17560031D01*
X8765753Y-17560031D02*
X8775277Y-17579079D01*
X8775277Y-17579079D02*
X8784801Y-17617174D01*
X8784801Y-17617174D02*
X8784801Y-17664793D01*
X8784801Y-17664793D02*
X8775277Y-17702889D01*
X8775277Y-17702889D02*
X8765753Y-17721936D01*
X8765753Y-17721936D02*
X8756229Y-17731460D01*
X8756229Y-17731460D02*
X8737182Y-17740984D01*
X8737182Y-17740984D02*
X8718134Y-17740984D01*
X8718134Y-17740984D02*
X8699087Y-17731460D01*
X8699087Y-17731460D02*
X8689563Y-17721936D01*
X8689563Y-17721936D02*
X8680039Y-17702889D01*
X8680039Y-17702889D02*
X8670515Y-17664793D01*
X8670515Y-17664793D02*
X8670515Y-17617174D01*
X8670515Y-17617174D02*
X8680039Y-17579079D01*
X8680039Y-17579079D02*
X8689563Y-17560031D01*
X8689563Y-17560031D02*
X8699087Y-17550508D01*
X8699087Y-17550508D02*
X8718134Y-17540984D01*
X8870515Y-17721936D02*
X8880039Y-17731460D01*
X8880039Y-17731460D02*
X8870515Y-17740984D01*
X8870515Y-17740984D02*
X8860991Y-17731460D01*
X8860991Y-17731460D02*
X8870515Y-17721936D01*
X8870515Y-17721936D02*
X8870515Y-17740984D01*
X9003848Y-17540984D02*
X9022896Y-17540984D01*
X9022896Y-17540984D02*
X9041944Y-17550508D01*
X9041944Y-17550508D02*
X9051468Y-17560031D01*
X9051468Y-17560031D02*
X9060991Y-17579079D01*
X9060991Y-17579079D02*
X9070515Y-17617174D01*
X9070515Y-17617174D02*
X9070515Y-17664793D01*
X9070515Y-17664793D02*
X9060991Y-17702889D01*
X9060991Y-17702889D02*
X9051468Y-17721936D01*
X9051468Y-17721936D02*
X9041944Y-17731460D01*
X9041944Y-17731460D02*
X9022896Y-17740984D01*
X9022896Y-17740984D02*
X9003848Y-17740984D01*
X9003848Y-17740984D02*
X8984801Y-17731460D01*
X8984801Y-17731460D02*
X8975277Y-17721936D01*
X8975277Y-17721936D02*
X8965753Y-17702889D01*
X8965753Y-17702889D02*
X8956229Y-17664793D01*
X8956229Y-17664793D02*
X8956229Y-17617174D01*
X8956229Y-17617174D02*
X8965753Y-17579079D01*
X8965753Y-17579079D02*
X8975277Y-17560031D01*
X8975277Y-17560031D02*
X8984801Y-17550508D01*
X8984801Y-17550508D02*
X9003848Y-17540984D01*
X9260991Y-17740984D02*
X9146706Y-17740984D01*
X9203848Y-17740984D02*
X9203848Y-17540984D01*
X9203848Y-17540984D02*
X9184801Y-17569555D01*
X9184801Y-17569555D02*
X9165753Y-17588603D01*
X9165753Y-17588603D02*
X9146706Y-17598127D01*
X9451468Y-17740984D02*
X9337182Y-17740984D01*
X9394325Y-17740984D02*
X9394325Y-17540984D01*
X9394325Y-17540984D02*
X9375277Y-17569555D01*
X9375277Y-17569555D02*
X9356229Y-17588603D01*
X9356229Y-17588603D02*
X9337182Y-17598127D01*
X9565753Y-17626698D02*
X9546706Y-17617174D01*
X9546706Y-17617174D02*
X9537182Y-17607650D01*
X9537182Y-17607650D02*
X9527658Y-17588603D01*
X9527658Y-17588603D02*
X9527658Y-17579079D01*
X9527658Y-17579079D02*
X9537182Y-17560031D01*
X9537182Y-17560031D02*
X9546706Y-17550508D01*
X9546706Y-17550508D02*
X9565753Y-17540984D01*
X9565753Y-17540984D02*
X9603849Y-17540984D01*
X9603849Y-17540984D02*
X9622896Y-17550508D01*
X9622896Y-17550508D02*
X9632420Y-17560031D01*
X9632420Y-17560031D02*
X9641944Y-17579079D01*
X9641944Y-17579079D02*
X9641944Y-17588603D01*
X9641944Y-17588603D02*
X9632420Y-17607650D01*
X9632420Y-17607650D02*
X9622896Y-17617174D01*
X9622896Y-17617174D02*
X9603849Y-17626698D01*
X9603849Y-17626698D02*
X9565753Y-17626698D01*
X9565753Y-17626698D02*
X9546706Y-17636222D01*
X9546706Y-17636222D02*
X9537182Y-17645746D01*
X9537182Y-17645746D02*
X9527658Y-17664793D01*
X9527658Y-17664793D02*
X9527658Y-17702889D01*
X9527658Y-17702889D02*
X9537182Y-17721936D01*
X9537182Y-17721936D02*
X9546706Y-17731460D01*
X9546706Y-17731460D02*
X9565753Y-17740984D01*
X9565753Y-17740984D02*
X9603849Y-17740984D01*
X9603849Y-17740984D02*
X9622896Y-17731460D01*
X9622896Y-17731460D02*
X9632420Y-17721936D01*
X9632420Y-17721936D02*
X9641944Y-17702889D01*
X9641944Y-17702889D02*
X9641944Y-17664793D01*
X9641944Y-17664793D02*
X9632420Y-17645746D01*
X9632420Y-17645746D02*
X9622896Y-17636222D01*
X9622896Y-17636222D02*
X9603849Y-17626698D01*
X9718134Y-17540984D02*
X9718134Y-17579079D01*
X9794325Y-17540984D02*
X9794325Y-17579079D01*
X10089563Y-17817174D02*
X10080039Y-17807650D01*
X10080039Y-17807650D02*
X10060991Y-17779079D01*
X10060991Y-17779079D02*
X10051468Y-17760031D01*
X10051468Y-17760031D02*
X10041944Y-17731460D01*
X10041944Y-17731460D02*
X10032420Y-17683841D01*
X10032420Y-17683841D02*
X10032420Y-17645746D01*
X10032420Y-17645746D02*
X10041944Y-17598127D01*
X10041944Y-17598127D02*
X10051468Y-17569555D01*
X10051468Y-17569555D02*
X10060991Y-17550508D01*
X10060991Y-17550508D02*
X10080039Y-17521936D01*
X10080039Y-17521936D02*
X10089563Y-17512412D01*
X10194325Y-17626698D02*
X10175277Y-17617174D01*
X10175277Y-17617174D02*
X10165753Y-17607650D01*
X10165753Y-17607650D02*
X10156230Y-17588603D01*
X10156230Y-17588603D02*
X10156230Y-17579079D01*
X10156230Y-17579079D02*
X10165753Y-17560031D01*
X10165753Y-17560031D02*
X10175277Y-17550508D01*
X10175277Y-17550508D02*
X10194325Y-17540984D01*
X10194325Y-17540984D02*
X10232420Y-17540984D01*
X10232420Y-17540984D02*
X10251468Y-17550508D01*
X10251468Y-17550508D02*
X10260991Y-17560031D01*
X10260991Y-17560031D02*
X10270515Y-17579079D01*
X10270515Y-17579079D02*
X10270515Y-17588603D01*
X10270515Y-17588603D02*
X10260991Y-17607650D01*
X10260991Y-17607650D02*
X10251468Y-17617174D01*
X10251468Y-17617174D02*
X10232420Y-17626698D01*
X10232420Y-17626698D02*
X10194325Y-17626698D01*
X10194325Y-17626698D02*
X10175277Y-17636222D01*
X10175277Y-17636222D02*
X10165753Y-17645746D01*
X10165753Y-17645746D02*
X10156230Y-17664793D01*
X10156230Y-17664793D02*
X10156230Y-17702889D01*
X10156230Y-17702889D02*
X10165753Y-17721936D01*
X10165753Y-17721936D02*
X10175277Y-17731460D01*
X10175277Y-17731460D02*
X10194325Y-17740984D01*
X10194325Y-17740984D02*
X10232420Y-17740984D01*
X10232420Y-17740984D02*
X10251468Y-17731460D01*
X10251468Y-17731460D02*
X10260991Y-17721936D01*
X10260991Y-17721936D02*
X10270515Y-17702889D01*
X10270515Y-17702889D02*
X10270515Y-17664793D01*
X10270515Y-17664793D02*
X10260991Y-17645746D01*
X10260991Y-17645746D02*
X10251468Y-17636222D01*
X10251468Y-17636222D02*
X10232420Y-17626698D01*
X10508611Y-17740984D02*
X10508611Y-17540984D01*
X10594325Y-17740984D02*
X10594325Y-17636222D01*
X10594325Y-17636222D02*
X10584801Y-17617174D01*
X10584801Y-17617174D02*
X10565753Y-17607650D01*
X10565753Y-17607650D02*
X10537182Y-17607650D01*
X10537182Y-17607650D02*
X10518134Y-17617174D01*
X10518134Y-17617174D02*
X10508611Y-17626698D01*
X10718134Y-17740984D02*
X10699087Y-17731460D01*
X10699087Y-17731460D02*
X10689563Y-17721936D01*
X10689563Y-17721936D02*
X10680039Y-17702889D01*
X10680039Y-17702889D02*
X10680039Y-17645746D01*
X10680039Y-17645746D02*
X10689563Y-17626698D01*
X10689563Y-17626698D02*
X10699087Y-17617174D01*
X10699087Y-17617174D02*
X10718134Y-17607650D01*
X10718134Y-17607650D02*
X10746706Y-17607650D01*
X10746706Y-17607650D02*
X10765753Y-17617174D01*
X10765753Y-17617174D02*
X10775277Y-17626698D01*
X10775277Y-17626698D02*
X10784801Y-17645746D01*
X10784801Y-17645746D02*
X10784801Y-17702889D01*
X10784801Y-17702889D02*
X10775277Y-17721936D01*
X10775277Y-17721936D02*
X10765753Y-17731460D01*
X10765753Y-17731460D02*
X10746706Y-17740984D01*
X10746706Y-17740984D02*
X10718134Y-17740984D01*
X10899087Y-17740984D02*
X10880039Y-17731460D01*
X10880039Y-17731460D02*
X10870515Y-17712412D01*
X10870515Y-17712412D02*
X10870515Y-17540984D01*
X11051468Y-17731460D02*
X11032420Y-17740984D01*
X11032420Y-17740984D02*
X10994325Y-17740984D01*
X10994325Y-17740984D02*
X10975277Y-17731460D01*
X10975277Y-17731460D02*
X10965753Y-17712412D01*
X10965753Y-17712412D02*
X10965753Y-17636222D01*
X10965753Y-17636222D02*
X10975277Y-17617174D01*
X10975277Y-17617174D02*
X10994325Y-17607650D01*
X10994325Y-17607650D02*
X11032420Y-17607650D01*
X11032420Y-17607650D02*
X11051468Y-17617174D01*
X11051468Y-17617174D02*
X11060992Y-17636222D01*
X11060992Y-17636222D02*
X11060992Y-17655270D01*
X11060992Y-17655270D02*
X10965753Y-17674317D01*
X11137182Y-17731460D02*
X11156230Y-17740984D01*
X11156230Y-17740984D02*
X11194325Y-17740984D01*
X11194325Y-17740984D02*
X11213372Y-17731460D01*
X11213372Y-17731460D02*
X11222896Y-17712412D01*
X11222896Y-17712412D02*
X11222896Y-17702889D01*
X11222896Y-17702889D02*
X11213372Y-17683841D01*
X11213372Y-17683841D02*
X11194325Y-17674317D01*
X11194325Y-17674317D02*
X11165753Y-17674317D01*
X11165753Y-17674317D02*
X11146706Y-17664793D01*
X11146706Y-17664793D02*
X11137182Y-17645746D01*
X11137182Y-17645746D02*
X11137182Y-17636222D01*
X11137182Y-17636222D02*
X11146706Y-17617174D01*
X11146706Y-17617174D02*
X11165753Y-17607650D01*
X11165753Y-17607650D02*
X11194325Y-17607650D01*
X11194325Y-17607650D02*
X11213372Y-17617174D01*
X11289563Y-17817174D02*
X11299087Y-17807650D01*
X11299087Y-17807650D02*
X11318134Y-17779079D01*
X11318134Y-17779079D02*
X11327658Y-17760031D01*
X11327658Y-17760031D02*
X11337182Y-17731460D01*
X11337182Y-17731460D02*
X11346706Y-17683841D01*
X11346706Y-17683841D02*
X11346706Y-17645746D01*
X11346706Y-17645746D02*
X11337182Y-17598127D01*
X11337182Y-17598127D02*
X11327658Y-17569555D01*
X11327658Y-17569555D02*
X11318134Y-17550508D01*
X11318134Y-17550508D02*
X11299087Y-17521936D01*
X11299087Y-17521936D02*
X11289563Y-17512412D01*
D12*
X6514500Y-17913500D02*
G75*
G02*
X6439500Y-17913500I-37500J0D01*
G01*
X6439500Y-17913500D02*
G75*
G02*
X6514500Y-17913500I37500J0D01*
G01*
D11*
X6813372Y-17804984D02*
X6832420Y-17804984D01*
X6832420Y-17804984D02*
X6851467Y-17814508D01*
X6851467Y-17814508D02*
X6860991Y-17824031D01*
X6860991Y-17824031D02*
X6870515Y-17843079D01*
X6870515Y-17843079D02*
X6880039Y-17881174D01*
X6880039Y-17881174D02*
X6880039Y-17928793D01*
X6880039Y-17928793D02*
X6870515Y-17966889D01*
X6870515Y-17966889D02*
X6860991Y-17985936D01*
X6860991Y-17985936D02*
X6851467Y-17995460D01*
X6851467Y-17995460D02*
X6832420Y-18004984D01*
X6832420Y-18004984D02*
X6813372Y-18004984D01*
X6813372Y-18004984D02*
X6794324Y-17995460D01*
X6794324Y-17995460D02*
X6784801Y-17985936D01*
X6784801Y-17985936D02*
X6775277Y-17966889D01*
X6775277Y-17966889D02*
X6765753Y-17928793D01*
X6765753Y-17928793D02*
X6765753Y-17881174D01*
X6765753Y-17881174D02*
X6775277Y-17843079D01*
X6775277Y-17843079D02*
X6784801Y-17824031D01*
X6784801Y-17824031D02*
X6794324Y-17814508D01*
X6794324Y-17814508D02*
X6813372Y-17804984D01*
X6965753Y-17985936D02*
X6975277Y-17995460D01*
X6975277Y-17995460D02*
X6965753Y-18004984D01*
X6965753Y-18004984D02*
X6956229Y-17995460D01*
X6956229Y-17995460D02*
X6965753Y-17985936D01*
X6965753Y-17985936D02*
X6965753Y-18004984D01*
X7041943Y-17804984D02*
X7175277Y-17804984D01*
X7175277Y-17804984D02*
X7089562Y-18004984D01*
X7346705Y-17804984D02*
X7251467Y-17804984D01*
X7251467Y-17804984D02*
X7241943Y-17900222D01*
X7241943Y-17900222D02*
X7251467Y-17890698D01*
X7251467Y-17890698D02*
X7270515Y-17881174D01*
X7270515Y-17881174D02*
X7318134Y-17881174D01*
X7318134Y-17881174D02*
X7337182Y-17890698D01*
X7337182Y-17890698D02*
X7346705Y-17900222D01*
X7346705Y-17900222D02*
X7356229Y-17919270D01*
X7356229Y-17919270D02*
X7356229Y-17966889D01*
X7356229Y-17966889D02*
X7346705Y-17985936D01*
X7346705Y-17985936D02*
X7337182Y-17995460D01*
X7337182Y-17995460D02*
X7318134Y-18004984D01*
X7318134Y-18004984D02*
X7270515Y-18004984D01*
X7270515Y-18004984D02*
X7251467Y-17995460D01*
X7251467Y-17995460D02*
X7241943Y-17985936D01*
X7480039Y-17804984D02*
X7499086Y-17804984D01*
X7499086Y-17804984D02*
X7518134Y-17814508D01*
X7518134Y-17814508D02*
X7527658Y-17824031D01*
X7527658Y-17824031D02*
X7537182Y-17843079D01*
X7537182Y-17843079D02*
X7546705Y-17881174D01*
X7546705Y-17881174D02*
X7546705Y-17928793D01*
X7546705Y-17928793D02*
X7537182Y-17966889D01*
X7537182Y-17966889D02*
X7527658Y-17985936D01*
X7527658Y-17985936D02*
X7518134Y-17995460D01*
X7518134Y-17995460D02*
X7499086Y-18004984D01*
X7499086Y-18004984D02*
X7480039Y-18004984D01*
X7480039Y-18004984D02*
X7460991Y-17995460D01*
X7460991Y-17995460D02*
X7451467Y-17985936D01*
X7451467Y-17985936D02*
X7441943Y-17966889D01*
X7441943Y-17966889D02*
X7432420Y-17928793D01*
X7432420Y-17928793D02*
X7432420Y-17881174D01*
X7432420Y-17881174D02*
X7441943Y-17843079D01*
X7441943Y-17843079D02*
X7451467Y-17824031D01*
X7451467Y-17824031D02*
X7460991Y-17814508D01*
X7460991Y-17814508D02*
X7480039Y-17804984D01*
X7632420Y-18004984D02*
X7632420Y-17871650D01*
X7632420Y-17890698D02*
X7641943Y-17881174D01*
X7641943Y-17881174D02*
X7660991Y-17871650D01*
X7660991Y-17871650D02*
X7689563Y-17871650D01*
X7689563Y-17871650D02*
X7708610Y-17881174D01*
X7708610Y-17881174D02*
X7718134Y-17900222D01*
X7718134Y-17900222D02*
X7718134Y-18004984D01*
X7718134Y-17900222D02*
X7727658Y-17881174D01*
X7727658Y-17881174D02*
X7746705Y-17871650D01*
X7746705Y-17871650D02*
X7775277Y-17871650D01*
X7775277Y-17871650D02*
X7794324Y-17881174D01*
X7794324Y-17881174D02*
X7803848Y-17900222D01*
X7803848Y-17900222D02*
X7803848Y-18004984D01*
X7899086Y-18004984D02*
X7899086Y-17871650D01*
X7899086Y-17890698D02*
X7908610Y-17881174D01*
X7908610Y-17881174D02*
X7927658Y-17871650D01*
X7927658Y-17871650D02*
X7956229Y-17871650D01*
X7956229Y-17871650D02*
X7975277Y-17881174D01*
X7975277Y-17881174D02*
X7984801Y-17900222D01*
X7984801Y-17900222D02*
X7984801Y-18004984D01*
X7984801Y-17900222D02*
X7994324Y-17881174D01*
X7994324Y-17881174D02*
X8013372Y-17871650D01*
X8013372Y-17871650D02*
X8041943Y-17871650D01*
X8041943Y-17871650D02*
X8060991Y-17881174D01*
X8060991Y-17881174D02*
X8070515Y-17900222D01*
X8070515Y-17900222D02*
X8070515Y-18004984D01*
X8460991Y-17795460D02*
X8289563Y-18052603D01*
X8718134Y-17804984D02*
X8737182Y-17804984D01*
X8737182Y-17804984D02*
X8756229Y-17814508D01*
X8756229Y-17814508D02*
X8765753Y-17824031D01*
X8765753Y-17824031D02*
X8775277Y-17843079D01*
X8775277Y-17843079D02*
X8784801Y-17881174D01*
X8784801Y-17881174D02*
X8784801Y-17928793D01*
X8784801Y-17928793D02*
X8775277Y-17966889D01*
X8775277Y-17966889D02*
X8765753Y-17985936D01*
X8765753Y-17985936D02*
X8756229Y-17995460D01*
X8756229Y-17995460D02*
X8737182Y-18004984D01*
X8737182Y-18004984D02*
X8718134Y-18004984D01*
X8718134Y-18004984D02*
X8699087Y-17995460D01*
X8699087Y-17995460D02*
X8689563Y-17985936D01*
X8689563Y-17985936D02*
X8680039Y-17966889D01*
X8680039Y-17966889D02*
X8670515Y-17928793D01*
X8670515Y-17928793D02*
X8670515Y-17881174D01*
X8670515Y-17881174D02*
X8680039Y-17843079D01*
X8680039Y-17843079D02*
X8689563Y-17824031D01*
X8689563Y-17824031D02*
X8699087Y-17814508D01*
X8699087Y-17814508D02*
X8718134Y-17804984D01*
X8870515Y-17985936D02*
X8880039Y-17995460D01*
X8880039Y-17995460D02*
X8870515Y-18004984D01*
X8870515Y-18004984D02*
X8860991Y-17995460D01*
X8860991Y-17995460D02*
X8870515Y-17985936D01*
X8870515Y-17985936D02*
X8870515Y-18004984D01*
X9003848Y-17804984D02*
X9022896Y-17804984D01*
X9022896Y-17804984D02*
X9041944Y-17814508D01*
X9041944Y-17814508D02*
X9051468Y-17824031D01*
X9051468Y-17824031D02*
X9060991Y-17843079D01*
X9060991Y-17843079D02*
X9070515Y-17881174D01*
X9070515Y-17881174D02*
X9070515Y-17928793D01*
X9070515Y-17928793D02*
X9060991Y-17966889D01*
X9060991Y-17966889D02*
X9051468Y-17985936D01*
X9051468Y-17985936D02*
X9041944Y-17995460D01*
X9041944Y-17995460D02*
X9022896Y-18004984D01*
X9022896Y-18004984D02*
X9003848Y-18004984D01*
X9003848Y-18004984D02*
X8984801Y-17995460D01*
X8984801Y-17995460D02*
X8975277Y-17985936D01*
X8975277Y-17985936D02*
X8965753Y-17966889D01*
X8965753Y-17966889D02*
X8956229Y-17928793D01*
X8956229Y-17928793D02*
X8956229Y-17881174D01*
X8956229Y-17881174D02*
X8965753Y-17843079D01*
X8965753Y-17843079D02*
X8975277Y-17824031D01*
X8975277Y-17824031D02*
X8984801Y-17814508D01*
X8984801Y-17814508D02*
X9003848Y-17804984D01*
X9146706Y-17824031D02*
X9156229Y-17814508D01*
X9156229Y-17814508D02*
X9175277Y-17804984D01*
X9175277Y-17804984D02*
X9222896Y-17804984D01*
X9222896Y-17804984D02*
X9241944Y-17814508D01*
X9241944Y-17814508D02*
X9251468Y-17824031D01*
X9251468Y-17824031D02*
X9260991Y-17843079D01*
X9260991Y-17843079D02*
X9260991Y-17862127D01*
X9260991Y-17862127D02*
X9251468Y-17890698D01*
X9251468Y-17890698D02*
X9137182Y-18004984D01*
X9137182Y-18004984D02*
X9260991Y-18004984D01*
X9356229Y-18004984D02*
X9394325Y-18004984D01*
X9394325Y-18004984D02*
X9413372Y-17995460D01*
X9413372Y-17995460D02*
X9422896Y-17985936D01*
X9422896Y-17985936D02*
X9441944Y-17957365D01*
X9441944Y-17957365D02*
X9451468Y-17919270D01*
X9451468Y-17919270D02*
X9451468Y-17843079D01*
X9451468Y-17843079D02*
X9441944Y-17824031D01*
X9441944Y-17824031D02*
X9432420Y-17814508D01*
X9432420Y-17814508D02*
X9413372Y-17804984D01*
X9413372Y-17804984D02*
X9375277Y-17804984D01*
X9375277Y-17804984D02*
X9356229Y-17814508D01*
X9356229Y-17814508D02*
X9346706Y-17824031D01*
X9346706Y-17824031D02*
X9337182Y-17843079D01*
X9337182Y-17843079D02*
X9337182Y-17890698D01*
X9337182Y-17890698D02*
X9346706Y-17909746D01*
X9346706Y-17909746D02*
X9356229Y-17919270D01*
X9356229Y-17919270D02*
X9375277Y-17928793D01*
X9375277Y-17928793D02*
X9413372Y-17928793D01*
X9413372Y-17928793D02*
X9432420Y-17919270D01*
X9432420Y-17919270D02*
X9441944Y-17909746D01*
X9441944Y-17909746D02*
X9451468Y-17890698D01*
X9632420Y-17804984D02*
X9537182Y-17804984D01*
X9537182Y-17804984D02*
X9527658Y-17900222D01*
X9527658Y-17900222D02*
X9537182Y-17890698D01*
X9537182Y-17890698D02*
X9556229Y-17881174D01*
X9556229Y-17881174D02*
X9603849Y-17881174D01*
X9603849Y-17881174D02*
X9622896Y-17890698D01*
X9622896Y-17890698D02*
X9632420Y-17900222D01*
X9632420Y-17900222D02*
X9641944Y-17919270D01*
X9641944Y-17919270D02*
X9641944Y-17966889D01*
X9641944Y-17966889D02*
X9632420Y-17985936D01*
X9632420Y-17985936D02*
X9622896Y-17995460D01*
X9622896Y-17995460D02*
X9603849Y-18004984D01*
X9603849Y-18004984D02*
X9556229Y-18004984D01*
X9556229Y-18004984D02*
X9537182Y-17995460D01*
X9537182Y-17995460D02*
X9527658Y-17985936D01*
X9718134Y-17804984D02*
X9718134Y-17843079D01*
X9794325Y-17804984D02*
X9794325Y-17843079D01*
X10089563Y-18081174D02*
X10080039Y-18071650D01*
X10080039Y-18071650D02*
X10060991Y-18043079D01*
X10060991Y-18043079D02*
X10051468Y-18024031D01*
X10051468Y-18024031D02*
X10041944Y-17995460D01*
X10041944Y-17995460D02*
X10032420Y-17947841D01*
X10032420Y-17947841D02*
X10032420Y-17909746D01*
X10032420Y-17909746D02*
X10041944Y-17862127D01*
X10041944Y-17862127D02*
X10051468Y-17833555D01*
X10051468Y-17833555D02*
X10060991Y-17814508D01*
X10060991Y-17814508D02*
X10080039Y-17785936D01*
X10080039Y-17785936D02*
X10089563Y-17776412D01*
X10156230Y-17824031D02*
X10165753Y-17814508D01*
X10165753Y-17814508D02*
X10184801Y-17804984D01*
X10184801Y-17804984D02*
X10232420Y-17804984D01*
X10232420Y-17804984D02*
X10251468Y-17814508D01*
X10251468Y-17814508D02*
X10260991Y-17824031D01*
X10260991Y-17824031D02*
X10270515Y-17843079D01*
X10270515Y-17843079D02*
X10270515Y-17862127D01*
X10270515Y-17862127D02*
X10260991Y-17890698D01*
X10260991Y-17890698D02*
X10146706Y-18004984D01*
X10146706Y-18004984D02*
X10270515Y-18004984D01*
X10508611Y-18004984D02*
X10508611Y-17804984D01*
X10594325Y-18004984D02*
X10594325Y-17900222D01*
X10594325Y-17900222D02*
X10584801Y-17881174D01*
X10584801Y-17881174D02*
X10565753Y-17871650D01*
X10565753Y-17871650D02*
X10537182Y-17871650D01*
X10537182Y-17871650D02*
X10518134Y-17881174D01*
X10518134Y-17881174D02*
X10508611Y-17890698D01*
X10718134Y-18004984D02*
X10699087Y-17995460D01*
X10699087Y-17995460D02*
X10689563Y-17985936D01*
X10689563Y-17985936D02*
X10680039Y-17966889D01*
X10680039Y-17966889D02*
X10680039Y-17909746D01*
X10680039Y-17909746D02*
X10689563Y-17890698D01*
X10689563Y-17890698D02*
X10699087Y-17881174D01*
X10699087Y-17881174D02*
X10718134Y-17871650D01*
X10718134Y-17871650D02*
X10746706Y-17871650D01*
X10746706Y-17871650D02*
X10765753Y-17881174D01*
X10765753Y-17881174D02*
X10775277Y-17890698D01*
X10775277Y-17890698D02*
X10784801Y-17909746D01*
X10784801Y-17909746D02*
X10784801Y-17966889D01*
X10784801Y-17966889D02*
X10775277Y-17985936D01*
X10775277Y-17985936D02*
X10765753Y-17995460D01*
X10765753Y-17995460D02*
X10746706Y-18004984D01*
X10746706Y-18004984D02*
X10718134Y-18004984D01*
X10899087Y-18004984D02*
X10880039Y-17995460D01*
X10880039Y-17995460D02*
X10870515Y-17976412D01*
X10870515Y-17976412D02*
X10870515Y-17804984D01*
X11051468Y-17995460D02*
X11032420Y-18004984D01*
X11032420Y-18004984D02*
X10994325Y-18004984D01*
X10994325Y-18004984D02*
X10975277Y-17995460D01*
X10975277Y-17995460D02*
X10965753Y-17976412D01*
X10965753Y-17976412D02*
X10965753Y-17900222D01*
X10965753Y-17900222D02*
X10975277Y-17881174D01*
X10975277Y-17881174D02*
X10994325Y-17871650D01*
X10994325Y-17871650D02*
X11032420Y-17871650D01*
X11032420Y-17871650D02*
X11051468Y-17881174D01*
X11051468Y-17881174D02*
X11060992Y-17900222D01*
X11060992Y-17900222D02*
X11060992Y-17919270D01*
X11060992Y-17919270D02*
X10965753Y-17938317D01*
X11137182Y-17995460D02*
X11156230Y-18004984D01*
X11156230Y-18004984D02*
X11194325Y-18004984D01*
X11194325Y-18004984D02*
X11213372Y-17995460D01*
X11213372Y-17995460D02*
X11222896Y-17976412D01*
X11222896Y-17976412D02*
X11222896Y-17966889D01*
X11222896Y-17966889D02*
X11213372Y-17947841D01*
X11213372Y-17947841D02*
X11194325Y-17938317D01*
X11194325Y-17938317D02*
X11165753Y-17938317D01*
X11165753Y-17938317D02*
X11146706Y-17928793D01*
X11146706Y-17928793D02*
X11137182Y-17909746D01*
X11137182Y-17909746D02*
X11137182Y-17900222D01*
X11137182Y-17900222D02*
X11146706Y-17881174D01*
X11146706Y-17881174D02*
X11165753Y-17871650D01*
X11165753Y-17871650D02*
X11194325Y-17871650D01*
X11194325Y-17871650D02*
X11213372Y-17881174D01*
X11289563Y-18081174D02*
X11299087Y-18071650D01*
X11299087Y-18071650D02*
X11318134Y-18043079D01*
X11318134Y-18043079D02*
X11327658Y-18024031D01*
X11327658Y-18024031D02*
X11337182Y-17995460D01*
X11337182Y-17995460D02*
X11346706Y-17947841D01*
X11346706Y-17947841D02*
X11346706Y-17909746D01*
X11346706Y-17909746D02*
X11337182Y-17862127D01*
X11337182Y-17862127D02*
X11327658Y-17833555D01*
X11327658Y-17833555D02*
X11318134Y-17814508D01*
X11318134Y-17814508D02*
X11299087Y-17785936D01*
X11299087Y-17785936D02*
X11289563Y-17776412D01*
D12*
X6474500Y-18137500D02*
X6474500Y-18217500D01*
X6434500Y-18177500D02*
X6514500Y-18177500D01*
D11*
X6813372Y-18068984D02*
X6832420Y-18068984D01*
X6832420Y-18068984D02*
X6851467Y-18078508D01*
X6851467Y-18078508D02*
X6860991Y-18088031D01*
X6860991Y-18088031D02*
X6870515Y-18107079D01*
X6870515Y-18107079D02*
X6880039Y-18145174D01*
X6880039Y-18145174D02*
X6880039Y-18192793D01*
X6880039Y-18192793D02*
X6870515Y-18230889D01*
X6870515Y-18230889D02*
X6860991Y-18249936D01*
X6860991Y-18249936D02*
X6851467Y-18259460D01*
X6851467Y-18259460D02*
X6832420Y-18268984D01*
X6832420Y-18268984D02*
X6813372Y-18268984D01*
X6813372Y-18268984D02*
X6794324Y-18259460D01*
X6794324Y-18259460D02*
X6784801Y-18249936D01*
X6784801Y-18249936D02*
X6775277Y-18230889D01*
X6775277Y-18230889D02*
X6765753Y-18192793D01*
X6765753Y-18192793D02*
X6765753Y-18145174D01*
X6765753Y-18145174D02*
X6775277Y-18107079D01*
X6775277Y-18107079D02*
X6784801Y-18088031D01*
X6784801Y-18088031D02*
X6794324Y-18078508D01*
X6794324Y-18078508D02*
X6813372Y-18068984D01*
X6965753Y-18249936D02*
X6975277Y-18259460D01*
X6975277Y-18259460D02*
X6965753Y-18268984D01*
X6965753Y-18268984D02*
X6956229Y-18259460D01*
X6956229Y-18259460D02*
X6965753Y-18249936D01*
X6965753Y-18249936D02*
X6965753Y-18268984D01*
X7089562Y-18154698D02*
X7070515Y-18145174D01*
X7070515Y-18145174D02*
X7060991Y-18135650D01*
X7060991Y-18135650D02*
X7051467Y-18116603D01*
X7051467Y-18116603D02*
X7051467Y-18107079D01*
X7051467Y-18107079D02*
X7060991Y-18088031D01*
X7060991Y-18088031D02*
X7070515Y-18078508D01*
X7070515Y-18078508D02*
X7089562Y-18068984D01*
X7089562Y-18068984D02*
X7127658Y-18068984D01*
X7127658Y-18068984D02*
X7146705Y-18078508D01*
X7146705Y-18078508D02*
X7156229Y-18088031D01*
X7156229Y-18088031D02*
X7165753Y-18107079D01*
X7165753Y-18107079D02*
X7165753Y-18116603D01*
X7165753Y-18116603D02*
X7156229Y-18135650D01*
X7156229Y-18135650D02*
X7146705Y-18145174D01*
X7146705Y-18145174D02*
X7127658Y-18154698D01*
X7127658Y-18154698D02*
X7089562Y-18154698D01*
X7089562Y-18154698D02*
X7070515Y-18164222D01*
X7070515Y-18164222D02*
X7060991Y-18173746D01*
X7060991Y-18173746D02*
X7051467Y-18192793D01*
X7051467Y-18192793D02*
X7051467Y-18230889D01*
X7051467Y-18230889D02*
X7060991Y-18249936D01*
X7060991Y-18249936D02*
X7070515Y-18259460D01*
X7070515Y-18259460D02*
X7089562Y-18268984D01*
X7089562Y-18268984D02*
X7127658Y-18268984D01*
X7127658Y-18268984D02*
X7146705Y-18259460D01*
X7146705Y-18259460D02*
X7156229Y-18249936D01*
X7156229Y-18249936D02*
X7165753Y-18230889D01*
X7165753Y-18230889D02*
X7165753Y-18192793D01*
X7165753Y-18192793D02*
X7156229Y-18173746D01*
X7156229Y-18173746D02*
X7146705Y-18164222D01*
X7146705Y-18164222D02*
X7127658Y-18154698D01*
X7289562Y-18068984D02*
X7308610Y-18068984D01*
X7308610Y-18068984D02*
X7327658Y-18078508D01*
X7327658Y-18078508D02*
X7337182Y-18088031D01*
X7337182Y-18088031D02*
X7346705Y-18107079D01*
X7346705Y-18107079D02*
X7356229Y-18145174D01*
X7356229Y-18145174D02*
X7356229Y-18192793D01*
X7356229Y-18192793D02*
X7346705Y-18230889D01*
X7346705Y-18230889D02*
X7337182Y-18249936D01*
X7337182Y-18249936D02*
X7327658Y-18259460D01*
X7327658Y-18259460D02*
X7308610Y-18268984D01*
X7308610Y-18268984D02*
X7289562Y-18268984D01*
X7289562Y-18268984D02*
X7270515Y-18259460D01*
X7270515Y-18259460D02*
X7260991Y-18249936D01*
X7260991Y-18249936D02*
X7251467Y-18230889D01*
X7251467Y-18230889D02*
X7241943Y-18192793D01*
X7241943Y-18192793D02*
X7241943Y-18145174D01*
X7241943Y-18145174D02*
X7251467Y-18107079D01*
X7251467Y-18107079D02*
X7260991Y-18088031D01*
X7260991Y-18088031D02*
X7270515Y-18078508D01*
X7270515Y-18078508D02*
X7289562Y-18068984D01*
X7480039Y-18068984D02*
X7499086Y-18068984D01*
X7499086Y-18068984D02*
X7518134Y-18078508D01*
X7518134Y-18078508D02*
X7527658Y-18088031D01*
X7527658Y-18088031D02*
X7537182Y-18107079D01*
X7537182Y-18107079D02*
X7546705Y-18145174D01*
X7546705Y-18145174D02*
X7546705Y-18192793D01*
X7546705Y-18192793D02*
X7537182Y-18230889D01*
X7537182Y-18230889D02*
X7527658Y-18249936D01*
X7527658Y-18249936D02*
X7518134Y-18259460D01*
X7518134Y-18259460D02*
X7499086Y-18268984D01*
X7499086Y-18268984D02*
X7480039Y-18268984D01*
X7480039Y-18268984D02*
X7460991Y-18259460D01*
X7460991Y-18259460D02*
X7451467Y-18249936D01*
X7451467Y-18249936D02*
X7441943Y-18230889D01*
X7441943Y-18230889D02*
X7432420Y-18192793D01*
X7432420Y-18192793D02*
X7432420Y-18145174D01*
X7432420Y-18145174D02*
X7441943Y-18107079D01*
X7441943Y-18107079D02*
X7451467Y-18088031D01*
X7451467Y-18088031D02*
X7460991Y-18078508D01*
X7460991Y-18078508D02*
X7480039Y-18068984D01*
X7632420Y-18268984D02*
X7632420Y-18135650D01*
X7632420Y-18154698D02*
X7641943Y-18145174D01*
X7641943Y-18145174D02*
X7660991Y-18135650D01*
X7660991Y-18135650D02*
X7689563Y-18135650D01*
X7689563Y-18135650D02*
X7708610Y-18145174D01*
X7708610Y-18145174D02*
X7718134Y-18164222D01*
X7718134Y-18164222D02*
X7718134Y-18268984D01*
X7718134Y-18164222D02*
X7727658Y-18145174D01*
X7727658Y-18145174D02*
X7746705Y-18135650D01*
X7746705Y-18135650D02*
X7775277Y-18135650D01*
X7775277Y-18135650D02*
X7794324Y-18145174D01*
X7794324Y-18145174D02*
X7803848Y-18164222D01*
X7803848Y-18164222D02*
X7803848Y-18268984D01*
X7899086Y-18268984D02*
X7899086Y-18135650D01*
X7899086Y-18154698D02*
X7908610Y-18145174D01*
X7908610Y-18145174D02*
X7927658Y-18135650D01*
X7927658Y-18135650D02*
X7956229Y-18135650D01*
X7956229Y-18135650D02*
X7975277Y-18145174D01*
X7975277Y-18145174D02*
X7984801Y-18164222D01*
X7984801Y-18164222D02*
X7984801Y-18268984D01*
X7984801Y-18164222D02*
X7994324Y-18145174D01*
X7994324Y-18145174D02*
X8013372Y-18135650D01*
X8013372Y-18135650D02*
X8041943Y-18135650D01*
X8041943Y-18135650D02*
X8060991Y-18145174D01*
X8060991Y-18145174D02*
X8070515Y-18164222D01*
X8070515Y-18164222D02*
X8070515Y-18268984D01*
X8460991Y-18059460D02*
X8289563Y-18316603D01*
X8718134Y-18068984D02*
X8737182Y-18068984D01*
X8737182Y-18068984D02*
X8756229Y-18078508D01*
X8756229Y-18078508D02*
X8765753Y-18088031D01*
X8765753Y-18088031D02*
X8775277Y-18107079D01*
X8775277Y-18107079D02*
X8784801Y-18145174D01*
X8784801Y-18145174D02*
X8784801Y-18192793D01*
X8784801Y-18192793D02*
X8775277Y-18230889D01*
X8775277Y-18230889D02*
X8765753Y-18249936D01*
X8765753Y-18249936D02*
X8756229Y-18259460D01*
X8756229Y-18259460D02*
X8737182Y-18268984D01*
X8737182Y-18268984D02*
X8718134Y-18268984D01*
X8718134Y-18268984D02*
X8699087Y-18259460D01*
X8699087Y-18259460D02*
X8689563Y-18249936D01*
X8689563Y-18249936D02*
X8680039Y-18230889D01*
X8680039Y-18230889D02*
X8670515Y-18192793D01*
X8670515Y-18192793D02*
X8670515Y-18145174D01*
X8670515Y-18145174D02*
X8680039Y-18107079D01*
X8680039Y-18107079D02*
X8689563Y-18088031D01*
X8689563Y-18088031D02*
X8699087Y-18078508D01*
X8699087Y-18078508D02*
X8718134Y-18068984D01*
X8870515Y-18249936D02*
X8880039Y-18259460D01*
X8880039Y-18259460D02*
X8870515Y-18268984D01*
X8870515Y-18268984D02*
X8860991Y-18259460D01*
X8860991Y-18259460D02*
X8870515Y-18249936D01*
X8870515Y-18249936D02*
X8870515Y-18268984D01*
X9003848Y-18068984D02*
X9022896Y-18068984D01*
X9022896Y-18068984D02*
X9041944Y-18078508D01*
X9041944Y-18078508D02*
X9051468Y-18088031D01*
X9051468Y-18088031D02*
X9060991Y-18107079D01*
X9060991Y-18107079D02*
X9070515Y-18145174D01*
X9070515Y-18145174D02*
X9070515Y-18192793D01*
X9070515Y-18192793D02*
X9060991Y-18230889D01*
X9060991Y-18230889D02*
X9051468Y-18249936D01*
X9051468Y-18249936D02*
X9041944Y-18259460D01*
X9041944Y-18259460D02*
X9022896Y-18268984D01*
X9022896Y-18268984D02*
X9003848Y-18268984D01*
X9003848Y-18268984D02*
X8984801Y-18259460D01*
X8984801Y-18259460D02*
X8975277Y-18249936D01*
X8975277Y-18249936D02*
X8965753Y-18230889D01*
X8965753Y-18230889D02*
X8956229Y-18192793D01*
X8956229Y-18192793D02*
X8956229Y-18145174D01*
X8956229Y-18145174D02*
X8965753Y-18107079D01*
X8965753Y-18107079D02*
X8975277Y-18088031D01*
X8975277Y-18088031D02*
X8984801Y-18078508D01*
X8984801Y-18078508D02*
X9003848Y-18068984D01*
X9137182Y-18068984D02*
X9260991Y-18068984D01*
X9260991Y-18068984D02*
X9194325Y-18145174D01*
X9194325Y-18145174D02*
X9222896Y-18145174D01*
X9222896Y-18145174D02*
X9241944Y-18154698D01*
X9241944Y-18154698D02*
X9251468Y-18164222D01*
X9251468Y-18164222D02*
X9260991Y-18183270D01*
X9260991Y-18183270D02*
X9260991Y-18230889D01*
X9260991Y-18230889D02*
X9251468Y-18249936D01*
X9251468Y-18249936D02*
X9241944Y-18259460D01*
X9241944Y-18259460D02*
X9222896Y-18268984D01*
X9222896Y-18268984D02*
X9165753Y-18268984D01*
X9165753Y-18268984D02*
X9146706Y-18259460D01*
X9146706Y-18259460D02*
X9137182Y-18249936D01*
X9451468Y-18268984D02*
X9337182Y-18268984D01*
X9394325Y-18268984D02*
X9394325Y-18068984D01*
X9394325Y-18068984D02*
X9375277Y-18097555D01*
X9375277Y-18097555D02*
X9356229Y-18116603D01*
X9356229Y-18116603D02*
X9337182Y-18126127D01*
X9632420Y-18068984D02*
X9537182Y-18068984D01*
X9537182Y-18068984D02*
X9527658Y-18164222D01*
X9527658Y-18164222D02*
X9537182Y-18154698D01*
X9537182Y-18154698D02*
X9556229Y-18145174D01*
X9556229Y-18145174D02*
X9603849Y-18145174D01*
X9603849Y-18145174D02*
X9622896Y-18154698D01*
X9622896Y-18154698D02*
X9632420Y-18164222D01*
X9632420Y-18164222D02*
X9641944Y-18183270D01*
X9641944Y-18183270D02*
X9641944Y-18230889D01*
X9641944Y-18230889D02*
X9632420Y-18249936D01*
X9632420Y-18249936D02*
X9622896Y-18259460D01*
X9622896Y-18259460D02*
X9603849Y-18268984D01*
X9603849Y-18268984D02*
X9556229Y-18268984D01*
X9556229Y-18268984D02*
X9537182Y-18259460D01*
X9537182Y-18259460D02*
X9527658Y-18249936D01*
X9718134Y-18068984D02*
X9718134Y-18107079D01*
X9794325Y-18068984D02*
X9794325Y-18107079D01*
X10089563Y-18345174D02*
X10080039Y-18335650D01*
X10080039Y-18335650D02*
X10060991Y-18307079D01*
X10060991Y-18307079D02*
X10051468Y-18288031D01*
X10051468Y-18288031D02*
X10041944Y-18259460D01*
X10041944Y-18259460D02*
X10032420Y-18211841D01*
X10032420Y-18211841D02*
X10032420Y-18173746D01*
X10032420Y-18173746D02*
X10041944Y-18126127D01*
X10041944Y-18126127D02*
X10051468Y-18097555D01*
X10051468Y-18097555D02*
X10060991Y-18078508D01*
X10060991Y-18078508D02*
X10080039Y-18049936D01*
X10080039Y-18049936D02*
X10089563Y-18040412D01*
X10270515Y-18268984D02*
X10156230Y-18268984D01*
X10213372Y-18268984D02*
X10213372Y-18068984D01*
X10213372Y-18068984D02*
X10194325Y-18097555D01*
X10194325Y-18097555D02*
X10175277Y-18116603D01*
X10175277Y-18116603D02*
X10156230Y-18126127D01*
X10346706Y-18088031D02*
X10356230Y-18078508D01*
X10356230Y-18078508D02*
X10375277Y-18068984D01*
X10375277Y-18068984D02*
X10422896Y-18068984D01*
X10422896Y-18068984D02*
X10441944Y-18078508D01*
X10441944Y-18078508D02*
X10451468Y-18088031D01*
X10451468Y-18088031D02*
X10460991Y-18107079D01*
X10460991Y-18107079D02*
X10460991Y-18126127D01*
X10460991Y-18126127D02*
X10451468Y-18154698D01*
X10451468Y-18154698D02*
X10337182Y-18268984D01*
X10337182Y-18268984D02*
X10460991Y-18268984D01*
X10699087Y-18268984D02*
X10699087Y-18068984D01*
X10784801Y-18268984D02*
X10784801Y-18164222D01*
X10784801Y-18164222D02*
X10775277Y-18145174D01*
X10775277Y-18145174D02*
X10756230Y-18135650D01*
X10756230Y-18135650D02*
X10727658Y-18135650D01*
X10727658Y-18135650D02*
X10708611Y-18145174D01*
X10708611Y-18145174D02*
X10699087Y-18154698D01*
X10908611Y-18268984D02*
X10889563Y-18259460D01*
X10889563Y-18259460D02*
X10880039Y-18249936D01*
X10880039Y-18249936D02*
X10870515Y-18230889D01*
X10870515Y-18230889D02*
X10870515Y-18173746D01*
X10870515Y-18173746D02*
X10880039Y-18154698D01*
X10880039Y-18154698D02*
X10889563Y-18145174D01*
X10889563Y-18145174D02*
X10908611Y-18135650D01*
X10908611Y-18135650D02*
X10937182Y-18135650D01*
X10937182Y-18135650D02*
X10956230Y-18145174D01*
X10956230Y-18145174D02*
X10965753Y-18154698D01*
X10965753Y-18154698D02*
X10975277Y-18173746D01*
X10975277Y-18173746D02*
X10975277Y-18230889D01*
X10975277Y-18230889D02*
X10965753Y-18249936D01*
X10965753Y-18249936D02*
X10956230Y-18259460D01*
X10956230Y-18259460D02*
X10937182Y-18268984D01*
X10937182Y-18268984D02*
X10908611Y-18268984D01*
X11089563Y-18268984D02*
X11070515Y-18259460D01*
X11070515Y-18259460D02*
X11060992Y-18240412D01*
X11060992Y-18240412D02*
X11060992Y-18068984D01*
X11241944Y-18259460D02*
X11222896Y-18268984D01*
X11222896Y-18268984D02*
X11184801Y-18268984D01*
X11184801Y-18268984D02*
X11165753Y-18259460D01*
X11165753Y-18259460D02*
X11156230Y-18240412D01*
X11156230Y-18240412D02*
X11156230Y-18164222D01*
X11156230Y-18164222D02*
X11165753Y-18145174D01*
X11165753Y-18145174D02*
X11184801Y-18135650D01*
X11184801Y-18135650D02*
X11222896Y-18135650D01*
X11222896Y-18135650D02*
X11241944Y-18145174D01*
X11241944Y-18145174D02*
X11251468Y-18164222D01*
X11251468Y-18164222D02*
X11251468Y-18183270D01*
X11251468Y-18183270D02*
X11156230Y-18202317D01*
X11327658Y-18259460D02*
X11346706Y-18268984D01*
X11346706Y-18268984D02*
X11384801Y-18268984D01*
X11384801Y-18268984D02*
X11403849Y-18259460D01*
X11403849Y-18259460D02*
X11413372Y-18240412D01*
X11413372Y-18240412D02*
X11413372Y-18230889D01*
X11413372Y-18230889D02*
X11403849Y-18211841D01*
X11403849Y-18211841D02*
X11384801Y-18202317D01*
X11384801Y-18202317D02*
X11356230Y-18202317D01*
X11356230Y-18202317D02*
X11337182Y-18192793D01*
X11337182Y-18192793D02*
X11327658Y-18173746D01*
X11327658Y-18173746D02*
X11327658Y-18164222D01*
X11327658Y-18164222D02*
X11337182Y-18145174D01*
X11337182Y-18145174D02*
X11356230Y-18135650D01*
X11356230Y-18135650D02*
X11384801Y-18135650D01*
X11384801Y-18135650D02*
X11403849Y-18145174D01*
X11480039Y-18345174D02*
X11489563Y-18335650D01*
X11489563Y-18335650D02*
X11508611Y-18307079D01*
X11508611Y-18307079D02*
X11518134Y-18288031D01*
X11518134Y-18288031D02*
X11527658Y-18259460D01*
X11527658Y-18259460D02*
X11537182Y-18211841D01*
X11537182Y-18211841D02*
X11537182Y-18173746D01*
X11537182Y-18173746D02*
X11527658Y-18126127D01*
X11527658Y-18126127D02*
X11518134Y-18097555D01*
X11518134Y-18097555D02*
X11508611Y-18078508D01*
X11508611Y-18078508D02*
X11489563Y-18049936D01*
X11489563Y-18049936D02*
X11480039Y-18040412D01*
D12*
X6501320Y-18473320D02*
X6501320Y-18409680D01*
X6437680Y-18409680D01*
X6437680Y-18473320D01*
X6501320Y-18473320D01*
D11*
X6813372Y-18332984D02*
X6832420Y-18332984D01*
X6832420Y-18332984D02*
X6851467Y-18342508D01*
X6851467Y-18342508D02*
X6860991Y-18352031D01*
X6860991Y-18352031D02*
X6870515Y-18371079D01*
X6870515Y-18371079D02*
X6880039Y-18409174D01*
X6880039Y-18409174D02*
X6880039Y-18456793D01*
X6880039Y-18456793D02*
X6870515Y-18494889D01*
X6870515Y-18494889D02*
X6860991Y-18513936D01*
X6860991Y-18513936D02*
X6851467Y-18523460D01*
X6851467Y-18523460D02*
X6832420Y-18532984D01*
X6832420Y-18532984D02*
X6813372Y-18532984D01*
X6813372Y-18532984D02*
X6794324Y-18523460D01*
X6794324Y-18523460D02*
X6784801Y-18513936D01*
X6784801Y-18513936D02*
X6775277Y-18494889D01*
X6775277Y-18494889D02*
X6765753Y-18456793D01*
X6765753Y-18456793D02*
X6765753Y-18409174D01*
X6765753Y-18409174D02*
X6775277Y-18371079D01*
X6775277Y-18371079D02*
X6784801Y-18352031D01*
X6784801Y-18352031D02*
X6794324Y-18342508D01*
X6794324Y-18342508D02*
X6813372Y-18332984D01*
X6965753Y-18513936D02*
X6975277Y-18523460D01*
X6975277Y-18523460D02*
X6965753Y-18532984D01*
X6965753Y-18532984D02*
X6956229Y-18523460D01*
X6956229Y-18523460D02*
X6965753Y-18513936D01*
X6965753Y-18513936D02*
X6965753Y-18532984D01*
X7070515Y-18532984D02*
X7108610Y-18532984D01*
X7108610Y-18532984D02*
X7127658Y-18523460D01*
X7127658Y-18523460D02*
X7137182Y-18513936D01*
X7137182Y-18513936D02*
X7156229Y-18485365D01*
X7156229Y-18485365D02*
X7165753Y-18447270D01*
X7165753Y-18447270D02*
X7165753Y-18371079D01*
X7165753Y-18371079D02*
X7156229Y-18352031D01*
X7156229Y-18352031D02*
X7146705Y-18342508D01*
X7146705Y-18342508D02*
X7127658Y-18332984D01*
X7127658Y-18332984D02*
X7089562Y-18332984D01*
X7089562Y-18332984D02*
X7070515Y-18342508D01*
X7070515Y-18342508D02*
X7060991Y-18352031D01*
X7060991Y-18352031D02*
X7051467Y-18371079D01*
X7051467Y-18371079D02*
X7051467Y-18418698D01*
X7051467Y-18418698D02*
X7060991Y-18437746D01*
X7060991Y-18437746D02*
X7070515Y-18447270D01*
X7070515Y-18447270D02*
X7089562Y-18456793D01*
X7089562Y-18456793D02*
X7127658Y-18456793D01*
X7127658Y-18456793D02*
X7146705Y-18447270D01*
X7146705Y-18447270D02*
X7156229Y-18437746D01*
X7156229Y-18437746D02*
X7165753Y-18418698D01*
X7289562Y-18332984D02*
X7308610Y-18332984D01*
X7308610Y-18332984D02*
X7327658Y-18342508D01*
X7327658Y-18342508D02*
X7337182Y-18352031D01*
X7337182Y-18352031D02*
X7346705Y-18371079D01*
X7346705Y-18371079D02*
X7356229Y-18409174D01*
X7356229Y-18409174D02*
X7356229Y-18456793D01*
X7356229Y-18456793D02*
X7346705Y-18494889D01*
X7346705Y-18494889D02*
X7337182Y-18513936D01*
X7337182Y-18513936D02*
X7327658Y-18523460D01*
X7327658Y-18523460D02*
X7308610Y-18532984D01*
X7308610Y-18532984D02*
X7289562Y-18532984D01*
X7289562Y-18532984D02*
X7270515Y-18523460D01*
X7270515Y-18523460D02*
X7260991Y-18513936D01*
X7260991Y-18513936D02*
X7251467Y-18494889D01*
X7251467Y-18494889D02*
X7241943Y-18456793D01*
X7241943Y-18456793D02*
X7241943Y-18409174D01*
X7241943Y-18409174D02*
X7251467Y-18371079D01*
X7251467Y-18371079D02*
X7260991Y-18352031D01*
X7260991Y-18352031D02*
X7270515Y-18342508D01*
X7270515Y-18342508D02*
X7289562Y-18332984D01*
X7480039Y-18332984D02*
X7499086Y-18332984D01*
X7499086Y-18332984D02*
X7518134Y-18342508D01*
X7518134Y-18342508D02*
X7527658Y-18352031D01*
X7527658Y-18352031D02*
X7537182Y-18371079D01*
X7537182Y-18371079D02*
X7546705Y-18409174D01*
X7546705Y-18409174D02*
X7546705Y-18456793D01*
X7546705Y-18456793D02*
X7537182Y-18494889D01*
X7537182Y-18494889D02*
X7527658Y-18513936D01*
X7527658Y-18513936D02*
X7518134Y-18523460D01*
X7518134Y-18523460D02*
X7499086Y-18532984D01*
X7499086Y-18532984D02*
X7480039Y-18532984D01*
X7480039Y-18532984D02*
X7460991Y-18523460D01*
X7460991Y-18523460D02*
X7451467Y-18513936D01*
X7451467Y-18513936D02*
X7441943Y-18494889D01*
X7441943Y-18494889D02*
X7432420Y-18456793D01*
X7432420Y-18456793D02*
X7432420Y-18409174D01*
X7432420Y-18409174D02*
X7441943Y-18371079D01*
X7441943Y-18371079D02*
X7451467Y-18352031D01*
X7451467Y-18352031D02*
X7460991Y-18342508D01*
X7460991Y-18342508D02*
X7480039Y-18332984D01*
X7632420Y-18532984D02*
X7632420Y-18399650D01*
X7632420Y-18418698D02*
X7641943Y-18409174D01*
X7641943Y-18409174D02*
X7660991Y-18399650D01*
X7660991Y-18399650D02*
X7689563Y-18399650D01*
X7689563Y-18399650D02*
X7708610Y-18409174D01*
X7708610Y-18409174D02*
X7718134Y-18428222D01*
X7718134Y-18428222D02*
X7718134Y-18532984D01*
X7718134Y-18428222D02*
X7727658Y-18409174D01*
X7727658Y-18409174D02*
X7746705Y-18399650D01*
X7746705Y-18399650D02*
X7775277Y-18399650D01*
X7775277Y-18399650D02*
X7794324Y-18409174D01*
X7794324Y-18409174D02*
X7803848Y-18428222D01*
X7803848Y-18428222D02*
X7803848Y-18532984D01*
X7899086Y-18532984D02*
X7899086Y-18399650D01*
X7899086Y-18418698D02*
X7908610Y-18409174D01*
X7908610Y-18409174D02*
X7927658Y-18399650D01*
X7927658Y-18399650D02*
X7956229Y-18399650D01*
X7956229Y-18399650D02*
X7975277Y-18409174D01*
X7975277Y-18409174D02*
X7984801Y-18428222D01*
X7984801Y-18428222D02*
X7984801Y-18532984D01*
X7984801Y-18428222D02*
X7994324Y-18409174D01*
X7994324Y-18409174D02*
X8013372Y-18399650D01*
X8013372Y-18399650D02*
X8041943Y-18399650D01*
X8041943Y-18399650D02*
X8060991Y-18409174D01*
X8060991Y-18409174D02*
X8070515Y-18428222D01*
X8070515Y-18428222D02*
X8070515Y-18532984D01*
X8460991Y-18323460D02*
X8289563Y-18580603D01*
X8718134Y-18332984D02*
X8737182Y-18332984D01*
X8737182Y-18332984D02*
X8756229Y-18342508D01*
X8756229Y-18342508D02*
X8765753Y-18352031D01*
X8765753Y-18352031D02*
X8775277Y-18371079D01*
X8775277Y-18371079D02*
X8784801Y-18409174D01*
X8784801Y-18409174D02*
X8784801Y-18456793D01*
X8784801Y-18456793D02*
X8775277Y-18494889D01*
X8775277Y-18494889D02*
X8765753Y-18513936D01*
X8765753Y-18513936D02*
X8756229Y-18523460D01*
X8756229Y-18523460D02*
X8737182Y-18532984D01*
X8737182Y-18532984D02*
X8718134Y-18532984D01*
X8718134Y-18532984D02*
X8699087Y-18523460D01*
X8699087Y-18523460D02*
X8689563Y-18513936D01*
X8689563Y-18513936D02*
X8680039Y-18494889D01*
X8680039Y-18494889D02*
X8670515Y-18456793D01*
X8670515Y-18456793D02*
X8670515Y-18409174D01*
X8670515Y-18409174D02*
X8680039Y-18371079D01*
X8680039Y-18371079D02*
X8689563Y-18352031D01*
X8689563Y-18352031D02*
X8699087Y-18342508D01*
X8699087Y-18342508D02*
X8718134Y-18332984D01*
X8870515Y-18513936D02*
X8880039Y-18523460D01*
X8880039Y-18523460D02*
X8870515Y-18532984D01*
X8870515Y-18532984D02*
X8860991Y-18523460D01*
X8860991Y-18523460D02*
X8870515Y-18513936D01*
X8870515Y-18513936D02*
X8870515Y-18532984D01*
X9003848Y-18332984D02*
X9022896Y-18332984D01*
X9022896Y-18332984D02*
X9041944Y-18342508D01*
X9041944Y-18342508D02*
X9051468Y-18352031D01*
X9051468Y-18352031D02*
X9060991Y-18371079D01*
X9060991Y-18371079D02*
X9070515Y-18409174D01*
X9070515Y-18409174D02*
X9070515Y-18456793D01*
X9070515Y-18456793D02*
X9060991Y-18494889D01*
X9060991Y-18494889D02*
X9051468Y-18513936D01*
X9051468Y-18513936D02*
X9041944Y-18523460D01*
X9041944Y-18523460D02*
X9022896Y-18532984D01*
X9022896Y-18532984D02*
X9003848Y-18532984D01*
X9003848Y-18532984D02*
X8984801Y-18523460D01*
X8984801Y-18523460D02*
X8975277Y-18513936D01*
X8975277Y-18513936D02*
X8965753Y-18494889D01*
X8965753Y-18494889D02*
X8956229Y-18456793D01*
X8956229Y-18456793D02*
X8956229Y-18409174D01*
X8956229Y-18409174D02*
X8965753Y-18371079D01*
X8965753Y-18371079D02*
X8975277Y-18352031D01*
X8975277Y-18352031D02*
X8984801Y-18342508D01*
X8984801Y-18342508D02*
X9003848Y-18332984D01*
X9137182Y-18332984D02*
X9260991Y-18332984D01*
X9260991Y-18332984D02*
X9194325Y-18409174D01*
X9194325Y-18409174D02*
X9222896Y-18409174D01*
X9222896Y-18409174D02*
X9241944Y-18418698D01*
X9241944Y-18418698D02*
X9251468Y-18428222D01*
X9251468Y-18428222D02*
X9260991Y-18447270D01*
X9260991Y-18447270D02*
X9260991Y-18494889D01*
X9260991Y-18494889D02*
X9251468Y-18513936D01*
X9251468Y-18513936D02*
X9241944Y-18523460D01*
X9241944Y-18523460D02*
X9222896Y-18532984D01*
X9222896Y-18532984D02*
X9165753Y-18532984D01*
X9165753Y-18532984D02*
X9146706Y-18523460D01*
X9146706Y-18523460D02*
X9137182Y-18513936D01*
X9441944Y-18332984D02*
X9346706Y-18332984D01*
X9346706Y-18332984D02*
X9337182Y-18428222D01*
X9337182Y-18428222D02*
X9346706Y-18418698D01*
X9346706Y-18418698D02*
X9365753Y-18409174D01*
X9365753Y-18409174D02*
X9413372Y-18409174D01*
X9413372Y-18409174D02*
X9432420Y-18418698D01*
X9432420Y-18418698D02*
X9441944Y-18428222D01*
X9441944Y-18428222D02*
X9451468Y-18447270D01*
X9451468Y-18447270D02*
X9451468Y-18494889D01*
X9451468Y-18494889D02*
X9441944Y-18513936D01*
X9441944Y-18513936D02*
X9432420Y-18523460D01*
X9432420Y-18523460D02*
X9413372Y-18532984D01*
X9413372Y-18532984D02*
X9365753Y-18532984D01*
X9365753Y-18532984D02*
X9346706Y-18523460D01*
X9346706Y-18523460D02*
X9337182Y-18513936D01*
X9622896Y-18399650D02*
X9622896Y-18532984D01*
X9575277Y-18323460D02*
X9527658Y-18466317D01*
X9527658Y-18466317D02*
X9651468Y-18466317D01*
X9718134Y-18332984D02*
X9718134Y-18371079D01*
X9794325Y-18332984D02*
X9794325Y-18371079D01*
X10089563Y-18609174D02*
X10080039Y-18599650D01*
X10080039Y-18599650D02*
X10060991Y-18571079D01*
X10060991Y-18571079D02*
X10051468Y-18552031D01*
X10051468Y-18552031D02*
X10041944Y-18523460D01*
X10041944Y-18523460D02*
X10032420Y-18475841D01*
X10032420Y-18475841D02*
X10032420Y-18437746D01*
X10032420Y-18437746D02*
X10041944Y-18390127D01*
X10041944Y-18390127D02*
X10051468Y-18361555D01*
X10051468Y-18361555D02*
X10060991Y-18342508D01*
X10060991Y-18342508D02*
X10080039Y-18313936D01*
X10080039Y-18313936D02*
X10089563Y-18304412D01*
X10251468Y-18399650D02*
X10251468Y-18532984D01*
X10203849Y-18323460D02*
X10156230Y-18466317D01*
X10156230Y-18466317D02*
X10280039Y-18466317D01*
X10508611Y-18532984D02*
X10508611Y-18332984D01*
X10594325Y-18532984D02*
X10594325Y-18428222D01*
X10594325Y-18428222D02*
X10584801Y-18409174D01*
X10584801Y-18409174D02*
X10565753Y-18399650D01*
X10565753Y-18399650D02*
X10537182Y-18399650D01*
X10537182Y-18399650D02*
X10518134Y-18409174D01*
X10518134Y-18409174D02*
X10508611Y-18418698D01*
X10718134Y-18532984D02*
X10699087Y-18523460D01*
X10699087Y-18523460D02*
X10689563Y-18513936D01*
X10689563Y-18513936D02*
X10680039Y-18494889D01*
X10680039Y-18494889D02*
X10680039Y-18437746D01*
X10680039Y-18437746D02*
X10689563Y-18418698D01*
X10689563Y-18418698D02*
X10699087Y-18409174D01*
X10699087Y-18409174D02*
X10718134Y-18399650D01*
X10718134Y-18399650D02*
X10746706Y-18399650D01*
X10746706Y-18399650D02*
X10765753Y-18409174D01*
X10765753Y-18409174D02*
X10775277Y-18418698D01*
X10775277Y-18418698D02*
X10784801Y-18437746D01*
X10784801Y-18437746D02*
X10784801Y-18494889D01*
X10784801Y-18494889D02*
X10775277Y-18513936D01*
X10775277Y-18513936D02*
X10765753Y-18523460D01*
X10765753Y-18523460D02*
X10746706Y-18532984D01*
X10746706Y-18532984D02*
X10718134Y-18532984D01*
X10899087Y-18532984D02*
X10880039Y-18523460D01*
X10880039Y-18523460D02*
X10870515Y-18504412D01*
X10870515Y-18504412D02*
X10870515Y-18332984D01*
X11051468Y-18523460D02*
X11032420Y-18532984D01*
X11032420Y-18532984D02*
X10994325Y-18532984D01*
X10994325Y-18532984D02*
X10975277Y-18523460D01*
X10975277Y-18523460D02*
X10965753Y-18504412D01*
X10965753Y-18504412D02*
X10965753Y-18428222D01*
X10965753Y-18428222D02*
X10975277Y-18409174D01*
X10975277Y-18409174D02*
X10994325Y-18399650D01*
X10994325Y-18399650D02*
X11032420Y-18399650D01*
X11032420Y-18399650D02*
X11051468Y-18409174D01*
X11051468Y-18409174D02*
X11060992Y-18428222D01*
X11060992Y-18428222D02*
X11060992Y-18447270D01*
X11060992Y-18447270D02*
X10965753Y-18466317D01*
X11137182Y-18523460D02*
X11156230Y-18532984D01*
X11156230Y-18532984D02*
X11194325Y-18532984D01*
X11194325Y-18532984D02*
X11213372Y-18523460D01*
X11213372Y-18523460D02*
X11222896Y-18504412D01*
X11222896Y-18504412D02*
X11222896Y-18494889D01*
X11222896Y-18494889D02*
X11213372Y-18475841D01*
X11213372Y-18475841D02*
X11194325Y-18466317D01*
X11194325Y-18466317D02*
X11165753Y-18466317D01*
X11165753Y-18466317D02*
X11146706Y-18456793D01*
X11146706Y-18456793D02*
X11137182Y-18437746D01*
X11137182Y-18437746D02*
X11137182Y-18428222D01*
X11137182Y-18428222D02*
X11146706Y-18409174D01*
X11146706Y-18409174D02*
X11165753Y-18399650D01*
X11165753Y-18399650D02*
X11194325Y-18399650D01*
X11194325Y-18399650D02*
X11213372Y-18409174D01*
X11289563Y-18609174D02*
X11299087Y-18599650D01*
X11299087Y-18599650D02*
X11318134Y-18571079D01*
X11318134Y-18571079D02*
X11327658Y-18552031D01*
X11327658Y-18552031D02*
X11337182Y-18523460D01*
X11337182Y-18523460D02*
X11346706Y-18475841D01*
X11346706Y-18475841D02*
X11346706Y-18437746D01*
X11346706Y-18437746D02*
X11337182Y-18390127D01*
X11337182Y-18390127D02*
X11327658Y-18361555D01*
X11327658Y-18361555D02*
X11318134Y-18342508D01*
X11318134Y-18342508D02*
X11299087Y-18313936D01*
X11299087Y-18313936D02*
X11289563Y-18304412D01*
D12*
X6464500Y-18755500D02*
X6514500Y-18705500D01*
X6464500Y-18655500D01*
X6414500Y-18705500D01*
X6464500Y-18755500D01*
D11*
X6880039Y-18796984D02*
X6765753Y-18796984D01*
X6822896Y-18796984D02*
X6822896Y-18596984D01*
X6822896Y-18596984D02*
X6803848Y-18625555D01*
X6803848Y-18625555D02*
X6784801Y-18644603D01*
X6784801Y-18644603D02*
X6765753Y-18654127D01*
X6965753Y-18777936D02*
X6975277Y-18787460D01*
X6975277Y-18787460D02*
X6965753Y-18796984D01*
X6965753Y-18796984D02*
X6956229Y-18787460D01*
X6956229Y-18787460D02*
X6965753Y-18777936D01*
X6965753Y-18777936D02*
X6965753Y-18796984D01*
X7099086Y-18596984D02*
X7118134Y-18596984D01*
X7118134Y-18596984D02*
X7137182Y-18606508D01*
X7137182Y-18606508D02*
X7146705Y-18616031D01*
X7146705Y-18616031D02*
X7156229Y-18635079D01*
X7156229Y-18635079D02*
X7165753Y-18673174D01*
X7165753Y-18673174D02*
X7165753Y-18720793D01*
X7165753Y-18720793D02*
X7156229Y-18758889D01*
X7156229Y-18758889D02*
X7146705Y-18777936D01*
X7146705Y-18777936D02*
X7137182Y-18787460D01*
X7137182Y-18787460D02*
X7118134Y-18796984D01*
X7118134Y-18796984D02*
X7099086Y-18796984D01*
X7099086Y-18796984D02*
X7080039Y-18787460D01*
X7080039Y-18787460D02*
X7070515Y-18777936D01*
X7070515Y-18777936D02*
X7060991Y-18758889D01*
X7060991Y-18758889D02*
X7051467Y-18720793D01*
X7051467Y-18720793D02*
X7051467Y-18673174D01*
X7051467Y-18673174D02*
X7060991Y-18635079D01*
X7060991Y-18635079D02*
X7070515Y-18616031D01*
X7070515Y-18616031D02*
X7080039Y-18606508D01*
X7080039Y-18606508D02*
X7099086Y-18596984D01*
X7289562Y-18596984D02*
X7308610Y-18596984D01*
X7308610Y-18596984D02*
X7327658Y-18606508D01*
X7327658Y-18606508D02*
X7337182Y-18616031D01*
X7337182Y-18616031D02*
X7346705Y-18635079D01*
X7346705Y-18635079D02*
X7356229Y-18673174D01*
X7356229Y-18673174D02*
X7356229Y-18720793D01*
X7356229Y-18720793D02*
X7346705Y-18758889D01*
X7346705Y-18758889D02*
X7337182Y-18777936D01*
X7337182Y-18777936D02*
X7327658Y-18787460D01*
X7327658Y-18787460D02*
X7308610Y-18796984D01*
X7308610Y-18796984D02*
X7289562Y-18796984D01*
X7289562Y-18796984D02*
X7270515Y-18787460D01*
X7270515Y-18787460D02*
X7260991Y-18777936D01*
X7260991Y-18777936D02*
X7251467Y-18758889D01*
X7251467Y-18758889D02*
X7241943Y-18720793D01*
X7241943Y-18720793D02*
X7241943Y-18673174D01*
X7241943Y-18673174D02*
X7251467Y-18635079D01*
X7251467Y-18635079D02*
X7260991Y-18616031D01*
X7260991Y-18616031D02*
X7270515Y-18606508D01*
X7270515Y-18606508D02*
X7289562Y-18596984D01*
X7480039Y-18596984D02*
X7499086Y-18596984D01*
X7499086Y-18596984D02*
X7518134Y-18606508D01*
X7518134Y-18606508D02*
X7527658Y-18616031D01*
X7527658Y-18616031D02*
X7537182Y-18635079D01*
X7537182Y-18635079D02*
X7546705Y-18673174D01*
X7546705Y-18673174D02*
X7546705Y-18720793D01*
X7546705Y-18720793D02*
X7537182Y-18758889D01*
X7537182Y-18758889D02*
X7527658Y-18777936D01*
X7527658Y-18777936D02*
X7518134Y-18787460D01*
X7518134Y-18787460D02*
X7499086Y-18796984D01*
X7499086Y-18796984D02*
X7480039Y-18796984D01*
X7480039Y-18796984D02*
X7460991Y-18787460D01*
X7460991Y-18787460D02*
X7451467Y-18777936D01*
X7451467Y-18777936D02*
X7441943Y-18758889D01*
X7441943Y-18758889D02*
X7432420Y-18720793D01*
X7432420Y-18720793D02*
X7432420Y-18673174D01*
X7432420Y-18673174D02*
X7441943Y-18635079D01*
X7441943Y-18635079D02*
X7451467Y-18616031D01*
X7451467Y-18616031D02*
X7460991Y-18606508D01*
X7460991Y-18606508D02*
X7480039Y-18596984D01*
X7632420Y-18796984D02*
X7632420Y-18663650D01*
X7632420Y-18682698D02*
X7641943Y-18673174D01*
X7641943Y-18673174D02*
X7660991Y-18663650D01*
X7660991Y-18663650D02*
X7689563Y-18663650D01*
X7689563Y-18663650D02*
X7708610Y-18673174D01*
X7708610Y-18673174D02*
X7718134Y-18692222D01*
X7718134Y-18692222D02*
X7718134Y-18796984D01*
X7718134Y-18692222D02*
X7727658Y-18673174D01*
X7727658Y-18673174D02*
X7746705Y-18663650D01*
X7746705Y-18663650D02*
X7775277Y-18663650D01*
X7775277Y-18663650D02*
X7794324Y-18673174D01*
X7794324Y-18673174D02*
X7803848Y-18692222D01*
X7803848Y-18692222D02*
X7803848Y-18796984D01*
X7899086Y-18796984D02*
X7899086Y-18663650D01*
X7899086Y-18682698D02*
X7908610Y-18673174D01*
X7908610Y-18673174D02*
X7927658Y-18663650D01*
X7927658Y-18663650D02*
X7956229Y-18663650D01*
X7956229Y-18663650D02*
X7975277Y-18673174D01*
X7975277Y-18673174D02*
X7984801Y-18692222D01*
X7984801Y-18692222D02*
X7984801Y-18796984D01*
X7984801Y-18692222D02*
X7994324Y-18673174D01*
X7994324Y-18673174D02*
X8013372Y-18663650D01*
X8013372Y-18663650D02*
X8041943Y-18663650D01*
X8041943Y-18663650D02*
X8060991Y-18673174D01*
X8060991Y-18673174D02*
X8070515Y-18692222D01*
X8070515Y-18692222D02*
X8070515Y-18796984D01*
X8460991Y-18587460D02*
X8289563Y-18844603D01*
X8718134Y-18596984D02*
X8737182Y-18596984D01*
X8737182Y-18596984D02*
X8756229Y-18606508D01*
X8756229Y-18606508D02*
X8765753Y-18616031D01*
X8765753Y-18616031D02*
X8775277Y-18635079D01*
X8775277Y-18635079D02*
X8784801Y-18673174D01*
X8784801Y-18673174D02*
X8784801Y-18720793D01*
X8784801Y-18720793D02*
X8775277Y-18758889D01*
X8775277Y-18758889D02*
X8765753Y-18777936D01*
X8765753Y-18777936D02*
X8756229Y-18787460D01*
X8756229Y-18787460D02*
X8737182Y-18796984D01*
X8737182Y-18796984D02*
X8718134Y-18796984D01*
X8718134Y-18796984D02*
X8699087Y-18787460D01*
X8699087Y-18787460D02*
X8689563Y-18777936D01*
X8689563Y-18777936D02*
X8680039Y-18758889D01*
X8680039Y-18758889D02*
X8670515Y-18720793D01*
X8670515Y-18720793D02*
X8670515Y-18673174D01*
X8670515Y-18673174D02*
X8680039Y-18635079D01*
X8680039Y-18635079D02*
X8689563Y-18616031D01*
X8689563Y-18616031D02*
X8699087Y-18606508D01*
X8699087Y-18606508D02*
X8718134Y-18596984D01*
X8870515Y-18777936D02*
X8880039Y-18787460D01*
X8880039Y-18787460D02*
X8870515Y-18796984D01*
X8870515Y-18796984D02*
X8860991Y-18787460D01*
X8860991Y-18787460D02*
X8870515Y-18777936D01*
X8870515Y-18777936D02*
X8870515Y-18796984D01*
X9003848Y-18596984D02*
X9022896Y-18596984D01*
X9022896Y-18596984D02*
X9041944Y-18606508D01*
X9041944Y-18606508D02*
X9051468Y-18616031D01*
X9051468Y-18616031D02*
X9060991Y-18635079D01*
X9060991Y-18635079D02*
X9070515Y-18673174D01*
X9070515Y-18673174D02*
X9070515Y-18720793D01*
X9070515Y-18720793D02*
X9060991Y-18758889D01*
X9060991Y-18758889D02*
X9051468Y-18777936D01*
X9051468Y-18777936D02*
X9041944Y-18787460D01*
X9041944Y-18787460D02*
X9022896Y-18796984D01*
X9022896Y-18796984D02*
X9003848Y-18796984D01*
X9003848Y-18796984D02*
X8984801Y-18787460D01*
X8984801Y-18787460D02*
X8975277Y-18777936D01*
X8975277Y-18777936D02*
X8965753Y-18758889D01*
X8965753Y-18758889D02*
X8956229Y-18720793D01*
X8956229Y-18720793D02*
X8956229Y-18673174D01*
X8956229Y-18673174D02*
X8965753Y-18635079D01*
X8965753Y-18635079D02*
X8975277Y-18616031D01*
X8975277Y-18616031D02*
X8984801Y-18606508D01*
X8984801Y-18606508D02*
X9003848Y-18596984D01*
X9137182Y-18596984D02*
X9260991Y-18596984D01*
X9260991Y-18596984D02*
X9194325Y-18673174D01*
X9194325Y-18673174D02*
X9222896Y-18673174D01*
X9222896Y-18673174D02*
X9241944Y-18682698D01*
X9241944Y-18682698D02*
X9251468Y-18692222D01*
X9251468Y-18692222D02*
X9260991Y-18711270D01*
X9260991Y-18711270D02*
X9260991Y-18758889D01*
X9260991Y-18758889D02*
X9251468Y-18777936D01*
X9251468Y-18777936D02*
X9241944Y-18787460D01*
X9241944Y-18787460D02*
X9222896Y-18796984D01*
X9222896Y-18796984D02*
X9165753Y-18796984D01*
X9165753Y-18796984D02*
X9146706Y-18787460D01*
X9146706Y-18787460D02*
X9137182Y-18777936D01*
X9356229Y-18796984D02*
X9394325Y-18796984D01*
X9394325Y-18796984D02*
X9413372Y-18787460D01*
X9413372Y-18787460D02*
X9422896Y-18777936D01*
X9422896Y-18777936D02*
X9441944Y-18749365D01*
X9441944Y-18749365D02*
X9451468Y-18711270D01*
X9451468Y-18711270D02*
X9451468Y-18635079D01*
X9451468Y-18635079D02*
X9441944Y-18616031D01*
X9441944Y-18616031D02*
X9432420Y-18606508D01*
X9432420Y-18606508D02*
X9413372Y-18596984D01*
X9413372Y-18596984D02*
X9375277Y-18596984D01*
X9375277Y-18596984D02*
X9356229Y-18606508D01*
X9356229Y-18606508D02*
X9346706Y-18616031D01*
X9346706Y-18616031D02*
X9337182Y-18635079D01*
X9337182Y-18635079D02*
X9337182Y-18682698D01*
X9337182Y-18682698D02*
X9346706Y-18701746D01*
X9346706Y-18701746D02*
X9356229Y-18711270D01*
X9356229Y-18711270D02*
X9375277Y-18720793D01*
X9375277Y-18720793D02*
X9413372Y-18720793D01*
X9413372Y-18720793D02*
X9432420Y-18711270D01*
X9432420Y-18711270D02*
X9441944Y-18701746D01*
X9441944Y-18701746D02*
X9451468Y-18682698D01*
X9622896Y-18663650D02*
X9622896Y-18796984D01*
X9575277Y-18587460D02*
X9527658Y-18730317D01*
X9527658Y-18730317D02*
X9651468Y-18730317D01*
X9718134Y-18596984D02*
X9718134Y-18635079D01*
X9794325Y-18596984D02*
X9794325Y-18635079D01*
X10089563Y-18873174D02*
X10080039Y-18863650D01*
X10080039Y-18863650D02*
X10060991Y-18835079D01*
X10060991Y-18835079D02*
X10051468Y-18816031D01*
X10051468Y-18816031D02*
X10041944Y-18787460D01*
X10041944Y-18787460D02*
X10032420Y-18739841D01*
X10032420Y-18739841D02*
X10032420Y-18701746D01*
X10032420Y-18701746D02*
X10041944Y-18654127D01*
X10041944Y-18654127D02*
X10051468Y-18625555D01*
X10051468Y-18625555D02*
X10060991Y-18606508D01*
X10060991Y-18606508D02*
X10080039Y-18577936D01*
X10080039Y-18577936D02*
X10089563Y-18568412D01*
X10260991Y-18596984D02*
X10165753Y-18596984D01*
X10165753Y-18596984D02*
X10156230Y-18692222D01*
X10156230Y-18692222D02*
X10165753Y-18682698D01*
X10165753Y-18682698D02*
X10184801Y-18673174D01*
X10184801Y-18673174D02*
X10232420Y-18673174D01*
X10232420Y-18673174D02*
X10251468Y-18682698D01*
X10251468Y-18682698D02*
X10260991Y-18692222D01*
X10260991Y-18692222D02*
X10270515Y-18711270D01*
X10270515Y-18711270D02*
X10270515Y-18758889D01*
X10270515Y-18758889D02*
X10260991Y-18777936D01*
X10260991Y-18777936D02*
X10251468Y-18787460D01*
X10251468Y-18787460D02*
X10232420Y-18796984D01*
X10232420Y-18796984D02*
X10184801Y-18796984D01*
X10184801Y-18796984D02*
X10165753Y-18787460D01*
X10165753Y-18787460D02*
X10156230Y-18777936D01*
X10394325Y-18596984D02*
X10413372Y-18596984D01*
X10413372Y-18596984D02*
X10432420Y-18606508D01*
X10432420Y-18606508D02*
X10441944Y-18616031D01*
X10441944Y-18616031D02*
X10451468Y-18635079D01*
X10451468Y-18635079D02*
X10460991Y-18673174D01*
X10460991Y-18673174D02*
X10460991Y-18720793D01*
X10460991Y-18720793D02*
X10451468Y-18758889D01*
X10451468Y-18758889D02*
X10441944Y-18777936D01*
X10441944Y-18777936D02*
X10432420Y-18787460D01*
X10432420Y-18787460D02*
X10413372Y-18796984D01*
X10413372Y-18796984D02*
X10394325Y-18796984D01*
X10394325Y-18796984D02*
X10375277Y-18787460D01*
X10375277Y-18787460D02*
X10365753Y-18777936D01*
X10365753Y-18777936D02*
X10356230Y-18758889D01*
X10356230Y-18758889D02*
X10346706Y-18720793D01*
X10346706Y-18720793D02*
X10346706Y-18673174D01*
X10346706Y-18673174D02*
X10356230Y-18635079D01*
X10356230Y-18635079D02*
X10365753Y-18616031D01*
X10365753Y-18616031D02*
X10375277Y-18606508D01*
X10375277Y-18606508D02*
X10394325Y-18596984D01*
X10699087Y-18796984D02*
X10699087Y-18596984D01*
X10784801Y-18796984D02*
X10784801Y-18692222D01*
X10784801Y-18692222D02*
X10775277Y-18673174D01*
X10775277Y-18673174D02*
X10756230Y-18663650D01*
X10756230Y-18663650D02*
X10727658Y-18663650D01*
X10727658Y-18663650D02*
X10708611Y-18673174D01*
X10708611Y-18673174D02*
X10699087Y-18682698D01*
X10908611Y-18796984D02*
X10889563Y-18787460D01*
X10889563Y-18787460D02*
X10880039Y-18777936D01*
X10880039Y-18777936D02*
X10870515Y-18758889D01*
X10870515Y-18758889D02*
X10870515Y-18701746D01*
X10870515Y-18701746D02*
X10880039Y-18682698D01*
X10880039Y-18682698D02*
X10889563Y-18673174D01*
X10889563Y-18673174D02*
X10908611Y-18663650D01*
X10908611Y-18663650D02*
X10937182Y-18663650D01*
X10937182Y-18663650D02*
X10956230Y-18673174D01*
X10956230Y-18673174D02*
X10965753Y-18682698D01*
X10965753Y-18682698D02*
X10975277Y-18701746D01*
X10975277Y-18701746D02*
X10975277Y-18758889D01*
X10975277Y-18758889D02*
X10965753Y-18777936D01*
X10965753Y-18777936D02*
X10956230Y-18787460D01*
X10956230Y-18787460D02*
X10937182Y-18796984D01*
X10937182Y-18796984D02*
X10908611Y-18796984D01*
X11089563Y-18796984D02*
X11070515Y-18787460D01*
X11070515Y-18787460D02*
X11060992Y-18768412D01*
X11060992Y-18768412D02*
X11060992Y-18596984D01*
X11241944Y-18787460D02*
X11222896Y-18796984D01*
X11222896Y-18796984D02*
X11184801Y-18796984D01*
X11184801Y-18796984D02*
X11165753Y-18787460D01*
X11165753Y-18787460D02*
X11156230Y-18768412D01*
X11156230Y-18768412D02*
X11156230Y-18692222D01*
X11156230Y-18692222D02*
X11165753Y-18673174D01*
X11165753Y-18673174D02*
X11184801Y-18663650D01*
X11184801Y-18663650D02*
X11222896Y-18663650D01*
X11222896Y-18663650D02*
X11241944Y-18673174D01*
X11241944Y-18673174D02*
X11251468Y-18692222D01*
X11251468Y-18692222D02*
X11251468Y-18711270D01*
X11251468Y-18711270D02*
X11156230Y-18730317D01*
X11327658Y-18787460D02*
X11346706Y-18796984D01*
X11346706Y-18796984D02*
X11384801Y-18796984D01*
X11384801Y-18796984D02*
X11403849Y-18787460D01*
X11403849Y-18787460D02*
X11413372Y-18768412D01*
X11413372Y-18768412D02*
X11413372Y-18758889D01*
X11413372Y-18758889D02*
X11403849Y-18739841D01*
X11403849Y-18739841D02*
X11384801Y-18730317D01*
X11384801Y-18730317D02*
X11356230Y-18730317D01*
X11356230Y-18730317D02*
X11337182Y-18720793D01*
X11337182Y-18720793D02*
X11327658Y-18701746D01*
X11327658Y-18701746D02*
X11327658Y-18692222D01*
X11327658Y-18692222D02*
X11337182Y-18673174D01*
X11337182Y-18673174D02*
X11356230Y-18663650D01*
X11356230Y-18663650D02*
X11384801Y-18663650D01*
X11384801Y-18663650D02*
X11403849Y-18673174D01*
X11480039Y-18873174D02*
X11489563Y-18863650D01*
X11489563Y-18863650D02*
X11508611Y-18835079D01*
X11508611Y-18835079D02*
X11518134Y-18816031D01*
X11518134Y-18816031D02*
X11527658Y-18787460D01*
X11527658Y-18787460D02*
X11537182Y-18739841D01*
X11537182Y-18739841D02*
X11537182Y-18701746D01*
X11537182Y-18701746D02*
X11527658Y-18654127D01*
X11527658Y-18654127D02*
X11518134Y-18625555D01*
X11518134Y-18625555D02*
X11508611Y-18606508D01*
X11508611Y-18606508D02*
X11489563Y-18577936D01*
X11489563Y-18577936D02*
X11480039Y-18568412D01*
D13*
X6362500Y-18893500D02*
X6514500Y-19045500D01*
X6514500Y-18893500D02*
X6362500Y-19045500D01*
X6514500Y-18969500D02*
G75*
G02*
X6362500Y-18969500I-76000J0D01*
G01*
X6362500Y-18969500D02*
G75*
G02*
X6514500Y-18969500I76000J0D01*
G01*
D11*
X6880039Y-19060984D02*
X6765753Y-19060984D01*
X6822896Y-19060984D02*
X6822896Y-18860984D01*
X6822896Y-18860984D02*
X6803848Y-18889555D01*
X6803848Y-18889555D02*
X6784801Y-18908603D01*
X6784801Y-18908603D02*
X6765753Y-18918127D01*
X6965753Y-19041936D02*
X6975277Y-19051460D01*
X6975277Y-19051460D02*
X6965753Y-19060984D01*
X6965753Y-19060984D02*
X6956229Y-19051460D01*
X6956229Y-19051460D02*
X6965753Y-19041936D01*
X6965753Y-19041936D02*
X6965753Y-19060984D01*
X7156229Y-18860984D02*
X7060991Y-18860984D01*
X7060991Y-18860984D02*
X7051467Y-18956222D01*
X7051467Y-18956222D02*
X7060991Y-18946698D01*
X7060991Y-18946698D02*
X7080039Y-18937174D01*
X7080039Y-18937174D02*
X7127658Y-18937174D01*
X7127658Y-18937174D02*
X7146705Y-18946698D01*
X7146705Y-18946698D02*
X7156229Y-18956222D01*
X7156229Y-18956222D02*
X7165753Y-18975270D01*
X7165753Y-18975270D02*
X7165753Y-19022889D01*
X7165753Y-19022889D02*
X7156229Y-19041936D01*
X7156229Y-19041936D02*
X7146705Y-19051460D01*
X7146705Y-19051460D02*
X7127658Y-19060984D01*
X7127658Y-19060984D02*
X7080039Y-19060984D01*
X7080039Y-19060984D02*
X7060991Y-19051460D01*
X7060991Y-19051460D02*
X7051467Y-19041936D01*
X7241943Y-18880031D02*
X7251467Y-18870508D01*
X7251467Y-18870508D02*
X7270515Y-18860984D01*
X7270515Y-18860984D02*
X7318134Y-18860984D01*
X7318134Y-18860984D02*
X7337182Y-18870508D01*
X7337182Y-18870508D02*
X7346705Y-18880031D01*
X7346705Y-18880031D02*
X7356229Y-18899079D01*
X7356229Y-18899079D02*
X7356229Y-18918127D01*
X7356229Y-18918127D02*
X7346705Y-18946698D01*
X7346705Y-18946698D02*
X7232420Y-19060984D01*
X7232420Y-19060984D02*
X7356229Y-19060984D01*
X7480039Y-18860984D02*
X7499086Y-18860984D01*
X7499086Y-18860984D02*
X7518134Y-18870508D01*
X7518134Y-18870508D02*
X7527658Y-18880031D01*
X7527658Y-18880031D02*
X7537182Y-18899079D01*
X7537182Y-18899079D02*
X7546705Y-18937174D01*
X7546705Y-18937174D02*
X7546705Y-18984793D01*
X7546705Y-18984793D02*
X7537182Y-19022889D01*
X7537182Y-19022889D02*
X7527658Y-19041936D01*
X7527658Y-19041936D02*
X7518134Y-19051460D01*
X7518134Y-19051460D02*
X7499086Y-19060984D01*
X7499086Y-19060984D02*
X7480039Y-19060984D01*
X7480039Y-19060984D02*
X7460991Y-19051460D01*
X7460991Y-19051460D02*
X7451467Y-19041936D01*
X7451467Y-19041936D02*
X7441943Y-19022889D01*
X7441943Y-19022889D02*
X7432420Y-18984793D01*
X7432420Y-18984793D02*
X7432420Y-18937174D01*
X7432420Y-18937174D02*
X7441943Y-18899079D01*
X7441943Y-18899079D02*
X7451467Y-18880031D01*
X7451467Y-18880031D02*
X7460991Y-18870508D01*
X7460991Y-18870508D02*
X7480039Y-18860984D01*
X7632420Y-19060984D02*
X7632420Y-18927650D01*
X7632420Y-18946698D02*
X7641943Y-18937174D01*
X7641943Y-18937174D02*
X7660991Y-18927650D01*
X7660991Y-18927650D02*
X7689563Y-18927650D01*
X7689563Y-18927650D02*
X7708610Y-18937174D01*
X7708610Y-18937174D02*
X7718134Y-18956222D01*
X7718134Y-18956222D02*
X7718134Y-19060984D01*
X7718134Y-18956222D02*
X7727658Y-18937174D01*
X7727658Y-18937174D02*
X7746705Y-18927650D01*
X7746705Y-18927650D02*
X7775277Y-18927650D01*
X7775277Y-18927650D02*
X7794324Y-18937174D01*
X7794324Y-18937174D02*
X7803848Y-18956222D01*
X7803848Y-18956222D02*
X7803848Y-19060984D01*
X7899086Y-19060984D02*
X7899086Y-18927650D01*
X7899086Y-18946698D02*
X7908610Y-18937174D01*
X7908610Y-18937174D02*
X7927658Y-18927650D01*
X7927658Y-18927650D02*
X7956229Y-18927650D01*
X7956229Y-18927650D02*
X7975277Y-18937174D01*
X7975277Y-18937174D02*
X7984801Y-18956222D01*
X7984801Y-18956222D02*
X7984801Y-19060984D01*
X7984801Y-18956222D02*
X7994324Y-18937174D01*
X7994324Y-18937174D02*
X8013372Y-18927650D01*
X8013372Y-18927650D02*
X8041943Y-18927650D01*
X8041943Y-18927650D02*
X8060991Y-18937174D01*
X8060991Y-18937174D02*
X8070515Y-18956222D01*
X8070515Y-18956222D02*
X8070515Y-19060984D01*
X8460991Y-18851460D02*
X8289563Y-19108603D01*
X8718134Y-18860984D02*
X8737182Y-18860984D01*
X8737182Y-18860984D02*
X8756229Y-18870508D01*
X8756229Y-18870508D02*
X8765753Y-18880031D01*
X8765753Y-18880031D02*
X8775277Y-18899079D01*
X8775277Y-18899079D02*
X8784801Y-18937174D01*
X8784801Y-18937174D02*
X8784801Y-18984793D01*
X8784801Y-18984793D02*
X8775277Y-19022889D01*
X8775277Y-19022889D02*
X8765753Y-19041936D01*
X8765753Y-19041936D02*
X8756229Y-19051460D01*
X8756229Y-19051460D02*
X8737182Y-19060984D01*
X8737182Y-19060984D02*
X8718134Y-19060984D01*
X8718134Y-19060984D02*
X8699087Y-19051460D01*
X8699087Y-19051460D02*
X8689563Y-19041936D01*
X8689563Y-19041936D02*
X8680039Y-19022889D01*
X8680039Y-19022889D02*
X8670515Y-18984793D01*
X8670515Y-18984793D02*
X8670515Y-18937174D01*
X8670515Y-18937174D02*
X8680039Y-18899079D01*
X8680039Y-18899079D02*
X8689563Y-18880031D01*
X8689563Y-18880031D02*
X8699087Y-18870508D01*
X8699087Y-18870508D02*
X8718134Y-18860984D01*
X8870515Y-19041936D02*
X8880039Y-19051460D01*
X8880039Y-19051460D02*
X8870515Y-19060984D01*
X8870515Y-19060984D02*
X8860991Y-19051460D01*
X8860991Y-19051460D02*
X8870515Y-19041936D01*
X8870515Y-19041936D02*
X8870515Y-19060984D01*
X9003848Y-18860984D02*
X9022896Y-18860984D01*
X9022896Y-18860984D02*
X9041944Y-18870508D01*
X9041944Y-18870508D02*
X9051468Y-18880031D01*
X9051468Y-18880031D02*
X9060991Y-18899079D01*
X9060991Y-18899079D02*
X9070515Y-18937174D01*
X9070515Y-18937174D02*
X9070515Y-18984793D01*
X9070515Y-18984793D02*
X9060991Y-19022889D01*
X9060991Y-19022889D02*
X9051468Y-19041936D01*
X9051468Y-19041936D02*
X9041944Y-19051460D01*
X9041944Y-19051460D02*
X9022896Y-19060984D01*
X9022896Y-19060984D02*
X9003848Y-19060984D01*
X9003848Y-19060984D02*
X8984801Y-19051460D01*
X8984801Y-19051460D02*
X8975277Y-19041936D01*
X8975277Y-19041936D02*
X8965753Y-19022889D01*
X8965753Y-19022889D02*
X8956229Y-18984793D01*
X8956229Y-18984793D02*
X8956229Y-18937174D01*
X8956229Y-18937174D02*
X8965753Y-18899079D01*
X8965753Y-18899079D02*
X8975277Y-18880031D01*
X8975277Y-18880031D02*
X8984801Y-18870508D01*
X8984801Y-18870508D02*
X9003848Y-18860984D01*
X9251468Y-18860984D02*
X9156229Y-18860984D01*
X9156229Y-18860984D02*
X9146706Y-18956222D01*
X9146706Y-18956222D02*
X9156229Y-18946698D01*
X9156229Y-18946698D02*
X9175277Y-18937174D01*
X9175277Y-18937174D02*
X9222896Y-18937174D01*
X9222896Y-18937174D02*
X9241944Y-18946698D01*
X9241944Y-18946698D02*
X9251468Y-18956222D01*
X9251468Y-18956222D02*
X9260991Y-18975270D01*
X9260991Y-18975270D02*
X9260991Y-19022889D01*
X9260991Y-19022889D02*
X9251468Y-19041936D01*
X9251468Y-19041936D02*
X9241944Y-19051460D01*
X9241944Y-19051460D02*
X9222896Y-19060984D01*
X9222896Y-19060984D02*
X9175277Y-19060984D01*
X9175277Y-19060984D02*
X9156229Y-19051460D01*
X9156229Y-19051460D02*
X9146706Y-19041936D01*
X9356229Y-19060984D02*
X9394325Y-19060984D01*
X9394325Y-19060984D02*
X9413372Y-19051460D01*
X9413372Y-19051460D02*
X9422896Y-19041936D01*
X9422896Y-19041936D02*
X9441944Y-19013365D01*
X9441944Y-19013365D02*
X9451468Y-18975270D01*
X9451468Y-18975270D02*
X9451468Y-18899079D01*
X9451468Y-18899079D02*
X9441944Y-18880031D01*
X9441944Y-18880031D02*
X9432420Y-18870508D01*
X9432420Y-18870508D02*
X9413372Y-18860984D01*
X9413372Y-18860984D02*
X9375277Y-18860984D01*
X9375277Y-18860984D02*
X9356229Y-18870508D01*
X9356229Y-18870508D02*
X9346706Y-18880031D01*
X9346706Y-18880031D02*
X9337182Y-18899079D01*
X9337182Y-18899079D02*
X9337182Y-18946698D01*
X9337182Y-18946698D02*
X9346706Y-18965746D01*
X9346706Y-18965746D02*
X9356229Y-18975270D01*
X9356229Y-18975270D02*
X9375277Y-18984793D01*
X9375277Y-18984793D02*
X9413372Y-18984793D01*
X9413372Y-18984793D02*
X9432420Y-18975270D01*
X9432420Y-18975270D02*
X9441944Y-18965746D01*
X9441944Y-18965746D02*
X9451468Y-18946698D01*
X9565753Y-18946698D02*
X9546706Y-18937174D01*
X9546706Y-18937174D02*
X9537182Y-18927650D01*
X9537182Y-18927650D02*
X9527658Y-18908603D01*
X9527658Y-18908603D02*
X9527658Y-18899079D01*
X9527658Y-18899079D02*
X9537182Y-18880031D01*
X9537182Y-18880031D02*
X9546706Y-18870508D01*
X9546706Y-18870508D02*
X9565753Y-18860984D01*
X9565753Y-18860984D02*
X9603849Y-18860984D01*
X9603849Y-18860984D02*
X9622896Y-18870508D01*
X9622896Y-18870508D02*
X9632420Y-18880031D01*
X9632420Y-18880031D02*
X9641944Y-18899079D01*
X9641944Y-18899079D02*
X9641944Y-18908603D01*
X9641944Y-18908603D02*
X9632420Y-18927650D01*
X9632420Y-18927650D02*
X9622896Y-18937174D01*
X9622896Y-18937174D02*
X9603849Y-18946698D01*
X9603849Y-18946698D02*
X9565753Y-18946698D01*
X9565753Y-18946698D02*
X9546706Y-18956222D01*
X9546706Y-18956222D02*
X9537182Y-18965746D01*
X9537182Y-18965746D02*
X9527658Y-18984793D01*
X9527658Y-18984793D02*
X9527658Y-19022889D01*
X9527658Y-19022889D02*
X9537182Y-19041936D01*
X9537182Y-19041936D02*
X9546706Y-19051460D01*
X9546706Y-19051460D02*
X9565753Y-19060984D01*
X9565753Y-19060984D02*
X9603849Y-19060984D01*
X9603849Y-19060984D02*
X9622896Y-19051460D01*
X9622896Y-19051460D02*
X9632420Y-19041936D01*
X9632420Y-19041936D02*
X9641944Y-19022889D01*
X9641944Y-19022889D02*
X9641944Y-18984793D01*
X9641944Y-18984793D02*
X9632420Y-18965746D01*
X9632420Y-18965746D02*
X9622896Y-18956222D01*
X9622896Y-18956222D02*
X9603849Y-18946698D01*
X9718134Y-18860984D02*
X9718134Y-18899079D01*
X9794325Y-18860984D02*
X9794325Y-18899079D01*
X10089563Y-19137174D02*
X10080039Y-19127650D01*
X10080039Y-19127650D02*
X10060991Y-19099079D01*
X10060991Y-19099079D02*
X10051468Y-19080031D01*
X10051468Y-19080031D02*
X10041944Y-19051460D01*
X10041944Y-19051460D02*
X10032420Y-19003841D01*
X10032420Y-19003841D02*
X10032420Y-18965746D01*
X10032420Y-18965746D02*
X10041944Y-18918127D01*
X10041944Y-18918127D02*
X10051468Y-18889555D01*
X10051468Y-18889555D02*
X10060991Y-18870508D01*
X10060991Y-18870508D02*
X10080039Y-18841936D01*
X10080039Y-18841936D02*
X10089563Y-18832412D01*
X10251468Y-18860984D02*
X10213372Y-18860984D01*
X10213372Y-18860984D02*
X10194325Y-18870508D01*
X10194325Y-18870508D02*
X10184801Y-18880031D01*
X10184801Y-18880031D02*
X10165753Y-18908603D01*
X10165753Y-18908603D02*
X10156230Y-18946698D01*
X10156230Y-18946698D02*
X10156230Y-19022889D01*
X10156230Y-19022889D02*
X10165753Y-19041936D01*
X10165753Y-19041936D02*
X10175277Y-19051460D01*
X10175277Y-19051460D02*
X10194325Y-19060984D01*
X10194325Y-19060984D02*
X10232420Y-19060984D01*
X10232420Y-19060984D02*
X10251468Y-19051460D01*
X10251468Y-19051460D02*
X10260991Y-19041936D01*
X10260991Y-19041936D02*
X10270515Y-19022889D01*
X10270515Y-19022889D02*
X10270515Y-18975270D01*
X10270515Y-18975270D02*
X10260991Y-18956222D01*
X10260991Y-18956222D02*
X10251468Y-18946698D01*
X10251468Y-18946698D02*
X10232420Y-18937174D01*
X10232420Y-18937174D02*
X10194325Y-18937174D01*
X10194325Y-18937174D02*
X10175277Y-18946698D01*
X10175277Y-18946698D02*
X10165753Y-18956222D01*
X10165753Y-18956222D02*
X10156230Y-18975270D01*
X10508611Y-19060984D02*
X10508611Y-18860984D01*
X10594325Y-19060984D02*
X10594325Y-18956222D01*
X10594325Y-18956222D02*
X10584801Y-18937174D01*
X10584801Y-18937174D02*
X10565753Y-18927650D01*
X10565753Y-18927650D02*
X10537182Y-18927650D01*
X10537182Y-18927650D02*
X10518134Y-18937174D01*
X10518134Y-18937174D02*
X10508611Y-18946698D01*
X10718134Y-19060984D02*
X10699087Y-19051460D01*
X10699087Y-19051460D02*
X10689563Y-19041936D01*
X10689563Y-19041936D02*
X10680039Y-19022889D01*
X10680039Y-19022889D02*
X10680039Y-18965746D01*
X10680039Y-18965746D02*
X10689563Y-18946698D01*
X10689563Y-18946698D02*
X10699087Y-18937174D01*
X10699087Y-18937174D02*
X10718134Y-18927650D01*
X10718134Y-18927650D02*
X10746706Y-18927650D01*
X10746706Y-18927650D02*
X10765753Y-18937174D01*
X10765753Y-18937174D02*
X10775277Y-18946698D01*
X10775277Y-18946698D02*
X10784801Y-18965746D01*
X10784801Y-18965746D02*
X10784801Y-19022889D01*
X10784801Y-19022889D02*
X10775277Y-19041936D01*
X10775277Y-19041936D02*
X10765753Y-19051460D01*
X10765753Y-19051460D02*
X10746706Y-19060984D01*
X10746706Y-19060984D02*
X10718134Y-19060984D01*
X10899087Y-19060984D02*
X10880039Y-19051460D01*
X10880039Y-19051460D02*
X10870515Y-19032412D01*
X10870515Y-19032412D02*
X10870515Y-18860984D01*
X11051468Y-19051460D02*
X11032420Y-19060984D01*
X11032420Y-19060984D02*
X10994325Y-19060984D01*
X10994325Y-19060984D02*
X10975277Y-19051460D01*
X10975277Y-19051460D02*
X10965753Y-19032412D01*
X10965753Y-19032412D02*
X10965753Y-18956222D01*
X10965753Y-18956222D02*
X10975277Y-18937174D01*
X10975277Y-18937174D02*
X10994325Y-18927650D01*
X10994325Y-18927650D02*
X11032420Y-18927650D01*
X11032420Y-18927650D02*
X11051468Y-18937174D01*
X11051468Y-18937174D02*
X11060992Y-18956222D01*
X11060992Y-18956222D02*
X11060992Y-18975270D01*
X11060992Y-18975270D02*
X10965753Y-18994317D01*
X11137182Y-19051460D02*
X11156230Y-19060984D01*
X11156230Y-19060984D02*
X11194325Y-19060984D01*
X11194325Y-19060984D02*
X11213372Y-19051460D01*
X11213372Y-19051460D02*
X11222896Y-19032412D01*
X11222896Y-19032412D02*
X11222896Y-19022889D01*
X11222896Y-19022889D02*
X11213372Y-19003841D01*
X11213372Y-19003841D02*
X11194325Y-18994317D01*
X11194325Y-18994317D02*
X11165753Y-18994317D01*
X11165753Y-18994317D02*
X11146706Y-18984793D01*
X11146706Y-18984793D02*
X11137182Y-18965746D01*
X11137182Y-18965746D02*
X11137182Y-18956222D01*
X11137182Y-18956222D02*
X11146706Y-18937174D01*
X11146706Y-18937174D02*
X11165753Y-18927650D01*
X11165753Y-18927650D02*
X11194325Y-18927650D01*
X11194325Y-18927650D02*
X11213372Y-18937174D01*
X11289563Y-19137174D02*
X11299087Y-19127650D01*
X11299087Y-19127650D02*
X11318134Y-19099079D01*
X11318134Y-19099079D02*
X11327658Y-19080031D01*
X11327658Y-19080031D02*
X11337182Y-19051460D01*
X11337182Y-19051460D02*
X11346706Y-19003841D01*
X11346706Y-19003841D02*
X11346706Y-18965746D01*
X11346706Y-18965746D02*
X11337182Y-18918127D01*
X11337182Y-18918127D02*
X11327658Y-18889555D01*
X11327658Y-18889555D02*
X11318134Y-18870508D01*
X11318134Y-18870508D02*
X11299087Y-18841936D01*
X11299087Y-18841936D02*
X11289563Y-18832412D01*
M02*
